<svg width="40" height="40" viewBox="0 0 40 40" fill="none" xmlns="http://www.w3.org/2000/svg">
<g clip-path="url(#clip0_234_559)">
<path d="M12.3719 16.3704C12.5346 16.6146 12.6471 16.8679 12.7527 17.1401C12.7748 17.1952 12.7969 17.2502 12.8197 17.3069C12.8897 17.4817 12.9585 17.657 13.0274 17.8323C13.0748 17.9513 13.1223 18.0703 13.1699 18.1893C13.286 18.4801 13.4011 18.7713 13.5157 19.0627C13.8461 18.9358 14.1765 18.8088 14.5069 18.6819C14.6005 18.6459 14.6941 18.61 14.7905 18.5729C14.8809 18.5382 14.9713 18.5034 15.0644 18.4676C15.1475 18.4357 15.2305 18.4038 15.3161 18.3709C15.5419 18.2869 15.5419 18.2869 15.7333 18.1917C16.2443 18.0253 16.6532 18.1304 17.1363 18.3303C17.1874 18.3511 17.2385 18.3719 17.2912 18.3934C17.4524 18.4592 17.6129 18.5266 17.7735 18.594C17.8835 18.6392 17.9936 18.6844 18.1037 18.7295C18.3717 18.8394 18.6391 18.9507 18.9063 19.0627C19.1104 18.8586 19.1687 18.6595 19.2719 18.3895C19.3127 18.2846 19.3534 18.1797 19.3943 18.0749C19.458 17.9097 19.5215 17.7445 19.5845 17.5791C19.6456 17.4192 19.7077 17.2598 19.7699 17.1004C19.8066 17.0049 19.8432 16.9093 19.881 16.8109C20.0746 16.4072 20.0746 16.4072 20.3125 16.2502C20.984 16.1626 21.6401 16.3816 22.2867 16.5468C22.4093 16.5777 22.5319 16.6085 22.6545 16.6392C22.9103 16.7035 23.1659 16.7685 23.4214 16.8339C23.7485 16.9175 24.076 16.9994 24.4036 17.0807C24.6564 17.1438 24.909 17.2078 25.1614 17.2722C25.2821 17.3028 25.4029 17.3331 25.5237 17.363C25.6924 17.4049 25.8608 17.4482 26.029 17.4919C26.1248 17.5162 26.2205 17.5405 26.3191 17.5655C26.578 17.6623 26.7029 17.7553 26.875 17.969C26.9548 18.2693 26.9162 18.5223 26.7627 18.7893C26.1827 19.1288 25.3715 18.8078 24.7708 18.6529C24.6671 18.6267 24.5634 18.6006 24.4597 18.5746C24.2437 18.5203 24.0279 18.4654 23.8122 18.4101C23.5356 18.3391 23.2588 18.2691 22.9818 18.1994C22.7171 18.1327 22.4525 18.0657 22.1878 17.9986C22.0883 17.9733 21.9888 17.9481 21.8863 17.9221C21.7947 17.8987 21.7031 17.8752 21.6088 17.851C21.528 17.8304 21.4472 17.8097 21.3639 17.7885C21.1719 17.7346 21.1719 17.7346 21.0157 17.6565C20.9858 17.75 20.956 17.8436 20.9253 17.94C20.7548 18.4509 20.5533 18.9491 20.3516 19.4485C20.3132 19.5456 20.2749 19.6427 20.2365 19.7398C20.1811 19.877 20.1811 19.877 20.1245 20.017C20.0913 20.1001 20.058 20.1832 20.0237 20.2688C19.9219 20.469 19.9219 20.469 19.6875 20.6252C19.1992 20.6681 18.8692 20.5778 18.4281 20.3777C18.3087 20.3267 18.1894 20.2758 18.0699 20.225C17.8846 20.1445 17.6996 20.0634 17.5151 19.9811C16.7612 19.5985 16.7612 19.5985 15.9595 19.5876C15.8467 19.6445 15.7354 19.7043 15.625 19.7658C15.4506 19.8377 15.2754 19.9078 15.0998 19.9767C14.7398 20.1227 14.7398 20.1227 14.3807 20.2709C13.3187 20.7124 13.3187 20.7124 12.8125 20.6252C12.5092 20.3868 12.3846 20.091 12.2473 19.7408C12.2252 19.6861 12.2031 19.6315 12.1804 19.5751C12.1341 19.4601 12.0881 19.3449 12.0425 19.2296C11.9726 19.0527 11.9015 18.8762 11.8302 18.6999C11.7852 18.5879 11.7404 18.4759 11.6956 18.3639C11.6744 18.311 11.6531 18.2581 11.6312 18.2036C11.4844 17.831 11.4844 17.831 11.4844 17.6565C11.3649 17.6905 11.3649 17.6905 11.2431 17.7253C10.5512 17.9208 9.85721 18.1053 9.15958 18.2793C9.0808 18.2991 9.00201 18.3188 8.92084 18.3391C8.59566 18.4205 8.27045 18.5017 7.94498 18.5819C7.70352 18.6415 7.4623 18.7021 7.2211 18.7627C7.14842 18.7804 7.07574 18.7981 7.00086 18.8163C6.61109 18.9151 6.26591 19.0364 5.91224 19.2289C5.78128 19.2971 5.78128 19.2971 5.54691 19.3752C5.46084 19.5079 5.46084 19.5079 5.39066 19.6877C5.35037 19.7747 5.31009 19.8617 5.26859 19.9514C5.09935 20.3782 5.06837 20.7701 5.06771 21.2266C5.06753 21.2772 5.06736 21.3278 5.06718 21.38C5.06668 21.5486 5.06674 21.7171 5.06681 21.8857C5.06658 22.007 5.06631 22.1283 5.06601 22.2496C5.06533 22.5784 5.06514 22.9072 5.06509 23.2361C5.06504 23.4417 5.06487 23.6474 5.06466 23.853C5.06394 24.5711 5.06362 25.2892 5.06368 26.0073C5.06373 26.6756 5.0629 27.3439 5.06167 28.0123C5.06065 28.5869 5.06023 29.1616 5.06028 29.7362C5.0603 30.0791 5.06008 30.4219 5.05925 30.7647C5.05849 31.0873 5.05849 31.4099 5.05906 31.7326C5.05914 31.8506 5.05895 31.9686 5.05848 32.0866C5.05204 33.2603 5.05204 33.2603 5.54691 34.2971C5.54691 34.3487 5.54691 34.4002 5.54691 34.4533C6.15298 34.7685 6.67448 34.9303 7.3585 34.9345C7.50145 34.9356 7.50145 34.9356 7.64729 34.9368C7.75185 34.9372 7.85641 34.9377 7.96096 34.9381C8.07187 34.9389 8.18277 34.9397 8.29368 34.9405C8.59387 34.9426 8.89407 34.9442 9.19426 34.9458C9.50832 34.9475 9.82237 34.9496 10.1364 34.9517C10.7307 34.9556 11.325 34.9591 11.9193 34.9625C12.5961 34.9664 13.2729 34.9707 13.9496 34.975C15.3414 34.9839 16.7332 34.9922 18.125 35.0002C18.125 33.7627 18.125 32.5252 18.125 31.2502C17.8521 31.2519 17.5792 31.2535 17.2981 31.2552C16.3975 31.2604 15.497 31.2638 14.5964 31.2664C14.0503 31.268 13.5042 31.2702 12.958 31.2738C12.4312 31.2772 11.9044 31.2791 11.3776 31.2799C11.1764 31.2804 10.9751 31.2816 10.7739 31.2833C10.4926 31.2855 10.2113 31.2858 9.92992 31.2857C9.8463 31.2868 9.76268 31.2879 9.67653 31.2891C9.11247 31.2859 9.11247 31.2859 8.85467 31.1015C8.74209 30.9253 8.70773 30.8328 8.71097 30.6252C8.71017 30.5737 8.70936 30.5221 8.70853 30.469C8.76959 30.2391 8.87889 30.1489 9.06253 30.0002C9.284 29.9618 9.284 29.9618 9.545 29.9626C9.64403 29.9622 9.74307 29.9618 9.8451 29.9613C9.95465 29.9624 10.0642 29.9636 10.1738 29.9647C10.2893 29.9648 10.4048 29.9648 10.5203 29.9646C10.8337 29.9645 11.1471 29.9664 11.4606 29.9685C11.7882 29.9705 12.1158 29.9707 12.4434 29.971C13.0637 29.972 13.684 29.9746 14.3044 29.9777C15.0106 29.9812 15.7168 29.9829 16.4231 29.9845C17.8758 29.9878 19.3286 29.9933 20.7813 30.0002C20.7969 29.9478 20.8125 29.8954 20.8285 29.8414C20.8596 29.7372 20.8596 29.7372 20.8913 29.631C20.9118 29.5625 20.9322 29.4939 20.9532 29.4233C21.0451 29.1225 21.1472 28.8256 21.2509 28.5287C21.2732 28.4645 21.2955 28.4003 21.3185 28.3342C21.3915 28.1245 21.4647 27.9149 21.5381 27.7053C21.5634 27.633 21.5887 27.5607 21.6148 27.4863C21.7769 27.0236 21.9398 26.5611 22.1031 26.0988C22.1596 25.9388 22.216 25.7789 22.2723 25.6189C22.4389 25.1456 22.6066 24.6728 22.7758 24.2005C22.8291 24.0513 22.8821 23.902 22.9348 23.7526C23.4654 22.2489 23.4654 22.2489 23.9063 21.719C23.948 21.6686 23.9898 21.6182 24.0328 21.5662C24.4038 21.1393 24.8787 20.9213 25.3907 20.7033C25.4594 20.674 25.5281 20.6447 25.5989 20.6145C25.8348 20.5153 26.0715 20.4185 26.3086 20.3225C26.3854 20.2908 26.4621 20.2591 26.5412 20.2264C26.9861 20.0509 27.3337 19.9515 27.8125 20.0002C28.0078 20.1174 28.0078 20.1174 28.125 20.3127C28.1678 20.5299 28.1821 20.723 28.125 20.9377C27.8872 21.2223 27.648 21.3381 27.3056 21.4721C27.2571 21.4915 27.2085 21.511 27.1585 21.531C27.0041 21.5928 26.8493 21.6536 26.6944 21.7141C25.5711 22.1535 25.0424 22.3902 24.5313 23.5158C24.4068 23.8251 24.2963 24.138 24.1883 24.4533C24.1581 24.5399 24.1278 24.6264 24.0967 24.7155C24.0001 24.9925 23.9044 25.2698 23.8086 25.5471C23.7424 25.7373 23.6762 25.9275 23.6099 26.1177C23.4804 26.489 23.3511 26.8605 23.222 27.232C23.0059 27.8533 22.7856 28.4729 22.5635 29.092C22.532 29.1799 22.5005 29.2679 22.4681 29.3584C22.4007 29.5464 22.3332 29.7342 22.2657 29.9221C22.3359 29.9318 22.4061 29.9416 22.4784 29.9516C22.5702 29.965 22.6621 29.9783 22.7567 29.992C22.8934 30.0114 22.8934 30.0114 23.0329 30.0313C23.5669 30.1325 23.9189 30.5032 24.2188 30.9377C24.4428 31.3971 24.4041 31.8796 24.404 32.3787C24.4043 32.5469 24.4072 32.715 24.4101 32.8832C24.4183 33.8757 24.2152 34.6581 23.5157 35.3908C22.5979 36.267 21.6207 36.2962 20.4206 36.2907C20.2664 36.2911 20.1121 36.2916 19.9579 36.2923C19.5412 36.2937 19.1244 36.2932 18.7076 36.2922C18.2703 36.2914 17.833 36.2921 17.3957 36.2926C16.6615 36.2932 15.9273 36.2924 15.1931 36.291C14.3457 36.2893 13.4983 36.2898 12.6509 36.2915C11.9217 36.293 11.1926 36.2931 10.4635 36.2923C10.0287 36.2918 9.59392 36.2918 9.15913 36.2928C8.75025 36.2937 8.34141 36.2931 7.93254 36.2913C7.78298 36.2909 7.63342 36.291 7.48387 36.2917C6.35792 36.2964 5.46233 36.2051 4.60941 35.3908C3.7896 34.5321 3.70358 33.6081 3.7096 32.475C3.70917 32.3401 3.70862 32.2051 3.70794 32.0701C3.70652 31.7058 3.70706 31.3415 3.70806 30.9772C3.70885 30.5946 3.70811 30.2121 3.70762 29.8295C3.70706 29.1872 3.7078 28.545 3.70929 27.9027C3.71099 27.1618 3.71044 26.4209 3.70872 25.68C3.7073 25.0421 3.70711 24.4042 3.70792 23.7663C3.70841 23.3861 3.70848 23.0059 3.70744 22.6257C3.70653 22.2681 3.70717 21.9106 3.70897 21.553C3.70938 21.4224 3.70927 21.2917 3.70858 21.1611C3.70343 20.0932 3.8458 19.2376 4.60941 18.4377C5.38235 17.6998 6.38523 17.5094 7.39322 17.2573C7.50942 17.228 7.62562 17.1987 7.74181 17.1693C7.98375 17.1083 8.22577 17.0477 8.46786 16.9873C8.77653 16.9103 9.0849 16.8321 9.39319 16.7535C9.63247 16.6928 9.87193 16.6328 10.1114 16.573C10.2252 16.5445 10.3389 16.5157 10.4525 16.4866C11.96 16.102 11.96 16.102 12.3719 16.3704ZM19.375 31.2502C19.375 32.4877 19.375 33.7252 19.375 35.0002C20.9863 35.1162 20.9863 35.1162 22.4219 34.5315C23.0235 33.9255 23.1382 33.3439 23.1446 32.5002C23.1462 32.4466 23.1478 32.3931 23.1494 32.3379C23.1523 31.9688 23.1 31.7123 22.8907 31.4065C22.5349 31.2051 22.1749 31.2301 21.7783 31.235C21.7173 31.2351 21.6562 31.2353 21.5933 31.2354C21.3666 31.2363 21.1399 31.2384 20.9131 31.2405C20.4056 31.2437 19.898 31.2469 19.375 31.2502Z" fill="white"/>
<path d="M14.0613 -0.0240707C14.1386 -0.0250461 14.1386 -0.0250461 14.2174 -0.0260412C14.3864 -0.02791 14.5553 -0.0286079 14.7242 -0.0291252C14.8433 -0.0298271 14.9623 -0.0305398 15.0813 -0.0312626C15.3306 -0.0325476 15.5799 -0.0331518 15.8291 -0.0333785C16.1453 -0.0337969 16.4614 -0.0367328 16.7775 -0.0403117C17.0235 -0.0426609 17.2695 -0.0432012 17.5155 -0.043279C17.6318 -0.0436032 17.7482 -0.0445576 17.8645 -0.0462101C19.0321 -0.0614652 20.0099 0.18337 20.9376 0.937366C21.0027 0.986311 21.0677 1.03525 21.1348 1.08568C21.8439 1.68741 22.2938 2.62099 22.5001 3.51549C22.5175 3.77476 22.515 4.03217 22.5099 4.29186C22.5092 4.36019 22.5085 4.42852 22.5078 4.49892C22.5059 4.66591 22.5031 4.83289 22.5001 4.99987C22.5648 4.99823 22.6294 4.99659 22.696 4.99491C22.9888 4.98841 23.2815 4.98435 23.5743 4.98034C23.6761 4.97772 23.7778 4.9751 23.8826 4.9724C23.9803 4.97139 24.0779 4.97039 24.1786 4.96935C24.3136 4.96689 24.3136 4.96689 24.4513 4.96439C24.737 5.00727 24.8257 5.08709 25.0001 5.31237C25.0416 5.46862 25.0416 5.46862 25.0392 5.62487C25.0404 5.70221 25.0404 5.70221 25.0416 5.78112C24.9803 6.01206 24.8732 6.10142 24.6876 6.24987C24.4513 6.28534 24.4513 6.28534 24.1786 6.28038C24.0809 6.27938 23.9832 6.27837 23.8826 6.27733C23.7809 6.27471 23.6791 6.2721 23.5743 6.2694C23.4714 6.26799 23.3685 6.26658 23.2625 6.26513C23.0083 6.26144 22.7542 6.2563 22.5001 6.24987C22.5008 6.30697 22.5015 6.36407 22.5022 6.4229C22.5085 6.96634 22.5133 7.50977 22.5163 8.05323C22.5179 8.3325 22.5201 8.61174 22.5237 8.89099C22.5271 9.1615 22.529 9.43198 22.5298 9.7025C22.5306 9.85372 22.533 10.0049 22.5355 10.1561C22.5358 11.1005 22.337 12.0031 21.8898 12.8417C21.8626 12.8939 21.8355 12.9461 21.8075 13C21.5845 13.4179 21.3361 13.79 21.0158 14.1405C20.9532 14.2102 20.8907 14.2799 20.8262 14.3517C19.7791 15.461 18.313 16.2204 16.7711 16.2837C16.6023 16.2856 16.4335 16.2857 16.2648 16.284C16.1757 16.2833 16.0866 16.2826 15.9949 16.2819C14.5356 16.252 13.2137 15.7217 12.1095 14.7655C12.0467 14.718 11.9838 14.6704 11.9191 14.6214C11.3498 14.1424 10.9334 13.4792 10.5958 12.8221C10.5717 12.7763 10.5475 12.7305 10.5226 12.6834C9.98635 11.5854 9.95315 10.4894 9.95862 9.29338C9.95841 9.12915 9.95811 8.96492 9.95772 8.80069C9.95726 8.45853 9.95792 8.1164 9.95938 7.77424C9.96117 7.33794 9.96014 6.9017 9.95827 6.46541C9.95713 6.12699 9.9575 5.78859 9.95831 5.45017C9.95852 5.28937 9.95827 5.12857 9.95753 4.96776C9.95452 4.12263 9.95363 3.36239 10.3126 2.57799C10.3511 2.49209 10.3896 2.40618 10.4292 2.31768C11.0649 1.17734 11.9718 0.478102 13.2214 0.0745667C13.5136 0.000405077 13.7606 -0.0213657 14.0613 -0.0240707ZM12.1129 2.24657C11.3639 3.06856 11.3202 3.87849 11.2501 4.99987C14.5501 4.99987 17.8501 4.99987 21.2501 4.99987C21.1687 3.69763 21.0751 2.91525 20.1512 2.03325C19.3043 1.31969 18.3409 1.23796 17.2767 1.23674C17.1565 1.23635 17.1565 1.23635 17.0339 1.23596C16.8651 1.23556 16.6962 1.23538 16.5273 1.23539C16.2715 1.23522 16.0158 1.2338 15.76 1.23232C14.3674 1.22846 13.1846 1.24121 12.1129 2.24657ZM11.2501 6.24987C11.2501 6.99752 11.2501 7.74518 11.2501 8.51549C11.819 8.45535 11.819 8.45535 12.3696 8.34961C12.4432 8.33241 12.5167 8.31521 12.5925 8.29749C12.6697 8.2791 12.7469 8.2607 12.8264 8.24175C12.9942 8.2028 13.1621 8.16389 13.3301 8.12502C13.5914 8.06407 13.8526 8.0028 14.1137 7.94086C14.368 7.88073 14.6225 7.8219 14.8771 7.76323C14.9538 7.74468 15.0305 7.72613 15.1095 7.70701C16.0227 7.49866 16.8171 7.56839 17.7223 7.78307C17.8139 7.80388 17.9054 7.82469 17.9998 7.84613C18.2892 7.91205 18.5783 7.97932 18.8673 8.04674C19.1587 8.11392 19.4501 8.18081 19.7415 8.24736C19.9221 8.28867 20.1026 8.33038 20.2831 8.37255C20.3645 8.39132 20.4459 8.41009 20.5298 8.42943C20.6012 8.44609 20.6726 8.46274 20.7462 8.4799C20.9564 8.52501 20.9564 8.52501 21.2501 8.51549C21.2501 7.76784 21.2501 7.02018 21.2501 6.24987C17.9501 6.24987 14.6501 6.24987 11.2501 6.24987ZM14.9595 9.04467C14.8574 9.0671 14.7552 9.08949 14.653 9.11185C14.4398 9.15864 14.2267 9.20584 14.0137 9.25333C13.7406 9.31419 13.4673 9.37401 13.1938 9.43352C12.9832 9.47948 12.7728 9.52599 12.5623 9.57267C12.4125 9.60578 12.2627 9.63843 12.1128 9.67107C12.0223 9.69139 11.9318 9.71171 11.8386 9.73265C11.7587 9.75034 11.6788 9.76804 11.5965 9.78627C11.3945 9.83085 11.3945 9.83085 11.2501 9.99987C11.2638 11.3839 11.8108 12.5661 12.7696 13.557C13.7837 14.5122 14.9466 14.9588 16.3283 14.9999C17.7916 14.9559 18.9923 14.3456 19.9904 13.286C20.8607 12.2661 21.134 11.2255 21.2501 9.92174C20.3458 9.66923 19.4342 9.45588 18.5178 9.25188C18.2795 9.19866 18.0413 9.14456 17.8032 9.09044C17.6501 9.05621 17.497 9.02203 17.3439 8.9879C17.2383 8.96374 17.2383 8.96374 17.1305 8.93909C16.3549 8.76858 15.7284 8.87336 14.9595 9.04467Z" fill="white"/>
<path d="M35.7033 27.734C35.885 27.8813 35.9967 27.9746 36.0573 28.2028C36.053 28.4767 36.0441 28.6291 35.8888 28.8619C35.656 29.0151 35.5139 29.0514 35.2345 29.0621C35.0974 29.0248 35.0974 29.0248 34.9574 28.9868C33.7742 28.6792 32.4766 28.8685 31.4006 29.4195C31.1829 29.5497 30.9828 29.6892 30.7814 29.8434C30.715 29.8938 30.6485 29.9443 30.58 29.9963C29.7655 30.6696 29.2404 31.5559 28.9845 32.5778C28.9696 32.6356 28.9547 32.6934 28.9394 32.7529C28.7163 34.211 29.0459 35.3885 29.7658 36.6403C30.1616 36.3091 30.5315 35.9626 30.8937 35.5953C30.9434 35.5453 30.9931 35.4952 31.0443 35.4437C31.1652 35.3219 31.2859 35.1999 31.4064 35.0778C31.3762 35.0239 31.346 34.97 31.3149 34.9145C30.8834 34.136 30.5342 33.4929 30.5275 32.5924C30.5259 32.5388 30.5243 32.4852 30.5226 32.4299C30.518 31.8132 30.7617 31.3603 31.1782 30.9164C31.6631 30.4787 32.2743 30.4971 32.8935 30.5197C33.6944 30.5891 34.3287 30.9887 35.0002 31.4059C35.5097 30.9876 35.9685 30.5221 36.4308 30.0533C36.5849 29.8972 36.7393 29.7413 36.8938 29.5855C36.9615 29.5169 37.0292 29.4483 37.099 29.3776C37.3525 29.1356 37.5374 29.1073 37.8896 29.1143C38.165 29.1597 38.2678 29.3175 38.4377 29.5309C38.4987 29.5995 38.4987 29.5995 38.561 29.6694C39.7401 31.0557 40.0638 32.7585 39.922 34.5309C39.7761 35.7919 39.2154 36.9575 38.3595 37.8903C38.3077 37.9493 38.2558 38.0083 38.2024 38.0691C37.1607 39.1897 35.6346 39.8831 34.106 39.9478C32.401 39.9751 30.826 39.6172 29.5314 38.4371C29.4675 38.3803 29.4035 38.3235 29.3376 38.265C28.2542 37.2488 27.5277 35.7655 27.4663 34.2706C27.4644 34.1018 27.4644 33.933 27.466 33.7643C27.4667 33.6752 27.4674 33.5862 27.4681 33.4944C27.4979 32.0393 28.0257 30.7079 28.9845 29.609C29.075 29.4956 29.075 29.4956 29.1673 29.3798C29.7931 28.6302 30.6651 28.1567 31.5627 27.8121C31.6505 27.7782 31.7383 27.7443 31.8288 27.7093C32.944 27.3488 34.6082 27.2473 35.7033 27.734ZM37.4969 30.9315C37.4286 31.0002 37.3603 31.069 37.2899 31.1398C37.2536 31.1762 37.2173 31.2126 37.1799 31.2501C37.0635 31.367 36.9474 31.4841 36.8312 31.6012C36.7526 31.6803 36.6739 31.7593 36.5952 31.8383C36.4018 32.0325 36.2088 32.2269 36.0158 32.4215C36.0475 32.4791 36.0793 32.5366 36.112 32.5959C36.1539 32.6722 36.1957 32.7485 36.2389 32.8271C36.301 32.94 36.301 32.94 36.3644 33.0552C36.6994 33.6843 36.8894 34.1899 36.8947 34.9069C36.8963 34.9605 36.8979 35.0141 36.8996 35.0694C36.9034 35.5772 36.7595 35.9204 36.4699 36.3424C36.0277 36.7846 35.6519 36.9055 35.0246 36.9137C34.0112 36.8995 33.3132 36.5351 32.422 36.0153C31.8806 36.5567 31.3392 37.0981 30.7814 37.6559C31.5805 38.455 32.6308 38.6929 33.7258 38.7106C35.1592 38.7056 36.2679 38.2053 37.3165 37.2216C38.3195 36.1802 38.7077 34.9777 38.7059 33.5605C38.6851 32.5205 38.3864 31.608 37.7345 30.7809C37.6293 30.7719 37.6293 30.7719 37.4969 30.9315ZM31.9826 31.9821C31.8115 32.3088 31.8218 32.6079 31.8752 32.9684C32.0019 33.3604 32.1991 33.7165 32.422 34.0621C32.8178 33.731 33.1877 33.3845 33.55 33.0172C33.5997 32.9672 33.6494 32.9171 33.7006 32.8655C33.8215 32.7437 33.9422 32.6218 34.0627 32.4996C33.6998 32.1052 33.2854 31.9198 32.7553 31.8441C32.4558 31.8317 32.2501 31.8419 31.9826 31.9821ZM34.8479 33.5806C34.7503 33.6788 34.7503 33.6788 34.6507 33.7789C34.5805 33.8494 34.5103 33.9199 34.4379 33.9926C34.3633 34.0678 34.2887 34.1431 34.214 34.2184C34.1391 34.2937 34.0642 34.369 33.9893 34.4442C33.8052 34.6292 33.6214 34.8143 33.4377 34.9996C33.6102 35.1785 33.7599 35.2919 33.9845 35.4C34.0377 35.426 34.0909 35.452 34.1457 35.4788C34.534 35.6526 34.8932 35.6706 35.3127 35.6246C35.534 35.5335 35.534 35.5335 35.6252 35.3121C35.7446 34.6046 35.4691 34.014 35.0783 33.4371C34.9748 33.4282 34.9748 33.4282 34.8479 33.5806Z" fill="white"/>
<path d="M2.75548 7.47411C2.83321 7.47359 2.91095 7.47307 2.99103 7.47253C3.15526 7.47174 3.3195 7.47137 3.48373 7.4714C3.73373 7.47106 3.98362 7.46822 4.2336 7.46526C4.39356 7.4648 4.55353 7.46449 4.71349 7.46434C4.82473 7.46266 4.82473 7.46266 4.93821 7.46094C5.50293 7.46478 5.9187 7.59094 6.3471 7.96635C6.38919 8.01721 6.43129 8.06807 6.47466 8.12047C6.51796 8.17112 6.56127 8.22178 6.60589 8.27397C6.93997 8.75885 6.90414 9.25538 6.904 9.82497C6.90435 9.98446 6.90718 10.1438 6.91015 10.3032C6.91218 10.9896 6.87309 11.4429 6.40905 11.9724C6.35819 12.0145 6.30733 12.0566 6.25493 12.1C6.20428 12.1433 6.15362 12.1866 6.10143 12.2312C5.72224 12.4925 5.38744 12.5212 4.93657 12.5101C4.65862 12.5053 4.65862 12.5053 4.37505 12.5004C4.37505 12.9129 4.37505 13.3254 4.37505 13.7504C4.49751 13.7467 4.61997 13.7431 4.74614 13.7394C4.9089 13.7364 5.07166 13.7336 5.23443 13.7308C5.31489 13.7282 5.39536 13.7256 5.47826 13.7229C6.09078 13.7151 6.50723 13.809 6.9721 14.2164C7.01419 14.2672 7.05629 14.3181 7.09966 14.3705C7.14296 14.4211 7.18627 14.4718 7.23089 14.524C7.5361 14.9669 7.5629 15.4141 7.50005 15.9379C7.38286 16.1478 7.38286 16.1478 7.18755 16.2504C6.88125 16.3087 6.64956 16.3044 6.38189 16.138C6.22439 15.8989 6.15997 15.6701 6.09411 15.3928C6.02751 15.2184 6.02751 15.2184 5.83936 15.148C5.62607 15.0788 5.46573 15.0587 5.24267 15.0583C5.13198 15.0575 5.13198 15.0575 5.01907 15.0568C4.94028 15.0571 4.8615 15.0574 4.78032 15.0577C4.65769 15.0575 4.65769 15.0575 4.53258 15.0573C4.36001 15.0572 4.18744 15.0575 4.01487 15.0581C3.751 15.0589 3.48718 15.0581 3.22332 15.0571C3.05547 15.0572 2.88762 15.0574 2.71978 15.0577C2.64099 15.0574 2.56221 15.0571 2.48103 15.0568C2.40725 15.0573 2.33346 15.0578 2.25744 15.0583C2.16058 15.0584 2.16058 15.0584 2.06176 15.0586C1.83779 15.0824 1.68169 15.1245 1.48443 15.2347C1.27729 15.5972 1.30636 15.9766 1.30833 16.3815C1.30809 16.4581 1.30785 16.5348 1.3076 16.6137C1.30697 16.8707 1.30747 17.1277 1.30796 17.3847C1.30775 17.5688 1.30747 17.753 1.30713 17.9371C1.30641 18.4375 1.30669 18.9379 1.30719 19.4383C1.30746 19.7507 1.30741 20.0632 1.30727 20.3756C1.30724 20.4275 1.30722 20.4794 1.30719 20.5328C1.30714 20.6382 1.30709 20.7436 1.30704 20.8489C1.3066 21.837 1.30711 22.8251 1.30795 23.8132C1.30865 24.6609 1.30853 25.5087 1.30781 26.3565C1.30697 27.341 1.30664 28.3256 1.30712 29.3101C1.30717 29.4151 1.30722 29.5201 1.30727 29.6251C1.30729 29.6767 1.30732 29.7284 1.30734 29.7816C1.30747 30.1456 1.30724 30.5096 1.30688 30.8736C1.30643 31.3635 1.30674 31.8534 1.30764 32.3433C1.30785 32.5233 1.30779 32.7033 1.30745 32.8833C1.30702 33.1286 1.30755 33.3739 1.30833 33.6192C1.30799 33.6907 1.30764 33.7623 1.30728 33.836C1.30938 34.1763 1.31166 34.4619 1.48443 34.766C1.77688 34.9366 2.04719 34.9418 2.38073 34.9436C2.52476 34.946 2.52476 34.946 2.67171 34.9485C2.87333 34.9505 3.07495 34.9519 3.27657 34.9527C3.42046 34.9555 3.42046 34.9555 3.56725 34.9582C3.65477 34.9589 3.74229 34.9595 3.83247 34.9602C4.11119 35.0088 4.20288 35.0929 4.37505 35.3129C4.41655 35.4691 4.41655 35.4691 4.41411 35.6254C4.41492 35.6769 4.41572 35.7285 4.41655 35.7816C4.35426 36.0161 4.25376 36.1016 4.06255 36.2504C3.84952 36.2815 3.66864 36.2942 3.45586 36.2919C3.39709 36.2922 3.33833 36.2925 3.27778 36.2928C3.15354 36.293 3.02929 36.2924 2.90506 36.2911C2.71657 36.2894 2.52832 36.2911 2.33983 36.2931C1.62602 36.2945 1.08865 36.2756 0.528005 35.7843C0.485909 35.7335 0.443813 35.6826 0.400441 35.6302C0.357137 35.5796 0.313833 35.5289 0.269216 35.4767C-0.0313864 35.0405 -0.0224824 34.639 -0.0208418 34.1261C-0.0211958 34.0452 -0.0215497 33.9643 -0.0219144 33.8809C-0.0229047 33.6093 -0.0227756 33.3378 -0.0226467 33.0662C-0.0231141 32.8717 -0.0236458 32.6771 -0.0242369 32.4826C-0.0254752 32.0087 -0.0259641 31.5349 -0.0260513 31.061C-0.0261256 30.6758 -0.0264469 30.2905 -0.0269421 29.9053C-0.0283179 28.8126 -0.0290387 27.72 -0.0289215 26.6274C-0.0289153 26.5685 -0.0289092 26.5096 -0.0289028 26.4489C-0.0288964 26.39 -0.02889 26.331 -0.0288834 26.2703C-0.0288199 25.3149 -0.0303149 24.3595 -0.0325181 23.4041C-0.0347633 22.4227 -0.0358416 21.4414 -0.0357066 20.46C-0.0356548 19.9092 -0.0360827 19.3584 -0.0377657 18.8076C-0.0393385 18.2895 -0.0392913 17.7715 -0.0381537 17.2534C-0.0379902 17.0633 -0.0383601 16.8732 -0.0393038 16.6831C-0.0405091 16.4235 -0.039785 16.164 -0.0385802 15.9044C-0.0393839 15.8292 -0.0401876 15.7541 -0.0410156 15.6767C-0.0352838 15.1173 0.0942245 14.7026 0.466054 14.2783C0.516912 14.2362 0.567769 14.1941 0.620168 14.1507C0.670824 14.1074 0.72148 14.0641 0.773671 14.0195C1.09422 13.7987 1.37278 13.7308 1.75939 13.7351C1.8392 13.7356 1.91901 13.7361 2.00124 13.7366C2.12489 13.7386 2.12489 13.7386 2.25103 13.7406C2.33497 13.7413 2.41891 13.742 2.50539 13.7427C2.71195 13.7446 2.9185 13.7474 3.12505 13.7504C3.12505 13.3379 3.12505 12.9254 3.12505 12.5004C2.94458 12.5068 2.76411 12.5132 2.57818 12.5199C1.98732 12.5257 1.60651 12.4534 1.17498 12.0417C0.628425 11.4516 0.595909 10.9649 0.596097 10.1757C0.595757 10.0162 0.592919 9.85692 0.589956 9.69746C0.587922 9.01108 0.627012 8.55785 1.09105 8.0283C1.14191 7.98621 1.19277 7.94411 1.24517 7.90074C1.29582 7.85744 1.34648 7.81413 1.39867 7.76952C1.83477 7.46904 2.24239 7.4753 2.75548 7.47411ZM2.0313 8.98473C1.83752 9.29802 1.84897 9.63662 1.85064 9.99547C1.84938 10.0494 1.84812 10.1033 1.84682 10.1589C1.84647 10.5281 1.9002 10.7882 2.10943 11.0941C2.56225 11.3345 3.07335 11.2765 3.57189 11.275C3.74438 11.2748 3.91677 11.2766 4.08925 11.2786C4.19988 11.2788 4.31051 11.2788 4.42113 11.2787C4.52093 11.279 4.62072 11.2792 4.72354 11.2794C5.02396 11.2478 5.21272 11.1737 5.4688 11.016C5.66258 10.7027 5.65113 10.3641 5.64946 10.0052C5.65072 9.9513 5.65198 9.89738 5.65328 9.84181C5.65363 9.47258 5.5999 9.21246 5.39068 8.9066C4.93785 8.66625 4.42675 8.72419 3.92822 8.72569C3.75572 8.72594 3.58333 8.7241 3.41085 8.72212C3.30022 8.72194 3.1896 8.72189 3.07897 8.72197C2.97917 8.72174 2.87938 8.7215 2.77656 8.72126C2.47614 8.75287 2.28738 8.82704 2.0313 8.98473Z" fill="white"/>
<path d="M35.3113 16.0406C35.7326 16.3701 36.0357 16.7814 36.1572 17.3047C36.1621 17.3691 36.1669 17.4336 36.1719 17.5C36.2702 17.5145 36.3685 17.529 36.4697 17.5439C37.2161 17.712 37.8521 18.2034 38.2812 18.8281C38.7827 19.694 38.892 20.603 38.6993 21.5869C38.4373 22.3754 37.8945 23.0077 37.1875 23.4375C36.4895 23.75 36.4895 23.75 36.1719 23.75C36.1687 23.8128 36.1654 23.8757 36.1621 23.9404C36.0189 24.5235 35.6523 24.963 35.1593 25.2954C34.4717 25.7064 33.6661 25.7492 32.8897 25.571C32.1273 25.2919 31.6742 24.7865 31.3281 24.0625C31.284 23.9268 31.2432 23.7901 31.2061 23.6523C31.1024 23.275 30.9983 23.0755 30.7031 22.8125C30.4743 22.7105 30.2415 22.6431 30 22.5781C29.5157 22.4097 29.5157 22.4097 29.375 22.1875C29.3145 21.6428 29.3145 21.6428 29.5059 21.3888C29.8412 21.1324 30.2227 21.2023 30.625 21.25C31.2909 21.4046 31.8553 21.7967 32.229 22.3715C32.407 22.7129 32.5335 23.0634 32.6562 23.4277C32.7771 23.7692 32.872 23.9635 33.2031 24.1406C33.6167 24.3235 33.8747 24.2932 34.288 24.1574C34.5968 23.9799 34.7392 23.7554 34.8453 23.4198C34.8657 23.3322 34.8862 23.2446 34.9072 23.1543C35.0456 22.6786 35.0456 22.6786 35.3271 22.4853C35.4847 22.4518 35.6423 22.4184 35.8002 22.3865C36.4315 22.2547 36.8057 22.0041 37.1875 21.4844C37.3957 21.0505 37.3958 20.6289 37.3438 20.1562C37.28 19.9751 37.2058 19.8222 37.1072 19.6579C37.0312 19.5312 37.0312 19.5312 36.9531 19.2969C36.8165 19.2122 36.8165 19.2122 36.6406 19.1406C36.5746 19.1019 36.5085 19.0633 36.4404 19.0234C36.1316 18.8886 35.8474 18.847 35.5145 18.8064C35.2595 18.7352 35.1613 18.6461 35 18.4375C34.9292 18.2327 34.9292 18.2327 34.8828 18.0127C34.798 17.6688 34.718 17.4363 34.4531 17.1875C34.1024 16.9764 33.758 16.9802 33.3594 17.0312C32.9999 17.2077 32.8419 17.3871 32.6562 17.7344C32.6055 17.8846 32.5584 18.0361 32.5146 18.1885C32.2632 18.9618 31.8121 19.454 31.1041 19.8465C30.6652 20.0423 30.1586 20.0855 29.6875 20C29.4989 19.856 29.3949 19.7625 29.3335 19.5312C29.3343 19.4797 29.3351 19.4281 29.3359 19.375C29.3351 19.3234 29.3343 19.2719 29.3335 19.2187C29.3943 18.9897 29.5039 18.8965 29.6875 18.75C29.8895 18.6819 29.8895 18.6819 30.1074 18.6377C30.5167 18.5351 30.7339 18.442 31.0156 18.125C31.1174 17.9233 31.1829 17.7153 31.25 17.5C31.5552 16.6109 31.9586 16.123 32.8125 15.7031C33.6121 15.4212 34.6225 15.5824 35.3113 16.0406Z" fill="white"/>
</g>
<defs>
<clipPath id="clip0_234_559">
<rect width="40" height="40" fill="white"/>
</clipPath>
</defs>
</svg>
