<svg width="30" height="30" viewBox="0 0 30 30" fill="none" xmlns="http://www.w3.org/2000/svg">
<g clip-path="url(#clip0_83_3088)">
<path d="M6.09375 9.375H5.625V8.4375H6.5625C6.93546 8.4375 7.29315 8.28934 7.55687 8.02562C7.82059 7.7619 7.96875 7.40421 7.96875 7.03125V5.15625C7.96875 4.78329 7.82059 4.4256 7.55687 4.16188C7.29315 3.89816 6.93546 3.75 6.5625 3.75H3.75C3.37704 3.75 3.01935 3.89816 2.75563 4.16188C2.49191 4.4256 2.34375 4.78329 2.34375 5.15625V7.03125C2.34375 7.40421 2.49191 7.7619 2.75563 8.02562C3.01935 8.28934 3.37704 8.4375 3.75 8.4375H4.6875V9.375H4.21875C3.34881 9.37599 2.51479 9.72201 1.89965 10.3372C1.28451 10.9523 0.938493 11.7863 0.9375 12.6562V28.5938C0.9375 28.9667 1.08566 29.3244 1.34938 29.5881C1.6131 29.8518 1.97079 30 2.34375 30H7.96875C8.34171 30 8.6994 29.8518 8.96312 29.5881C9.22684 29.3244 9.375 28.9667 9.375 28.5938V12.6562C9.37401 11.7863 9.02799 10.9523 8.41285 10.3372C7.79771 9.72201 6.96369 9.37599 6.09375 9.375ZM3.28125 7.03125V5.15625C3.28125 5.03193 3.33064 4.9127 3.41854 4.82479C3.50645 4.73689 3.62568 4.6875 3.75 4.6875H6.5625C6.68682 4.6875 6.80605 4.73689 6.89396 4.82479C6.98186 4.9127 7.03125 5.03193 7.03125 5.15625V7.03125C7.03125 7.15557 6.98186 7.2748 6.89396 7.36271C6.80605 7.45061 6.68682 7.5 6.5625 7.5H3.75C3.62568 7.5 3.50645 7.45061 3.41854 7.36271C3.33064 7.2748 3.28125 7.15557 3.28125 7.03125ZM7.96875 29.0625H2.34375C2.21943 29.0625 2.1002 29.0131 2.01229 28.9252C1.92439 28.8373 1.875 28.7181 1.875 28.5938V25.7812H5.15625C5.28057 25.7812 5.3998 25.7319 5.48771 25.644C5.57561 25.556 5.625 25.4368 5.625 25.3125C5.625 25.1882 5.57561 25.069 5.48771 24.981C5.3998 24.8931 5.28057 24.8438 5.15625 24.8438H1.875V14.5312H8.4375V24.8438H7.03125C6.90693 24.8438 6.7877 24.8931 6.69979 24.981C6.61189 25.069 6.5625 25.1882 6.5625 25.3125C6.5625 25.4368 6.61189 25.556 6.69979 25.644C6.7877 25.7319 6.90693 25.7812 7.03125 25.7812H8.4375V28.5938C8.4375 28.7181 8.38811 28.8373 8.30021 28.9252C8.2123 29.0131 8.09307 29.0625 7.96875 29.0625ZM8.4375 13.5938H1.875V12.6562C1.87574 12.0349 2.12291 11.4392 2.56229 10.9998C3.00167 10.5604 3.59738 10.3132 4.21875 10.3125H6.09375C6.71512 10.3132 7.31083 10.5604 7.75021 10.9998C8.18959 11.4392 8.43676 12.0349 8.4375 12.6562V13.5938Z" fill="white"/>
<path d="M15 11.25C15 11.1257 14.9506 11.0064 14.8627 10.9185C14.7748 10.8306 14.6556 10.7812 14.5312 10.7812H14.0625V5.73561C14.0622 5.64852 14.0864 5.56308 14.1322 5.48901C14.178 5.41494 14.2437 5.35519 14.3217 5.31655L16.6158 4.17186C16.727 4.11629 16.8117 4.0188 16.8511 3.90082C16.8904 3.78285 16.8814 3.65407 16.8258 3.5428C16.7702 3.43153 16.6727 3.3469 16.5547 3.30752C16.4368 3.26814 16.308 3.27723 16.1967 3.3328L13.9022 4.47796C13.6681 4.59407 13.4712 4.77343 13.3339 4.99571C13.1965 5.218 13.1241 5.47431 13.125 5.73561V10.7812H12.6562C12.5319 10.7812 12.4127 10.8306 12.3248 10.9185C12.2369 11.0064 12.1875 11.1257 12.1875 11.25V14.0625C12.1875 14.1868 12.2369 14.306 12.3248 14.3939C12.4127 14.4819 12.5319 14.5312 12.6562 14.5312H13.125V26.25C13.125 26.6229 12.9768 26.9806 12.7131 27.2444C12.4494 27.5081 12.0917 27.6562 11.7188 27.6562H10.7812C10.6569 27.6562 10.5377 27.7056 10.4498 27.7935C10.3619 27.8814 10.3125 28.0007 10.3125 28.125C10.3125 28.2493 10.3619 28.3685 10.4498 28.4564C10.5377 28.5444 10.6569 28.5937 10.7812 28.5937H11.7188C12.3401 28.593 12.9358 28.3458 13.3752 27.9064C13.8146 27.4671 14.0618 26.8714 14.0625 26.25V14.5312H14.5312C14.6556 14.5312 14.7748 14.4819 14.8627 14.3939C14.9506 14.306 15 14.1868 15 14.0625V11.25ZM14.0625 13.5937H13.125V11.7187H14.0625V13.5937Z" fill="white"/>
<path d="M18.2812 3.28127H19.7105C20.1624 3.27624 20.5981 3.11212 20.941 2.81773C21.2839 2.52334 21.5121 2.11752 21.5855 1.67158C21.6362 1.44679 21.7679 1.24854 21.9554 1.11469C22.143 0.980835 22.3733 0.920753 22.6024 0.945914C22.8314 0.971075 23.0432 1.07972 23.1972 1.25109C23.3513 1.42247 23.4368 1.64458 23.4375 1.87502C23.4375 1.99934 23.4869 2.11856 23.5748 2.20647C23.6627 2.29438 23.7819 2.34377 23.9062 2.34377C24.2792 2.34377 24.6369 2.49192 24.9006 2.75565C25.1643 3.01937 25.3125 3.37705 25.3125 3.75002C25.3125 4.12298 25.1643 4.48066 24.9006 4.74438C24.6369 5.00811 24.2792 5.15627 23.9062 5.15627C23.7819 5.15627 23.6627 5.20565 23.5748 5.29356C23.4869 5.38147 23.4375 5.5007 23.4375 5.62502C23.4376 5.76249 23.4075 5.89831 23.3493 6.02284C23.291 6.14738 23.2062 6.25758 23.1006 6.34565C22.995 6.43372 22.8714 6.4975 22.7384 6.53247C22.6055 6.56743 22.4665 6.57273 22.3312 6.54798C22.1477 6.51318 21.9786 6.42487 21.8451 6.29417C21.7117 6.16347 21.6199 5.99621 21.5813 5.81345C21.5059 5.37049 21.2772 4.96809 20.9353 4.6766C20.5933 4.38511 20.1598 4.22306 19.7105 4.21877H19.6875C19.6265 4.219 19.5662 4.23137 19.5101 4.25515C19.454 4.27893 19.4031 4.31365 19.3605 4.35728C19.3179 4.40091 19.2845 4.45258 19.2621 4.50927C19.2397 4.56597 19.2288 4.62656 19.23 4.68752C19.2326 4.81306 19.2844 4.93256 19.3743 5.02024C19.4642 5.10793 19.5849 5.15678 19.7105 5.15627C19.9466 5.16447 20.1722 5.256 20.3474 5.41464C20.5225 5.57328 20.6358 5.78879 20.6672 6.02298C20.7459 6.38659 20.931 6.71856 21.199 6.97666C21.4669 7.23476 21.8056 7.40731 22.1719 7.47236C22.2786 7.49046 22.3866 7.49956 22.4948 7.49955C22.9177 7.50034 23.3283 7.35819 23.6602 7.0962C23.9921 6.8342 24.2256 6.46772 24.323 6.05627C24.8634 5.95842 25.3522 5.67392 25.7043 5.25242C26.0563 4.83092 26.2491 4.29919 26.2491 3.75002C26.2491 3.20084 26.0563 2.66911 25.7043 2.24761C25.3522 1.82611 24.8634 1.54161 24.323 1.44377C24.2251 1.02687 23.9875 0.656026 23.6497 0.392902C23.3118 0.129779 22.8941 -0.00977026 22.4659 -0.00254016C22.0378 0.00468994 21.625 0.158264 21.2962 0.432644C20.9674 0.707024 20.7425 1.08568 20.6587 1.50564C20.6219 1.73754 20.5042 1.94891 20.3264 2.10231C20.1486 2.25572 19.9223 2.34125 19.6875 2.34377H18.2812C18.1569 2.34377 18.0377 2.39315 17.9498 2.48106C17.8619 2.56897 17.8125 2.6882 17.8125 2.81252C17.8125 2.93684 17.8619 3.05606 17.9498 3.14397C18.0377 3.23188 18.1569 3.28127 18.2812 3.28127Z" fill="white"/>
<path d="M25.3125 12.1875V10.7812C25.3125 10.6569 25.2631 10.5377 25.1752 10.4498C25.0873 10.3619 24.9681 10.3125 24.8438 10.3125H22.5C21.7543 10.3132 21.0394 10.6098 20.5121 11.1371C19.9848 11.6644 19.6882 12.3793 19.6875 13.125V15.7219C19.1734 15.2574 18.5053 15.0002 17.8125 15H15.4688C15.3444 15 15.2252 15.0494 15.1373 15.1373C15.0494 15.2252 15 15.3444 15 15.4688V16.875C15.0007 17.6207 15.2973 18.3356 15.8246 18.8629C16.3519 19.3902 17.0668 19.6868 17.8125 19.6875H19.6875V29.5312C19.6875 29.6556 19.7369 29.7748 19.8248 29.8627C19.9127 29.9506 20.0319 30 20.1562 30C20.2806 30 20.3998 29.9506 20.4877 29.8627C20.5756 29.7748 20.625 29.6556 20.625 29.5312V15H22.5C23.2457 14.9993 23.9606 14.7027 24.4879 14.1754C25.0152 13.6481 25.3118 12.9332 25.3125 12.1875ZM17.8125 18.75C17.3152 18.75 16.8383 18.5525 16.4867 18.2008C16.135 17.8492 15.9375 17.3723 15.9375 16.875V15.9375H17.8125C18.3098 15.9375 18.7867 16.135 19.1383 16.4867C19.49 16.8383 19.6875 17.3152 19.6875 17.8125V18.75H17.8125ZM20.625 13.125C20.625 12.6277 20.8225 12.1508 21.1742 11.7992C21.5258 11.4475 22.0027 11.25 22.5 11.25H24.375V12.1875C24.375 12.6848 24.1775 13.1617 23.8258 13.5133C23.4742 13.865 22.9973 14.0625 22.5 14.0625H20.625V13.125Z" fill="white"/>
<path d="M28.5938 16.875H26.25C25.5043 16.8757 24.7894 17.1723 24.2621 17.6996C23.7348 18.2269 23.4382 18.9418 23.4375 19.6875V29.5312C23.4375 29.6556 23.4869 29.7748 23.5748 29.8627C23.6627 29.9506 23.7819 30 23.9062 30C24.0306 30 24.1498 29.9506 24.2377 29.8627C24.3256 29.7748 24.375 29.6556 24.375 29.5312V21.5625H26.25C26.9957 21.5618 27.7106 21.2652 28.2379 20.7379C28.7652 20.2106 29.0618 19.4957 29.0625 18.75V17.3438C29.0625 17.2194 29.0131 17.1002 28.9252 17.0123C28.8373 16.9244 28.7181 16.875 28.5938 16.875ZM28.125 18.75C28.125 19.2473 27.9275 19.7242 27.5758 20.0758C27.2242 20.4275 26.7473 20.625 26.25 20.625H24.375V19.6875C24.375 19.1902 24.5725 18.7133 24.9242 18.3617C25.2758 18.01 25.7527 17.8125 26.25 17.8125H28.125V18.75Z" fill="white"/>
</g>
<defs>
<clipPath id="clip0_83_3088">
<rect width="30" height="30" fill="white"/>
</clipPath>
</defs>
</svg>
