<svg width="71" height="71" viewBox="0 0 71 71" fill="none" xmlns="http://www.w3.org/2000/svg">
<path d="M49.9904 9.32251C50.0613 9.37838 50.1322 9.43424 50.2053 9.4918C53.6921 12.2539 57.6369 16.5718 58.6037 21.0803C58.3197 21.199 58.0346 21.3153 57.7492 21.4307C57.5906 21.4957 57.432 21.5607 57.2686 21.6277C56.8452 21.7581 56.6797 21.7926 56.2795 21.6272C56.2795 21.4918 56.2795 21.3565 56.2795 21.217C56.0257 21.2593 56.0257 21.2593 55.7668 21.3025C55.2825 21.3832 55.0686 21.3036 54.6389 21.0803C54.3622 21.0538 54.3622 21.0538 54.0749 21.0547C53.3829 20.9787 52.8614 20.7545 52.3056 20.3348C51.8459 19.7293 51.8757 19.0678 51.9392 18.3406C52.0334 17.7075 52.2853 17.2312 52.6687 16.7208C52.8945 16.3825 52.9759 16.1545 52.9983 15.7483C52.8611 15.4563 52.8611 15.4563 52.6223 15.1929C52.534 15.0873 52.4457 14.9817 52.3547 14.873C52.2513 14.7558 52.1478 14.6386 52.0412 14.5178C51.8628 14.3145 51.8628 14.3145 51.6807 14.1071C50.9819 13.3225 50.2678 12.5745 49.4436 11.9202C49.3709 11.8617 49.2982 11.8033 49.2233 11.7431C46.9323 9.91383 44.2353 8.29435 41.3772 7.54516C41.3787 7.66201 41.3803 7.77886 41.382 7.89924C41.3832 8.05028 41.3844 8.20132 41.3857 8.35693C41.3873 8.50762 41.3889 8.6583 41.3905 8.81355C41.3772 9.18579 41.3772 9.18579 41.2404 9.32251C40.991 9.35238 40.7416 9.38207 40.492 9.41079C39.4811 9.5404 38.7106 9.75784 37.8994 10.3906C37.826 10.4473 37.7527 10.5039 37.6771 10.5623C37.1996 10.966 37.0113 11.3187 36.8654 11.9202C36.8369 12.0354 36.8083 12.1507 36.7789 12.2694C36.7456 12.4265 36.7456 12.4265 36.7116 12.5867C36.6773 12.7469 36.6773 12.7469 36.6422 12.9103C36.6256 12.9896 36.6091 13.0689 36.592 13.1506C36.6907 13.1676 36.7894 13.1845 36.8911 13.2019C37.2756 13.2874 37.2756 13.2874 37.6003 13.4412C38.3686 13.6973 39.1072 13.3764 39.8311 13.0988C40.5775 12.898 41.1327 13.0381 41.83 13.3386C42.045 13.429 42.045 13.429 42.2642 13.5213C42.6076 13.6975 42.6076 13.6975 42.7444 13.9709C42.7539 14.1682 42.7559 14.3658 42.754 14.5632C42.764 16.0116 42.8092 17.0368 43.6603 18.2514C43.8381 18.6194 43.8381 18.6194 43.7713 19.0103C43.517 19.5387 43.224 20.021 42.8982 20.5078C42.8388 20.6008 42.7794 20.6937 42.7182 20.7895C42.6595 20.8779 42.6008 20.9663 42.5403 21.0574C42.4877 21.1373 42.435 21.2173 42.3807 21.2997C42.1483 21.5416 41.9809 21.5891 41.6506 21.6272C41.4001 21.4611 41.4001 21.4611 41.1294 21.2256C40.4065 20.7298 39.7563 20.6078 38.8847 20.6365C38.0835 20.9014 37.7802 21.4559 37.3365 22.144C36.7019 23.1121 36.0199 23.524 34.9514 23.9514C35.0421 25.1028 35.0421 25.1028 35.1736 26.25C35.2374 26.7882 35.1898 27.2482 35.0881 27.7795C34.3803 28.0684 33.6643 28.2904 32.9262 28.4888C32.7913 28.5254 32.7913 28.5254 32.6536 28.5629C32.2675 28.6647 31.9347 28.7366 31.5334 28.7366C31.1274 27.8342 30.7213 26.9319 30.3029 26.0022C29.5578 26.2251 29.5578 26.2251 29.1926 26.4305C28.7072 26.6545 28.2126 26.525 27.7053 26.4124C27.4849 26.321 27.2656 26.2268 27.0473 26.1304C25.9479 25.7189 24.6139 25.5582 23.467 25.8655C22.82 26.2403 22.3937 26.8256 22.0998 27.5061C22.1217 28.3343 22.5434 29.0558 22.8822 29.7972C23.0569 30.2405 23.0569 30.2405 23.0569 30.7874C22.427 30.9245 21.797 31.0608 21.1668 31.1962C20.9526 31.2424 20.7384 31.2888 20.5243 31.3355C20.216 31.4027 19.9074 31.4689 19.5988 31.535C19.5037 31.556 19.4085 31.5769 19.3105 31.5985C18.8195 31.7027 18.3637 31.7682 17.8615 31.7444C17.8628 31.599 17.8628 31.599 17.8642 31.4506C17.8831 28.8838 17.8831 28.8838 16.959 26.5427C16.651 25.8923 16.8481 25.4794 17.0781 24.8235C17.1475 24.6493 17.2179 24.4753 17.289 24.3018C17.323 24.2157 17.3569 24.1296 17.3918 24.0409C17.575 23.5874 17.7762 23.1749 18.034 22.7589C18.2977 22.3507 18.2977 22.3507 18.2632 22.008C18.1146 21.7251 17.9383 21.5145 17.7248 21.2769C17.1996 20.5921 17.1894 20.0075 17.1779 19.1663C17.1633 19.0041 17.1487 18.842 17.1336 18.6749C17.0414 17.1623 17.3233 15.6087 18.2717 14.3811C18.9047 13.8479 19.8874 13.2874 20.7326 13.2874C20.6969 13.1039 20.6969 13.1039 20.6605 12.9167C20.5965 12.3444 20.5853 11.9329 20.7326 11.3733C21.1757 10.8876 21.751 10.5909 22.3215 10.2779C22.8173 10.0543 22.8173 10.0543 22.9201 9.59595C17.5486 12.7433 13.5752 17.6893 11.9706 23.753C11.9258 23.9273 11.9258 23.9273 11.8801 24.1052C11.8529 24.2112 11.8257 24.3171 11.7976 24.4262C11.3159 26.414 11.2636 28.3268 11.2819 30.3601C11.2833 30.628 11.2846 30.8959 11.2857 31.1639C11.2887 31.8131 11.2934 32.4623 11.299 33.1116C10.5772 33.2018 9.85529 33.292 9.11154 33.385C8.07923 27.1266 9.65511 20.4272 13.2991 15.2372C14.1088 14.1129 15.0002 13.0673 15.9475 12.0569C16.0103 11.9894 16.0732 11.9219 16.1379 11.8523C24.5063 2.93648 39.1813 1.53365 49.9904 9.32251Z" fill="#F5F7F2"/>
<path d="M24.9707 36.5295C25.2522 36.811 25.1641 37.3795 25.1843 37.7685C25.1902 37.8722 25.1961 37.976 25.2022 38.0828C25.2168 38.3398 25.2305 38.5967 25.2441 38.8537C25.3897 38.8805 25.5353 38.9073 25.6853 38.9349C26.8591 39.1706 27.7209 39.4516 28.7168 40.1259C29.4531 40.5734 30.102 40.524 30.9436 40.4944C32.1424 40.4652 32.1424 40.4652 32.6177 40.8386C33.0739 41.3649 33.3891 41.9543 33.7063 42.5706C33.921 42.9229 34.2017 43.1378 34.541 43.3654C34.5178 43.4403 34.4945 43.5152 34.4705 43.5924C34.2525 44.3056 34.0466 45.0219 33.8489 45.7409C33.805 45.8999 33.7611 46.0589 33.7159 46.2227C33.3752 47.6027 33.2617 48.9442 33.2678 50.3637C33.2681 50.5371 33.2684 50.7104 33.2687 50.889C33.2827 52.2071 33.4175 53.4311 33.7207 54.7131C33.767 54.9408 33.8129 55.1686 33.8574 55.3967C27.283 55.5388 21.0297 52.4519 16.351 47.9984C13.6299 45.3598 11.6761 42.1123 10.3418 38.5803C10.3418 38.5352 10.3418 38.4901 10.3418 38.4436C10.9538 38.3529 11.5396 38.2985 12.1587 38.3026C12.2798 38.3032 12.401 38.3038 12.5259 38.3044C12.6173 38.3052 12.7086 38.306 12.8027 38.3069C12.8411 38.3914 12.8795 38.4759 12.9191 38.563C14.2524 41.4771 15.812 43.8826 17.998 46.2365C18.1109 46.3605 18.1109 46.3605 18.2261 46.487C18.9763 47.2779 19.8618 47.9101 20.7324 48.5608C20.1867 46.7046 20.1867 46.7046 19.229 45.0386C18.8601 44.216 19.3991 43.0837 19.683 42.2749C20.0311 41.376 20.5889 40.5936 21.1426 39.8108C21.0146 39.5742 20.8864 39.3379 20.7581 39.1015C20.6867 38.9699 20.6153 38.8382 20.5418 38.7026C20.3974 38.4423 20.2469 38.1854 20.09 37.9325C19.9121 37.6233 19.9121 37.6233 19.9121 37.3498C20.7523 37.1891 21.5927 37.029 22.4332 36.8696C22.7171 36.8155 23.0009 36.7607 23.2847 36.7057C23.4125 36.6814 23.5402 36.6571 23.6719 36.632C23.8305 36.6014 23.8305 36.6014 23.9923 36.5701C24.3234 36.5245 24.637 36.5135 24.9707 36.5295Z" fill="#F5F7F2"/>
<path d="M50.2613 40.3117C50.3672 40.3108 50.4731 40.3099 50.5822 40.309C50.806 40.3076 51.0299 40.307 51.2537 40.307C51.5934 40.3064 51.9329 40.3014 52.2726 40.2963C52.4908 40.2954 52.7091 40.2949 52.9273 40.2947C53.0778 40.2917 53.0778 40.2917 53.2313 40.2887C54.1044 40.2963 54.8392 40.5624 55.4668 41.1828C55.529 41.2743 55.5912 41.3657 55.6553 41.46C55.72 41.5518 55.7846 41.6436 55.8513 41.7382C56.1952 42.3177 56.1583 42.877 56.1509 43.5278C56.1503 43.6303 56.1497 43.7328 56.149 43.8384C56.1474 44.0909 56.145 44.3434 56.1424 44.596C56.2761 44.5912 56.4099 44.5864 56.5477 44.5815C58.0597 44.5503 59.0943 44.6502 60.2679 45.6614C61.2241 46.8182 61.1448 48.0052 61.1369 49.4281C61.1372 49.6599 61.1378 49.8918 61.1384 50.1236C61.1392 50.6081 61.1381 51.0926 61.1355 51.5771C61.1324 52.1959 61.1342 52.8145 61.1375 53.4333C61.1395 53.9116 61.1388 54.3899 61.1374 54.8682C61.137 55.0963 61.1375 55.3243 61.1388 55.5524C61.1448 56.936 61.1425 57.9747 60.1756 59.0625C60.0628 59.1612 59.95 59.2599 59.8338 59.3616C59.7492 59.4377 59.6646 59.5138 59.5774 59.5923C58.7791 60.0853 57.9221 60.0858 57.013 60.0849C56.8843 60.0858 56.7557 60.0867 56.6232 60.0877C56.2 60.0903 55.7768 60.0908 55.3535 60.0911C55.0578 60.092 54.762 60.0929 54.4663 60.0939C53.847 60.0955 53.2276 60.096 52.6083 60.0958C51.8172 60.0958 51.0261 60.0995 50.2349 60.1043C49.6242 60.1073 49.0135 60.1078 48.4027 60.1077C48.1112 60.108 47.8196 60.1092 47.528 60.1113C47.1191 60.114 46.7103 60.1132 46.3014 60.1116C46.1825 60.1131 46.0636 60.1147 45.9412 60.1162C44.9262 60.106 43.9992 59.8501 43.2011 59.2046C43.1179 59.1041 43.0347 59.0037 42.949 58.9002C42.863 58.8004 42.777 58.7006 42.6884 58.5979C42.2327 57.9076 42.1619 57.2489 42.1551 56.4348C42.154 56.3369 42.1529 56.2389 42.1517 56.138C42.1484 55.8162 42.1472 55.4943 42.1463 55.1724C42.1451 54.947 42.1438 54.7215 42.1426 54.4961C42.1403 54.024 42.1393 53.5519 42.1389 53.0798C42.1381 52.4779 42.133 51.8761 42.1267 51.2742C42.1226 50.8086 42.1217 50.3429 42.1215 49.8772C42.121 49.6555 42.1193 49.4338 42.1164 49.2121C42.1 47.8318 42.1554 46.6595 43.1057 45.5678C43.9739 44.6968 45.0674 44.5739 46.2473 44.5703C46.5379 44.5768 46.8285 44.5847 47.1189 44.596C47.1126 44.4606 47.1062 44.3252 47.0997 44.1858C47.0344 42.2264 47.0344 42.2264 47.6658 41.4514C48.468 40.6232 49.1001 40.3152 50.2613 40.3117ZM49.5269 42.7289C49.1763 43.2355 49.1763 43.2355 49.3064 44.596C50.8404 44.596 52.3744 44.596 53.9549 44.596C53.9549 44.0545 53.9549 43.5131 53.9549 42.9553C53.3872 42.3877 52.9978 42.4879 52.2232 42.4824C51.9679 42.4839 51.9679 42.4839 51.7075 42.4854C51.4531 42.4813 51.4531 42.4813 51.1935 42.4771C51.0306 42.4772 50.8676 42.4773 50.6998 42.4773C50.476 42.477 50.476 42.477 50.2477 42.4766C49.8499 42.5231 49.8499 42.5231 49.5269 42.7289ZM47.5632 50.7312C47.1345 51.3266 47.1935 51.815 47.2556 52.5256C46.9052 52.5063 46.5549 52.4863 46.2046 52.4658C46.106 52.4604 46.0074 52.4551 45.9058 52.4495C45.8093 52.4438 45.7128 52.4381 45.6134 52.4322C45.5253 52.4272 45.4373 52.4222 45.3465 52.417C45.0202 52.3841 44.7051 52.3206 44.3845 52.2522C44.3744 52.9017 44.3669 53.5511 44.362 54.2007C44.3599 54.4215 44.3572 54.6423 44.3536 54.863C44.3486 55.1811 44.3463 55.499 44.3445 55.817C44.3424 55.9152 44.3402 56.0133 44.3381 56.1145C44.3379 56.7206 44.4205 57.1028 44.7947 57.5842C45.2575 57.8157 45.7838 57.7449 46.2932 57.7473C46.4836 57.749 46.4836 57.749 46.6779 57.7507C47.0992 57.7541 47.5205 57.7564 47.9419 57.7583C48.0856 57.7591 48.2293 57.7598 48.3773 57.7605C49.1378 57.7642 49.8983 57.7668 50.6588 57.7688C51.445 57.7711 52.2311 57.7772 53.0173 57.7842C53.6212 57.7888 54.2251 57.7904 54.829 57.7911C55.1189 57.7921 55.4087 57.7941 55.6985 57.7974C56.1041 57.8017 56.5094 57.8017 56.915 57.8007C57.0349 57.803 57.1547 57.8052 57.2782 57.8075C57.8743 57.8014 58.1201 57.7762 58.61 57.4057C58.9594 56.9232 58.9641 56.527 58.9435 55.9538C58.9425 55.8515 58.9415 55.7493 58.9406 55.644C58.9367 55.3193 58.9282 54.995 58.9195 54.6704C58.916 54.4496 58.9129 54.2288 58.9101 54.0079C58.9032 53.468 58.8898 52.9288 58.8767 52.3889C57.4555 52.4566 57.4555 52.4566 56.0056 52.5256C56.0197 52.2888 56.0338 52.0519 56.0484 51.8079C56.0524 51.1747 56.0524 51.1747 55.7151 50.6458C55.228 50.434 55.0017 50.4377 54.5017 50.6116C53.9549 51.2268 53.9549 51.2268 54.0916 52.5256C52.4674 52.5256 50.8431 52.5256 49.1697 52.5256C49.1697 52.0745 49.1697 51.6233 49.1697 51.1585C48.8903 50.7191 48.8903 50.7191 48.4861 50.4749C47.9387 50.4235 47.9387 50.4235 47.5632 50.7312Z" fill="#F5F7F2"/>
<path d="M55.8691 34.3421C56.037 34.3886 56.205 34.4352 56.378 34.4831C59.0843 35.3115 61.3601 36.7638 63.3886 38.7171C63.4854 38.8036 63.5821 38.8902 63.6818 38.9793C66.3429 41.4344 67.9757 45.4311 68.2015 48.9996C68.2151 49.4548 68.2188 49.9085 68.2165 50.3638C68.2157 50.5256 68.215 50.6874 68.2142 50.8541C68.1613 54.6935 66.8219 58.2058 64.3457 61.139C64.239 61.268 64.1324 61.397 64.0226 61.5299C62.6587 63.1102 61.0067 64.3016 59.1503 65.2405C59.0676 65.2828 58.9849 65.3251 58.8997 65.3686C55.065 67.2885 50.4863 67.5495 46.4182 66.2222C44.0086 65.3809 41.9923 64.1369 40.1464 62.3694C40.0358 62.269 39.9251 62.1685 39.811 62.065C36.8623 59.2924 35.2116 55.1807 35.0579 51.1719C34.9419 46.4178 36.6041 42.3058 39.7779 38.7769C41.807 36.648 44.5575 35.0953 47.3925 34.3421C47.5473 34.2987 47.702 34.2554 47.8614 34.2107C50.3842 33.6194 53.3712 33.6389 55.8691 34.3421ZM42.1972 39.6741C42.091 39.7706 42.091 39.7706 41.9826 39.869C39.1187 42.4949 37.4549 46.0294 37.2753 49.928C37.226 52.4485 37.7839 54.793 38.916 57.0374C38.9875 57.1805 39.0591 57.3236 39.1328 57.4711C40.8919 60.7147 44.0311 63.1355 47.5479 64.1858C51.5829 65.3172 55.4422 64.7331 59.0563 62.7283C62.431 60.6797 64.7154 57.4167 65.6504 53.6128C66.5529 49.7547 65.7209 45.8918 63.6621 42.5452C63.3256 42.0601 62.9611 41.6181 62.5683 41.178C62.4761 41.0665 62.384 40.9549 62.289 40.84C60.0405 38.19 56.5948 36.437 53.1347 36.1194C49.162 35.83 45.1615 36.946 42.1972 39.6741Z" fill="#F5F7F2"/>
<path d="M65.166 19.7132C65.4395 20.1234 65.4395 20.1234 65.4309 20.5848C65.1476 21.6803 63.9882 22.2276 63.0666 22.7758C51.4544 29.3362 36.5657 32.4336 10.6152 36.5296C10.4582 36.5438 10.3012 36.558 10.1395 36.5726C9.12355 36.658 8.11405 36.6913 7.09473 36.692C6.95003 36.6936 6.80534 36.6953 6.65627 36.697C5.67546 36.6989 4.73987 36.648 3.83911 36.2305C3.64258 35.9827 3.64258 35.9827 3.54004 35.5384C3.66772 34.9 3.86803 34.7067 4.36783 34.3117C6.18765 33.1116 6.18765 33.1116 7.19727 33.1116C7.17751 33.3557 7.17751 33.3557 7.06055 33.6585C6.71715 33.8972 6.71715 33.8972 6.28296 34.1285C5.65792 34.4741 5.12504 34.8175 4.59961 35.2991C4.89134 35.5909 5.52344 35.4757 5.92407 35.4786C15.3008 35.4713 25.3546 32.2295 34.4043 29.9671C34.6396 29.9083 34.6396 29.9083 34.8796 29.8483C49.8004 26.6449 49.8004 26.6449 63.7262 20.7813C63.9355 20.6702 63.9355 20.6702 64.209 20.6702C64.209 20.58 64.209 20.4898 64.209 20.3968C63.3432 20.2753 62.4845 20.2199 61.6113 20.1832C61.4793 20.1773 61.3473 20.1714 61.2113 20.1653C60.8889 20.1509 60.5666 20.1369 60.2441 20.1234C60.199 19.9429 60.1539 19.7624 60.1074 19.5765C61.7479 19.2285 63.6021 18.9852 65.166 19.7132Z" fill="#F5F7F2"/>
<path d="M59.6975 26.4124C59.7877 26.4575 59.8779 26.5026 59.9709 26.5491C60.1721 27.5751 60.1339 28.6688 60.1333 29.7107C60.1333 29.8585 60.1334 30.0062 60.1335 30.1585C60.1255 31.3863 60.021 32.5826 59.8342 33.7952C59.227 33.5944 58.6207 33.392 58.0173 33.1799C56.0544 32.4963 54.1025 32.1296 52.0412 31.8811C52.015 31.5854 51.9967 31.2889 51.9814 30.9924C51.9703 30.8275 51.9592 30.6625 51.9478 30.4926C52.084 29.7265 52.3739 29.3351 52.9982 28.8733C53.73 28.5285 54.4845 28.2814 55.2541 28.0359C55.5572 27.9358 55.86 27.8348 56.1627 27.7336C56.3622 27.667 56.5618 27.6009 56.7615 27.5353C57.628 27.2483 58.4667 26.9076 59.3063 26.5502C59.4999 26.482 59.4999 26.482 59.6975 26.4124Z" fill="#F5F7F2"/>
<path d="M37.4275 34.2384C37.6004 34.3823 37.7706 34.5294 37.9381 34.6795C38.4224 35.0241 38.9647 35.1062 39.5392 35.2248C39.873 35.299 39.873 35.299 40.0097 35.4358C40.0711 35.7354 40.0711 35.7354 40.0097 36.1194C39.7342 36.419 39.4725 36.671 39.1638 36.9311C39.0047 37.0686 38.8461 37.2065 38.6879 37.345C38.6099 37.4125 38.532 37.48 38.4517 37.5495C38.233 37.7594 38.0684 37.9762 37.8922 38.2219C37.5488 38.5803 37.5488 38.5803 37.0948 38.6519C35.5854 38.4371 34.3624 37.8992 33.3527 36.7431C33.1192 36.2859 33.1729 36.0602 33.3105 35.5725C33.5142 35.0077 33.7689 34.5911 34.3161 34.318C35.2325 34.039 36.557 33.7267 37.4275 34.2384Z" fill="#F5F7F2"/>
</svg>
