<svg width="41" height="41" viewBox="0 0 41 41" fill="none" xmlns="http://www.w3.org/2000/svg">
<g clip-path="url(#clip0_250_372)">
<path d="M31.916 19.8062C31.9178 18.0858 31.2726 16.4275 30.1085 15.1606L25.041 9.63188V2.375C25.041 1.87772 24.8435 1.40081 24.4918 1.04917C24.1402 0.697544 23.6633 0.5 23.166 0.5L18.166 0.5C17.6687 0.5 17.1918 0.697544 16.8402 1.04917C16.4886 1.40081 16.291 1.87772 16.291 2.375V9.63188L11.2235 15.1606C10.0594 16.4275 9.41424 18.0858 9.41602 19.8062C9.41602 19.8181 9.42227 19.8288 9.42289 19.8406C9.42352 19.8525 9.41602 19.8625 9.41602 19.875V37.375C9.41701 38.2035 9.74657 38.9978 10.3324 39.5836C10.9182 40.1694 11.7125 40.499 12.541 40.5H28.791C29.6195 40.499 30.4138 40.1694 30.9996 39.5836C31.5855 38.9978 31.915 38.2035 31.916 37.375V19.875C31.916 19.8625 31.9098 19.8525 31.9091 19.8406C31.9085 19.8288 31.916 19.8181 31.916 19.8062ZM17.541 2.375C17.541 2.20924 17.6069 2.05027 17.7241 1.93306C17.8413 1.81585 18.0003 1.75 18.166 1.75H23.166C23.3318 1.75 23.4908 1.81585 23.608 1.93306C23.7252 2.05027 23.791 2.20924 23.791 2.375V9.25H17.541V2.375ZM28.791 39.25H12.541C12.0437 39.25 11.5668 39.0525 11.2152 38.7008C10.8636 38.3492 10.666 37.8723 10.666 37.375V36.75H25.666C25.8318 36.75 25.9908 36.6842 26.108 36.5669C26.2252 36.4497 26.291 36.2908 26.291 36.125C26.291 35.9592 26.2252 35.8003 26.108 35.6831C25.9908 35.5658 25.8318 35.5 25.666 35.5H10.666V20.5H13.166C13.3318 20.5 13.4908 20.4342 13.608 20.3169C13.7252 20.1997 13.791 20.0408 13.791 19.875C13.791 19.7092 13.7252 19.5503 13.608 19.4331C13.4908 19.3158 13.3318 19.25 13.166 19.25H10.6948C10.8132 18.0398 11.3222 16.9011 12.1448 16.0056L17.191 10.5H24.141L29.1873 16.0056C30.0099 16.9011 30.5188 18.0398 30.6373 19.25H15.666C15.5003 19.25 15.3413 19.3158 15.2241 19.4331C15.1069 19.5503 15.041 19.7092 15.041 19.875C15.041 20.0408 15.1069 20.1997 15.2241 20.3169C15.3413 20.4342 15.5003 20.5 15.666 20.5H30.666V35.5H28.166C28.0003 35.5 27.8413 35.5658 27.7241 35.6831C27.6069 35.8003 27.541 35.9592 27.541 36.125C27.541 36.2908 27.6069 36.4497 27.7241 36.5669C27.8413 36.6842 28.0003 36.75 28.166 36.75H30.666V37.375C30.666 37.8723 30.4685 38.3492 30.1168 38.7008C29.7652 39.0525 29.2883 39.25 28.791 39.25Z" fill="#299B46"/>
<path d="M24.2017 23.5806L21.9654 25.8169C21.4471 25.386 20.8425 25.0713 20.1923 24.8938C19.8244 24.7495 19.4225 24.7157 19.0357 24.7965C18.6489 24.8773 18.294 25.0692 18.0146 25.3486C17.7352 25.628 17.5434 25.9828 17.4626 26.3696C17.3818 26.7564 17.4156 27.1584 17.5598 27.5263C17.7375 28.1764 18.0522 28.781 18.4829 29.2994L16.7211 31.0625C16.0705 30.2251 15.7033 29.2024 15.6726 28.1424C15.6418 27.0825 15.9492 26.0402 16.5502 25.1665C17.1511 24.2928 18.0145 23.6331 19.0154 23.2827C20.0162 22.9323 21.1026 22.9095 22.1173 23.2175C22.1961 23.242 22.2789 23.2506 22.361 23.243C22.443 23.2353 22.5228 23.2115 22.5957 23.1728C22.6685 23.1342 22.733 23.0816 22.7854 23.0179C22.8378 22.9542 22.8771 22.8808 22.901 22.8019C22.9249 22.723 22.933 22.6402 22.9247 22.5581C22.9165 22.4761 22.8921 22.3965 22.8529 22.3239C22.8138 22.2514 22.7606 22.1873 22.6966 22.1353C22.6326 22.0834 22.5589 22.0446 22.4798 22.0213C21.1488 21.6195 19.7219 21.673 18.4247 22.1734C17.1275 22.6737 16.0342 23.5922 15.3177 24.7837C14.6012 25.9752 14.3024 27.3715 14.4687 28.7518C14.6349 30.1322 15.2566 31.4177 16.2354 32.405C16.2404 32.41 16.2417 32.4163 16.2467 32.4213C16.2517 32.4263 16.2579 32.4275 16.2629 32.4319C17.4448 33.5615 19.0223 34.183 20.657 34.1632C22.2918 34.1433 23.8537 33.4838 25.0079 32.3258C26.162 31.1679 26.8165 29.6039 26.831 27.9691C26.8455 26.3343 26.2189 24.7588 25.0854 23.5806C24.9682 23.4635 24.8093 23.3976 24.6436 23.3976C24.4778 23.3976 24.3189 23.4635 24.2017 23.5806ZM22.5598 28.7769C22.6229 28.9395 22.6444 29.1153 22.6226 29.2883C22.6008 29.4613 22.5363 29.6262 22.4348 29.7681C22.2929 29.8696 22.128 29.9341 21.955 29.9559C21.782 29.9777 21.6062 29.9562 21.4436 29.8931C21.0134 29.7713 20.6111 29.5669 20.2592 29.2913L21.9592 27.5913C22.2348 27.9435 22.4389 28.3463 22.5598 28.7769ZM18.7723 27.2231C18.7093 27.0605 18.6877 26.8847 18.7095 26.7117C18.7314 26.5387 18.7959 26.3738 18.8973 26.2319C19.0496 26.0987 19.2485 26.0313 19.4504 26.0444C19.5981 26.0462 19.745 26.0659 19.8879 26.1031C20.3181 26.2249 20.7204 26.4294 21.0723 26.705L19.3723 28.405C19.0973 28.0538 18.8935 27.6524 18.7723 27.2231ZM20.6661 33C19.5559 33.0004 18.4777 32.6287 17.6036 31.9444L19.3654 30.1831C19.8838 30.614 20.4884 30.9287 21.1386 31.1063C21.3788 31.1677 21.6256 31.1996 21.8736 31.2013C22.1385 31.2101 22.4024 31.1661 22.6501 31.0717C22.8978 30.9774 23.1242 30.8347 23.3161 30.6519C23.5756 30.3602 23.7542 30.0056 23.834 29.6235C23.9138 29.2413 23.8921 28.8449 23.7711 28.4738C23.5934 27.8236 23.2787 27.219 22.8479 26.7006L24.6129 24.9375C25.1875 25.6759 25.5431 26.5608 25.6393 27.4914C25.7355 28.422 25.5684 29.3609 25.1571 30.2012C24.7457 31.0415 24.1067 31.7494 23.3127 32.2442C22.5187 32.739 21.6016 33.0009 20.6661 33Z" fill="#299B46"/>
<path d="M19.416 3C19.2503 3 19.0913 3.06585 18.9741 3.18306C18.8569 3.30027 18.791 3.45924 18.791 3.625V7.375C18.791 7.54076 18.8569 7.69973 18.9741 7.81694C19.0913 7.93415 19.2503 8 19.416 8C19.5818 8 19.7407 7.93415 19.858 7.81694C19.9752 7.69973 20.041 7.54076 20.041 7.375V3.625C20.041 3.45924 19.9752 3.30027 19.858 3.18306C19.7407 3.06585 19.5818 3 19.416 3Z" fill="#299B46"/>
<path d="M21.916 3C21.7503 3 21.5913 3.06585 21.4741 3.18306C21.3569 3.30027 21.291 3.45924 21.291 3.625V7.375C21.291 7.54076 21.3569 7.69973 21.4741 7.81694C21.5913 7.93415 21.7503 8 21.916 8C22.0818 8 22.2407 7.93415 22.358 7.81694C22.4752 7.69973 22.541 7.54076 22.541 7.375V3.625C22.541 3.45924 22.4752 3.30027 22.358 3.18306C22.2407 3.06585 22.0818 3 21.916 3Z" fill="#299B46"/>
</g>
<defs>
<clipPath id="clip0_250_372">
<rect width="40" height="40" fill="white" transform="translate(0.666016 0.5)"/>
</clipPath>
</defs>
</svg>
