<svg width="40" height="40" viewBox="0 0 40 40" fill="none" xmlns="http://www.w3.org/2000/svg">
<g clip-path="url(#clip0_737_22)">
<path d="M16.7065 -0.018648C16.7637 -0.0194096 16.821 -0.0201712 16.8799 -0.0209559C18.1332 -0.0342009 19.3314 -0.0235646 20.5486 0.312468C20.604 0.327096 20.6594 0.341723 20.7165 0.356794C21.5267 0.574421 22.2926 0.888865 23.0486 1.24997C23.0977 1.27321 23.1467 1.29644 23.1972 1.32039C24.0294 1.72122 24.7522 2.23453 25.4705 2.81247C25.5188 2.85118 25.5671 2.88989 25.6168 2.92977C28.3926 5.17723 30.1523 8.42122 30.9393 11.875C30.9641 11.9817 30.9641 11.9817 30.9894 12.0906C31.4997 14.4018 31.5037 17.1527 30.9393 19.4531C30.9142 19.5577 30.9142 19.5577 30.8885 19.6644C30.0909 22.8902 28.3642 26.0486 25.8025 28.2177C25.0363 28.8858 24.4321 29.671 23.8329 30.4869C23.7852 30.5519 23.7375 30.6169 23.6883 30.6839C23.6459 30.7421 23.6035 30.8004 23.5598 30.8604C23.268 31.236 23.268 31.236 23.0392 31.2866C22.5538 31.2931 22.5538 31.2931 22.3016 31.084C22.1688 30.8184 22.1584 30.6849 22.1893 30.3906C22.3184 30.1529 22.3184 30.1529 22.4969 29.9072C22.5287 29.8631 22.5606 29.8191 22.5934 29.7737C23.3304 28.7651 24.1688 27.8578 25.0571 26.9827C25.7444 26.3046 26.3999 25.635 26.9549 24.8437C27.0038 24.7747 27.0038 24.7747 27.0537 24.7043C28.7077 22.3515 29.8461 19.5201 29.8614 16.6122C29.8618 16.5441 29.8623 16.476 29.8627 16.4058C29.8635 16.262 29.864 16.1183 29.8643 15.9746C29.865 15.7603 29.8675 15.5461 29.8699 15.3318C29.8777 14.0484 29.7199 12.8068 29.4012 11.5625C29.3814 11.4846 29.3616 11.4067 29.3412 11.3264C28.4061 7.7971 26.1687 4.69007 23.0247 2.82342C20.5121 1.38367 17.513 0.944776 14.7061 1.69888C12.6829 2.28341 10.9616 3.2939 9.45489 4.76559C9.38953 4.82612 9.32417 4.88664 9.25683 4.949C7.44255 6.67128 6.2202 9.15331 5.60723 11.5527C5.5798 11.659 5.5798 11.659 5.55181 11.7674C5.25231 13.0015 5.11832 14.2282 5.12746 15.4964C5.12872 15.7031 5.12746 15.9096 5.12597 16.1163C5.12095 20.1387 6.85896 23.8344 9.64927 26.6811C9.88114 26.9132 10.1157 27.1425 10.3501 27.372C11.0434 28.0528 11.7104 28.7318 12.2674 29.5312C12.2997 29.5769 12.3319 29.6226 12.3652 29.6697C14.1908 32.2655 15.6268 35.5309 15.6268 38.75C16.8643 38.75 18.1018 38.75 19.3768 38.75C19.4025 38.3632 19.4283 37.9765 19.4549 37.5781C19.4899 37.3061 19.5274 37.0413 19.577 36.7724C19.59 36.7014 19.6031 36.6304 19.6165 36.5573C20.255 33.3072 20.255 33.3072 21.0113 32.5924C21.2727 32.4435 21.507 32.4372 21.7986 32.5C22.0425 32.7011 22.1039 32.8205 22.1362 33.1344C22.1049 33.5134 21.9809 33.7961 21.8279 34.1406C21.1563 35.7385 20.7832 37.47 20.7366 39.2032C20.7006 39.4867 20.6175 39.6779 20.4705 39.9218C20.2423 40.036 20.04 40.0118 19.7851 40.0138C19.7036 40.0146 19.7036 40.0146 19.6203 40.0154C19.4401 40.0169 19.2598 40.0178 19.0795 40.0186C18.9872 40.0191 18.9872 40.0191 18.8931 40.0195C18.5675 40.0212 18.242 40.0223 17.9164 40.023C17.5799 40.0239 17.2435 40.0266 16.9071 40.0297C16.6485 40.0317 16.3899 40.0324 16.1314 40.0327C16.0073 40.033 15.8833 40.034 15.7593 40.0354C15.5857 40.0373 15.4122 40.0372 15.2386 40.0367C15.1399 40.0371 15.0411 40.0376 14.9393 40.0381C14.6437 39.993 14.5543 39.9235 14.3768 39.6875C14.3076 39.4801 14.2839 39.3348 14.2706 39.1201C14.0319 35.742 12.8763 32.4668 10.7049 29.8437C10.6677 29.7986 10.6305 29.7535 10.5922 29.707C9.99924 28.9916 9.38393 28.3025 8.67364 27.7002C6.2838 25.6414 4.78771 22.466 4.06427 19.4531C4.04772 19.3857 4.03118 19.3183 4.01414 19.2488C3.47736 16.943 3.5193 14.1742 4.06427 11.875C4.08354 11.7935 4.10281 11.712 4.12267 11.628C4.7634 9.01045 5.91117 6.594 7.70753 4.57326C7.81381 4.45361 7.91871 4.33285 8.02362 4.212C10.1365 1.80938 13.4649 0.0172058 16.7065 -0.018648Z" fill="#299B46"/>
<path d="M17.5449 2.47071C17.6961 2.46907 17.6961 2.46907 17.8503 2.46741C18.8517 2.4723 19.7969 2.66157 20.7432 2.9834C20.8127 3.00693 20.8822 3.03046 20.9537 3.0547C22.233 3.5033 23.3713 4.22751 24.3604 5.1529C24.5063 5.2884 24.6551 5.41299 24.8106 5.53711C25.1867 5.85774 25.4794 6.25254 25.7822 6.64063C25.8395 6.71233 25.8968 6.78404 25.9559 6.85791C27.9011 9.35554 28.7876 12.4438 28.7803 15.5811C28.7802 15.6839 28.7802 15.6839 28.7802 15.7889C28.777 16.9056 28.704 17.9738 28.4385 19.0625C28.414 19.1663 28.414 19.1663 28.389 19.2722C27.8622 21.4472 26.8478 23.5028 25.3141 25.1434C25.1796 25.2884 25.0559 25.4365 24.9326 25.5908C24.6121 25.9669 24.218 26.2609 23.8291 26.5625C23.7622 26.615 23.6954 26.6674 23.6265 26.7215C22.5916 27.5054 21.4733 28.0548 20.2354 28.4375C20.1792 28.4552 20.123 28.4728 20.0652 28.491C18.4345 28.9786 16.3866 28.9465 14.7666 28.4375C14.7056 28.4186 14.6446 28.3998 14.5818 28.3804C11.5327 27.4096 9.20751 25.1377 7.73536 22.3438C6.70938 20.3036 6.22064 18.0877 6.22633 15.8121C6.22657 15.6068 6.22473 15.4015 6.22276 15.1962C6.21792 13.9366 6.38464 12.7302 6.73439 11.5186C6.75791 11.4362 6.78144 11.3538 6.80568 11.2689C7.02531 10.5262 7.30988 9.83184 7.65724 9.14063C7.68608 9.08262 7.71492 9.02461 7.74463 8.96485C8.69667 7.06484 8.69667 7.06484 9.21974 6.875C9.48422 6.88892 9.68687 6.90263 9.9131 7.0459C10.0464 7.26075 10.0743 7.40145 10.0791 7.65625C9.95258 7.97258 9.79033 8.24299 9.61097 8.53241C8.45767 10.3953 7.66289 12.5566 7.63862 14.7681C7.63785 14.8263 7.63707 14.8844 7.63627 14.9444C7.59906 18.4664 8.45565 21.864 10.9565 24.4684C12.6981 26.2321 14.8972 27.3652 17.4128 27.4228C19.9328 27.4095 22.2188 26.293 24 24.5508C26.3708 22.151 27.3922 18.7433 27.3833 15.4413C27.3536 12.129 26.1811 9.05874 23.9072 6.64063C23.8661 6.5945 23.8251 6.54838 23.7827 6.50086C22.2482 4.84891 19.9617 3.95463 17.7476 3.83088C15.6326 3.78248 13.5242 4.52543 11.9248 5.90332C11.6886 6.09836 11.5317 6.21305 11.2217 6.22559C10.7927 6.14423 10.7927 6.14423 10.626 5.9375C10.5453 5.64706 10.5074 5.47409 10.6409 5.19867C11.5812 3.87664 13.5565 3.14038 15.0791 2.73438C15.2136 2.69676 15.2136 2.69676 15.3507 2.65839C16.0774 2.48819 16.8022 2.47545 17.5449 2.47071Z" fill="#299B46"/>
<path d="M16.6657 9.36119C16.7522 9.36019 16.8388 9.35919 16.928 9.35815C17.0219 9.35758 17.1158 9.357 17.2126 9.3564C17.3087 9.35577 17.4049 9.35514 17.5039 9.35449C17.7077 9.35341 17.9114 9.35257 18.1151 9.35196C18.3241 9.35127 18.5331 9.34963 18.7421 9.34715C19.0428 9.34383 19.3435 9.34256 19.6442 9.34176C19.7378 9.34039 19.8314 9.33902 19.9278 9.33761C20.0149 9.33784 20.102 9.33807 20.1917 9.3383C20.2682 9.33784 20.3448 9.33739 20.4237 9.33691C20.6861 9.38627 20.7778 9.47798 20.9388 9.68752C21.0289 10.2561 20.8158 10.6158 20.5335 11.0987C20.4919 11.1723 20.4502 11.246 20.4073 11.3219C20.3188 11.4782 20.2297 11.6343 20.14 11.79C19.9998 12.0338 19.8616 12.2786 19.7239 12.5238C19.3762 13.1424 19.0253 13.759 18.6732 14.375C18.7204 14.3743 18.7677 14.3736 18.8164 14.3729C19.3081 14.366 19.7998 14.3613 20.2915 14.3579C20.4751 14.3563 20.6586 14.3541 20.8422 14.3514C21.1059 14.3477 21.3696 14.3459 21.6334 14.3445C21.7155 14.3429 21.7976 14.3413 21.8822 14.3396C22.4484 14.3394 22.4484 14.3394 22.7087 14.5146C22.8366 14.7251 22.8671 14.9045 22.8535 15.1502C22.7378 15.6235 22.2626 15.9374 21.9077 16.2384C21.6662 16.4544 21.4398 16.6836 21.2122 16.9141C20.9007 17.2292 20.586 17.5308 20.2479 17.8174C20.0133 18.0282 19.7933 18.2524 19.5716 18.4766C19.26 18.7917 18.9454 19.0933 18.6072 19.3799C18.3256 19.633 18.0632 19.9053 17.7971 20.1745C17.5237 20.4497 17.2438 20.7105 16.9477 20.9613C16.7005 21.1803 16.4723 21.4181 16.2421 21.6547C15.9982 21.8905 15.8099 21.8898 15.4755 21.9083C15.2395 21.8597 15.1529 21.7462 15.0013 21.5625C14.9637 21.3707 14.9637 21.3707 14.9658 21.1541C14.9658 21.0728 14.9658 20.9915 14.9659 20.9077C14.9675 20.8205 14.9691 20.7332 14.9708 20.6433C14.9712 20.5536 14.9716 20.4639 14.9721 20.3714C14.9739 20.0848 14.9778 19.7983 14.9817 19.5117C14.9833 19.3174 14.9847 19.1231 14.986 18.9289C14.9895 18.4525 14.9947 17.9763 15.0013 17.5C14.9272 17.5017 14.8531 17.5033 14.7767 17.505C14.5013 17.5103 14.2258 17.5142 13.9503 17.5172C13.8312 17.5188 13.7121 17.5209 13.593 17.5236C13.4215 17.5274 13.2502 17.5292 13.0787 17.5305C12.9756 17.5322 12.8725 17.5338 12.7662 17.5355C12.5013 17.5 12.5013 17.5 12.3124 17.3583C12.1672 17.1577 12.1297 17.0062 12.1432 16.7588C12.2514 16.293 12.5185 15.8782 12.7503 15.4639C12.808 15.3584 12.8657 15.2529 12.9232 15.1474C13.2951 14.4675 13.6766 13.793 14.0617 13.1206C14.5043 12.3438 14.9196 11.5524 15.3345 10.7606C15.3619 10.7084 15.3894 10.6563 15.4176 10.6026C15.4924 10.4606 15.5668 10.3183 15.6413 10.1761C16.0909 9.36697 16.0909 9.36697 16.6657 9.36119ZM16.9544 10.625C16.7949 10.9231 16.6354 11.2212 16.471 11.5283C16.1025 12.2147 15.7283 12.8971 15.3431 13.5742C14.9946 14.1868 14.6508 14.8016 14.3128 15.4199C14.272 15.4943 14.2312 15.5687 14.1892 15.6454C14.1336 15.7474 14.1336 15.7474 14.0769 15.8515C14.0441 15.9116 14.0113 15.9718 13.9775 16.0338C13.9016 16.1577 13.9016 16.1577 13.9075 16.25C13.9678 16.2512 14.0281 16.2523 14.0903 16.2535C14.3631 16.2593 14.6358 16.2668 14.9085 16.2744C15.0034 16.2762 15.0983 16.278 15.1961 16.2798C15.3325 16.2839 15.3325 16.2839 15.4716 16.2882C15.5554 16.2902 15.6393 16.2923 15.7257 16.2944C15.9698 16.3331 16.0236 16.3724 16.1732 16.5625C16.2043 16.7093 16.2043 16.7093 16.2069 16.876C16.2085 16.9385 16.21 17.0011 16.2116 17.0655C16.2121 17.1327 16.2126 17.1998 16.2131 17.269C16.2152 17.3725 16.2152 17.3725 16.2174 17.4782C16.2216 17.6987 16.2243 17.9192 16.2269 18.1397C16.2295 18.2892 16.2322 18.4386 16.235 18.5881C16.2416 18.9546 16.2468 19.321 16.2513 19.6875C16.6712 19.3304 16.6712 19.3304 17.0804 18.9612C17.1511 18.8954 17.1511 18.8954 17.2232 18.8283C17.2715 18.7831 17.3197 18.738 17.3694 18.6914C17.4205 18.6438 17.4715 18.5961 17.524 18.5471C17.8842 18.2092 18.2341 17.8631 18.581 17.5116C18.7325 17.3623 18.8872 17.2227 19.0491 17.085C19.5237 16.6796 19.9537 16.225 20.3919 15.7813C20.4435 15.7297 20.495 15.6781 20.5482 15.625C20.4476 15.6239 20.3471 15.6227 20.2435 15.6216C19.8709 15.617 19.4983 15.611 19.1257 15.6045C18.9644 15.6019 18.8031 15.5997 18.6417 15.598C18.41 15.5953 18.1783 15.5913 17.9465 15.5869C17.8743 15.5864 17.802 15.5859 17.7275 15.5854C17.6603 15.5838 17.593 15.5823 17.5238 15.5807C17.435 15.5794 17.435 15.5794 17.3445 15.578C17.1451 15.5382 17.0761 15.4734 16.9544 15.3125C16.8294 14.6622 17.2062 14.16 17.5208 13.6182C17.5778 13.5178 17.6347 13.4173 17.6914 13.3167C17.8338 13.0651 17.9777 12.8145 18.1223 12.5641C18.2913 12.2714 18.4595 11.9781 18.6276 11.6848C18.7085 11.544 18.79 11.4036 18.8719 11.2634C18.9258 11.1705 18.9258 11.1705 18.9808 11.0758C19.0121 11.0223 19.0434 10.9688 19.0757 10.9137C19.1536 10.7827 19.1536 10.7827 19.1419 10.625C18.42 10.625 17.6982 10.625 16.9544 10.625Z" fill="#299B46"/>
<path d="M18.3952 30.1172C18.8503 30.3922 19.219 30.8195 19.3767 31.3281C19.4396 31.9403 19.4645 32.5484 19.0642 33.0469C18.6888 33.441 18.3484 33.7192 17.7931 33.7762C17.1278 33.7836 16.6676 33.7592 16.1763 33.2913C15.6777 32.7519 15.5891 32.328 15.6029 31.5973C15.6572 30.9831 15.9429 30.6602 16.4003 30.2692C16.9522 29.8889 17.7824 29.8456 18.3952 30.1172ZM17.0817 31.4551C16.9167 31.6962 16.907 31.8225 16.9548 32.1094C17.072 32.3047 17.072 32.3047 17.2673 32.4219C17.5541 32.4697 17.6804 32.4599 17.9216 32.2949C18.0866 32.0537 18.0964 31.9275 18.0485 31.6406C17.9314 31.4453 17.9314 31.4453 17.736 31.3281C17.4492 31.2803 17.3229 31.2901 17.0817 31.4551Z" fill="#299B46"/>
<path d="M34.9213 2.50003C35.0483 2.75882 35.0483 2.75882 35.0776 3.04691C34.9094 3.50725 34.5868 3.80356 34.2448 4.13974C34.1574 4.22691 34.1574 4.22691 34.0682 4.31583C33.9455 4.43803 33.8225 4.55995 33.6993 4.6816C33.51 4.86836 33.3217 5.05596 33.1335 5.24371C33.014 5.36243 32.8946 5.48109 32.775 5.5997C32.7185 5.65593 32.6619 5.71216 32.6037 5.77009C32.5512 5.82175 32.4988 5.87341 32.4448 5.92664C32.3987 5.97224 32.3526 6.01784 32.305 6.06482C32.0756 6.27289 31.8653 6.27719 31.5601 6.27109C31.4057 6.25003 31.4057 6.25003 31.2104 6.13284C31.0776 5.91147 31.0338 5.73543 31.0502 5.47653C31.2234 4.81692 32.1494 4.15811 32.6236 3.68099C32.7269 3.57678 32.8298 3.47223 32.9324 3.36734C33.082 3.21439 33.2327 3.0625 33.3836 2.9108C33.429 2.86401 33.4744 2.81722 33.5212 2.76901C33.9665 2.32603 34.3408 2.1316 34.9213 2.50003Z" fill="#299B46"/>
<path d="M31.9971 7.45953C32.0836 7.45854 32.1702 7.45756 32.2594 7.45654C32.3525 7.45718 32.4456 7.45781 32.5415 7.45846C32.6374 7.45816 32.7334 7.45786 32.8322 7.45755C33.035 7.45734 33.2378 7.45792 33.4406 7.45922C33.7513 7.46089 34.0618 7.45924 34.3726 7.45724C34.5695 7.45745 34.7664 7.45785 34.9634 7.45846C35.0565 7.45783 35.1496 7.45719 35.2455 7.45654C35.3754 7.45802 35.3754 7.45802 35.5078 7.45953C35.5839 7.45978 35.66 7.46003 35.7384 7.46028C35.9963 7.51106 36.0896 7.61054 36.2524 7.81246C36.2939 7.96871 36.2939 7.96871 36.2915 8.12496C36.2927 8.20231 36.2927 8.20231 36.2939 8.28121C36.2334 8.50928 36.1205 8.60103 35.9399 8.74996C35.7384 8.78965 35.7384 8.78965 35.5078 8.7904C35.4213 8.79138 35.3347 8.79237 35.2455 8.79338C35.1524 8.79275 35.0593 8.79212 34.9634 8.79147C34.8195 8.79192 34.8195 8.79192 34.6727 8.79237C34.4699 8.79259 34.2671 8.79201 34.0643 8.7907C33.7536 8.78903 33.443 8.79069 33.1323 8.79269C32.9354 8.79248 32.7384 8.79208 32.5415 8.79147C32.4484 8.7921 32.3553 8.79273 32.2594 8.79338C32.1295 8.79191 32.1295 8.79191 31.9971 8.7904C31.921 8.79015 31.8449 8.7899 31.7665 8.78965C31.5086 8.73887 31.4153 8.63939 31.2524 8.43746C31.2109 8.28121 31.2109 8.28121 31.2134 8.12496C31.2122 8.04762 31.2122 8.04762 31.2109 7.96871C31.3192 7.56111 31.6098 7.46079 31.9971 7.45953Z" fill="#299B46"/>
<path d="M29.3755 -0.0390625C29.427 -0.0398682 29.4786 -0.0406738 29.5317 -0.0415039C29.7598 0.0190759 29.8515 0.131928 30.0005 0.3125C30.0401 0.514069 30.0401 0.514069 30.0409 0.744629C30.0419 0.831187 30.0429 0.917746 30.0439 1.00693C30.0432 1.10003 30.0426 1.19314 30.042 1.28906C30.0423 1.38499 30.0426 1.48091 30.0429 1.57974C30.0431 1.78253 30.0425 1.98532 30.0412 2.18811C30.0395 2.49883 30.0412 2.8094 30.0432 3.12012C30.043 3.31706 30.0426 3.514 30.042 3.71094C30.0426 3.80404 30.0432 3.89715 30.0439 3.99307C30.0429 4.07963 30.0419 4.16619 30.0409 4.25537C30.0405 4.3695 30.0405 4.3695 30.0401 4.48593C29.9894 4.74386 29.8899 4.83717 29.688 5C29.5317 5.0415 29.5317 5.0415 29.3755 5.03906C29.3239 5.03987 29.2723 5.04067 29.2192 5.0415C28.9911 4.98092 28.8994 4.86807 28.7505 4.6875C28.7108 4.48593 28.7108 4.48593 28.71 4.25537C28.709 4.16881 28.708 4.08225 28.707 3.99307C28.7077 3.89997 28.7083 3.80686 28.7089 3.71094C28.7086 3.61501 28.7084 3.51909 28.708 3.42026C28.7078 3.21747 28.7084 3.01468 28.7097 2.81189C28.7114 2.50117 28.7097 2.1906 28.7077 1.87988C28.7079 1.68294 28.7083 1.486 28.7089 1.28906C28.7083 1.19596 28.7077 1.10285 28.707 1.00693C28.708 0.920369 28.709 0.83381 28.71 0.744629C28.7103 0.668544 28.7105 0.592459 28.7108 0.514069C28.7812 0.156244 29.0111 -0.0447556 29.3755 -0.0390625Z" fill="#299B46"/>
</g>
<defs>
<clipPath id="clip0_737_22">
<rect width="40" height="40" fill="white"/>
</clipPath>
</defs>
</svg>
