<svg width="40" height="40" viewBox="0 0 40 40" fill="none" xmlns="http://www.w3.org/2000/svg">
<g clip-path="url(#clip0_138_7702)">
<path d="M16.7045 -0.018587C16.7618 -0.0193486 16.819 -0.0201102 16.878 -0.0208949C18.1313 -0.0341399 19.3295 -0.0235036 20.5467 0.312529C20.6021 0.327157 20.6575 0.341784 20.7146 0.356856C21.5248 0.574482 22.2906 0.888926 23.0467 1.25003C23.0957 1.27327 23.1448 1.29651 23.1953 1.32045C24.0275 1.72128 24.7503 2.23459 25.4686 2.81253C25.5168 2.85124 25.5651 2.88995 25.6149 2.92983C28.3906 5.17729 30.1504 8.42128 30.9373 11.875C30.9621 11.9818 30.9621 11.9818 30.9874 12.0907C31.4978 14.4018 31.5018 17.1528 30.9373 19.4532C30.9122 19.5577 30.9122 19.5577 30.8866 19.6644C30.089 22.8902 28.3623 26.0487 25.8006 28.2178C25.0343 28.8859 24.4302 29.671 23.831 30.487C23.7832 30.552 23.7355 30.617 23.6863 30.6839C23.6439 30.7422 23.6015 30.8005 23.5579 30.8605C23.2661 31.2361 23.2661 31.2361 23.0372 31.2866C22.5519 31.2932 22.5519 31.2932 22.2996 31.084C22.1668 30.8185 22.1565 30.685 22.1873 30.3907C22.3164 30.1529 22.3164 30.1529 22.4949 29.9073C22.5268 29.8632 22.5586 29.8191 22.5914 29.7738C23.3285 28.7652 24.1668 27.8578 25.0552 26.9828C25.7425 26.3047 26.398 25.6351 26.9529 24.8438C27.0019 24.7747 27.0019 24.7747 27.0518 24.7043C28.7058 22.3516 29.8442 19.5201 29.8594 16.6123C29.8599 16.5441 29.8603 16.476 29.8608 16.4058C29.8615 16.2621 29.862 16.1184 29.8623 15.9747C29.8631 15.7604 29.8655 15.5462 29.868 15.3319C29.8757 14.0485 29.7179 12.8069 29.3992 11.5625C29.3794 11.4846 29.3596 11.4067 29.3392 11.3265C28.4042 7.79716 26.1668 4.69014 23.0227 2.82348C20.5102 1.38373 17.511 0.944838 14.7041 1.69894C12.6809 2.28347 10.9596 3.29396 9.45294 4.76565C9.38758 4.82618 9.32222 4.8867 9.25488 4.94906C7.44059 6.67134 6.21825 9.15337 5.60528 11.5528C5.57784 11.659 5.57784 11.659 5.54985 11.7675C5.25035 13.0015 5.11637 14.2282 5.12551 15.4965C5.12677 15.7031 5.12551 15.9097 5.12402 16.1164C5.119 20.1388 6.857 23.8345 9.64732 26.6811C9.87918 26.9132 10.1138 27.1425 10.3482 27.372C11.0415 28.0529 11.7084 28.7318 12.2654 29.5313C12.2977 29.577 12.33 29.6226 12.3632 29.6697C14.1888 32.2655 15.6248 35.5309 15.6248 38.75C16.8623 38.75 18.0998 38.75 19.3748 38.75C19.4006 38.3633 19.4264 37.9766 19.4529 37.5782C19.488 37.3062 19.5254 37.0414 19.575 36.7725C19.5881 36.7015 19.6011 36.6305 19.6146 36.5573C20.253 33.3073 20.253 33.3073 21.0093 32.5925C21.2708 32.4436 21.505 32.4373 21.7967 32.5C22.0405 32.7012 22.102 32.8206 22.1342 33.1345C22.1029 33.5134 21.9789 33.7962 21.826 34.1407C21.1543 35.7385 20.7813 37.4701 20.7347 39.2032C20.6987 39.4868 20.6156 39.678 20.4686 39.9219C20.2403 40.036 20.038 40.0119 19.7832 40.0139C19.7016 40.0146 19.7016 40.0146 19.6184 40.0154C19.4381 40.017 19.2578 40.0179 19.0776 40.0186C18.9853 40.0191 18.9853 40.0191 18.8911 40.0196C18.5656 40.0212 18.24 40.0224 17.9144 40.0231C17.578 40.024 17.2416 40.0266 16.9051 40.0297C16.6465 40.0318 16.388 40.0324 16.1294 40.0327C16.0054 40.0331 15.8813 40.034 15.7573 40.0355C15.5837 40.0374 15.4103 40.0373 15.2367 40.0367C15.1379 40.0372 15.0391 40.0377 14.9374 40.0381C14.6417 39.9931 14.5524 39.9236 14.3748 39.6875C14.3057 39.4801 14.2819 39.3348 14.2686 39.1202C14.03 35.7421 12.8743 32.4668 10.7029 29.8438C10.6658 29.7987 10.6286 29.7536 10.5903 29.7071C9.99729 28.9917 9.38198 28.3026 8.67169 27.7002C6.28184 25.6415 4.78576 22.4661 4.06231 19.4532C4.04577 19.3857 4.02923 19.3183 4.01219 19.2489C3.4754 16.9431 3.51735 14.1742 4.06231 11.875C4.08159 11.7935 4.10086 11.7121 4.12072 11.6281C4.76144 9.01051 5.90922 6.59406 7.70558 4.57332C7.81185 4.45367 7.91676 4.33291 8.02166 4.21206C10.1346 1.80944 13.463 0.0172668 16.7045 -0.018587Z" fill="white"/>
<path d="M17.544 2.47071C17.6951 2.46907 17.6951 2.46907 17.8493 2.46741C18.8507 2.4723 19.7959 2.66157 20.7422 2.9834C20.8117 3.00693 20.8812 3.03046 20.9528 3.0547C22.232 3.5033 23.3703 4.22751 24.3594 5.1529C24.5053 5.2884 24.6542 5.41299 24.8096 5.53711C25.1857 5.85774 25.4784 6.25254 25.7813 6.64063C25.8386 6.71233 25.8959 6.78404 25.9549 6.85791C27.9002 9.35554 28.7866 12.4438 28.7793 15.5811C28.7792 15.6839 28.7792 15.6839 28.7792 15.7889C28.776 16.9056 28.703 17.9738 28.4375 19.0625C28.413 19.1663 28.413 19.1663 28.388 19.2722C27.8612 21.4472 26.8469 23.5028 25.3131 25.1434C25.1786 25.2884 25.055 25.4365 24.9317 25.5908C24.6112 25.9669 24.2171 26.2609 23.8281 26.5625C23.7613 26.615 23.6944 26.6674 23.6255 26.7215C22.5906 27.5054 21.4724 28.0548 20.2344 28.4375C20.1782 28.4552 20.122 28.4728 20.0642 28.491C18.4335 28.9786 16.3856 28.9465 14.7656 28.4375C14.7046 28.4186 14.6436 28.3998 14.5808 28.3804C11.5318 27.4096 9.20653 25.1377 7.73439 22.3438C6.7084 20.3036 6.21967 18.0877 6.22535 15.8121C6.2256 15.6068 6.22376 15.4015 6.22178 15.1962C6.21695 13.9366 6.38366 12.7302 6.73341 11.5186C6.75694 11.4362 6.78046 11.3538 6.80471 11.2689C7.02433 10.5262 7.30891 9.83184 7.65626 9.14063C7.6851 9.08262 7.71394 9.02461 7.74366 8.96485C8.69569 7.06484 8.69569 7.06484 9.21876 6.875C9.48324 6.88892 9.6859 6.90263 9.91212 7.0459C10.0455 7.26075 10.0733 7.40145 10.0781 7.65625C9.95161 7.97258 9.78935 8.24299 9.61 8.53241C8.45669 10.3953 7.66192 12.5566 7.63765 14.7681C7.63687 14.8263 7.63609 14.8844 7.63529 14.9444C7.59808 18.4664 8.45467 21.864 10.9555 24.4684C12.6971 26.2321 14.8963 27.3652 17.4118 27.4228C19.9318 27.4095 22.2178 26.293 23.999 24.5508C26.3698 22.151 27.3912 18.7433 27.3823 15.4413C27.3526 12.129 26.1801 9.05874 23.9063 6.64063C23.8652 6.5945 23.8241 6.54838 23.7817 6.50086C22.2472 4.84891 19.9607 3.95463 17.7466 3.83088C15.6317 3.78248 13.5233 4.52543 11.9238 5.90332C11.6876 6.09836 11.5307 6.21305 11.2207 6.22559C10.7917 6.14423 10.7917 6.14423 10.625 5.9375C10.5443 5.64706 10.5064 5.47409 10.64 5.19867C11.5802 3.87664 13.5555 3.14038 15.0781 2.73438C15.2126 2.69676 15.2126 2.69676 15.3497 2.65839C16.0764 2.48819 16.8012 2.47545 17.544 2.47071Z" fill="white"/>
<path d="M16.6647 9.36119C16.7513 9.36019 16.8378 9.35919 16.927 9.35815C17.0209 9.35758 17.1148 9.357 17.2116 9.3564C17.3078 9.35577 17.4039 9.35514 17.503 9.35449C17.7067 9.35341 17.9104 9.35257 18.1141 9.35196C18.3231 9.35127 18.5321 9.34963 18.7411 9.34715C19.0418 9.34383 19.3425 9.34256 19.6432 9.34176C19.7368 9.34039 19.8304 9.33902 19.9269 9.33761C20.0139 9.33784 20.101 9.33807 20.1907 9.3383C20.2673 9.33784 20.3438 9.33739 20.4227 9.33691C20.6851 9.38627 20.7768 9.47798 20.9378 9.68752C21.028 10.2561 20.8148 10.6158 20.5325 11.0987C20.4909 11.1723 20.4492 11.246 20.4063 11.3219C20.3178 11.4782 20.2287 11.6343 20.139 11.79C19.9989 12.0338 19.8606 12.2786 19.7229 12.5238C19.3753 13.1424 19.0243 13.759 18.6722 14.375C18.7194 14.3743 18.7667 14.3736 18.8154 14.3729C19.3071 14.366 19.7988 14.3613 20.2906 14.3579C20.4741 14.3563 20.6576 14.3541 20.8412 14.3514C21.1049 14.3477 21.3686 14.3459 21.6324 14.3445C21.7145 14.3429 21.7966 14.3413 21.8812 14.3396C22.4474 14.3394 22.4474 14.3394 22.7077 14.5146C22.8356 14.7251 22.8661 14.9045 22.8525 15.1502C22.7368 15.6235 22.2616 15.9374 21.9067 16.2384C21.6652 16.4544 21.4388 16.6836 21.2112 16.9141C20.8997 17.2292 20.5851 17.5308 20.2469 17.8174C20.0123 18.0282 19.7923 18.2524 19.5706 18.4766C19.2591 18.7917 18.9444 19.0933 18.6063 19.3799C18.3246 19.633 18.0622 19.9053 17.7961 20.1745C17.5228 20.4497 17.2429 20.7105 16.9467 20.9613C16.6995 21.1803 16.4713 21.4181 16.2411 21.6547C15.9972 21.8905 15.8089 21.8898 15.4745 21.9083C15.2385 21.8597 15.1519 21.7462 15.0003 21.5625C14.9627 21.3707 14.9627 21.3707 14.9648 21.1541C14.9648 21.0728 14.9649 20.9915 14.9649 20.9077C14.9665 20.8205 14.9681 20.7332 14.9698 20.6433C14.9702 20.5536 14.9707 20.4639 14.9711 20.3714C14.9729 20.0848 14.9768 19.7983 14.9808 19.5117C14.9823 19.3174 14.9838 19.1231 14.985 18.9289C14.9885 18.4525 14.9937 17.9763 15.0003 17.5C14.9262 17.5017 14.8521 17.5033 14.7758 17.505C14.5003 17.5103 14.2249 17.5142 13.9494 17.5172C13.8302 17.5188 13.7111 17.5209 13.592 17.5236C13.4205 17.5274 13.2492 17.5292 13.0777 17.5305C12.9746 17.5322 12.8715 17.5338 12.7653 17.5355C12.5003 17.5 12.5003 17.5 12.3114 17.3583C12.1662 17.1577 12.1287 17.0062 12.1422 16.7588C12.2504 16.293 12.5175 15.8782 12.7493 15.4639C12.8071 15.3584 12.8647 15.2529 12.9222 15.1474C13.2941 14.4675 13.6756 13.793 14.0607 13.1206C14.5034 12.3438 14.9186 11.5524 15.3335 10.7606C15.361 10.7084 15.3884 10.6563 15.4166 10.6026C15.4914 10.4606 15.5658 10.3183 15.6403 10.1761C16.09 9.36697 16.09 9.36697 16.6647 9.36119ZM16.9534 10.625C16.7939 10.9231 16.6344 11.2212 16.47 11.5283C16.1015 12.2147 15.7273 12.8971 15.3421 13.5742C14.9936 14.1868 14.6498 14.8016 14.3118 15.4199C14.271 15.4943 14.2302 15.5687 14.1882 15.6454C14.1326 15.7474 14.1326 15.7474 14.0759 15.8515C14.0431 15.9116 14.0103 15.9718 13.9765 16.0338C13.9007 16.1577 13.9007 16.1577 13.9066 16.25C13.9669 16.2512 14.0272 16.2523 14.0893 16.2535C14.3621 16.2593 14.6348 16.2668 14.9075 16.2744C15.0024 16.2762 15.0974 16.278 15.1952 16.2798C15.3315 16.2839 15.3315 16.2839 15.4706 16.2882C15.5544 16.2902 15.6383 16.2923 15.7247 16.2944C15.9688 16.3331 16.0226 16.3724 16.1722 16.5625C16.2033 16.7093 16.2033 16.7093 16.206 16.876C16.2075 16.9385 16.209 17.0011 16.2106 17.0655C16.2111 17.1327 16.2116 17.1998 16.2122 17.269C16.2143 17.3725 16.2143 17.3725 16.2164 17.4782C16.2206 17.6987 16.2233 17.9192 16.2259 18.1397C16.2285 18.2892 16.2312 18.4386 16.234 18.5881C16.2406 18.9546 16.2458 19.321 16.2503 19.6875C16.6702 19.3304 16.6702 19.3304 17.0795 18.9612C17.1502 18.8954 17.1502 18.8954 17.2223 18.8283C17.2705 18.7831 17.3188 18.738 17.3685 18.6914C17.4195 18.6438 17.4705 18.5961 17.5231 18.5471C17.8833 18.2092 18.2331 17.8631 18.58 17.5116C18.7315 17.3623 18.8862 17.2227 19.0482 17.085C19.5227 16.6796 19.9527 16.225 20.3909 15.7813C20.4425 15.7297 20.4941 15.6781 20.5472 15.625C20.4466 15.6239 20.3461 15.6227 20.2425 15.6216C19.8699 15.617 19.4973 15.611 19.1248 15.6045C18.9634 15.6019 18.8021 15.5997 18.6408 15.598C18.409 15.5953 18.1773 15.5913 17.9456 15.5869C17.8733 15.5864 17.801 15.5859 17.7265 15.5854C17.6593 15.5838 17.5921 15.5823 17.5228 15.5807C17.4341 15.5794 17.4341 15.5794 17.3435 15.578C17.1441 15.5382 17.0751 15.4734 16.9534 15.3125C16.8284 14.6622 17.2052 14.16 17.5198 13.6182C17.5768 13.5178 17.6337 13.4173 17.6904 13.3167C17.8328 13.0651 17.9767 12.8145 18.1213 12.5641C18.2903 12.2714 18.4585 11.9781 18.6266 11.6848C18.7076 11.544 18.789 11.4036 18.8709 11.2634C18.9248 11.1705 18.9248 11.1705 18.9798 11.0758C19.0111 11.0223 19.0424 10.9688 19.0747 10.9137C19.1526 10.7827 19.1526 10.7827 19.1409 10.625C18.4191 10.625 17.6972 10.625 16.9534 10.625Z" fill="white"/>
<path d="M18.3933 30.1172C18.8483 30.3922 19.2171 30.8195 19.3747 31.3281C19.4376 31.9403 19.4626 32.5484 19.0622 33.0469C18.6869 33.441 18.3465 33.7192 17.7912 33.7762C17.1258 33.7836 16.6657 33.7592 16.1743 33.2913C15.6758 32.7519 15.5872 32.328 15.6009 31.5973C15.6552 30.9831 15.9409 30.6602 16.3983 30.2692C16.9502 29.8889 17.7805 29.8456 18.3933 30.1172ZM17.0798 31.4551C16.9148 31.6962 16.905 31.8225 16.9528 32.1094C17.07 32.3047 17.07 32.3047 17.2653 32.4219C17.5522 32.4697 17.6785 32.4599 17.9196 32.2949C18.0846 32.0537 18.0944 31.9275 18.0466 31.6406C17.9294 31.4453 17.9294 31.4453 17.7341 31.3281C17.4472 31.2803 17.321 31.2901 17.0798 31.4551Z" fill="white"/>
<path d="M34.9223 2.50003C35.0493 2.75882 35.0493 2.75882 35.0786 3.04691C34.9104 3.50725 34.5878 3.80356 34.2457 4.13974C34.1584 4.22691 34.1584 4.22691 34.0692 4.31583C33.9465 4.43803 33.8235 4.55995 33.7002 4.6816C33.511 4.86836 33.3227 5.05596 33.1345 5.24372C33.015 5.36243 32.8955 5.48109 32.776 5.5997C32.7195 5.65593 32.6629 5.71216 32.6046 5.77009C32.5522 5.82175 32.4998 5.87341 32.4458 5.92664C32.3997 5.97224 32.3535 6.01784 32.306 6.06483C32.0766 6.27289 31.8662 6.27719 31.5611 6.27109C31.4067 6.25003 31.4067 6.25003 31.2114 6.13284C31.0786 5.91147 31.0347 5.73543 31.0511 5.47653C31.2244 4.81692 32.1503 4.15811 32.6246 3.68099C32.7279 3.57678 32.8308 3.47223 32.9334 3.36734C33.083 3.21439 33.2336 3.0625 33.3845 2.9108C33.43 2.86401 33.4754 2.81722 33.5222 2.76901C33.9675 2.32603 34.3418 2.1316 34.9223 2.50003Z" fill="white"/>
<path d="M31.9951 7.45953C32.0817 7.45854 32.1682 7.45756 32.2574 7.45654C32.3505 7.45718 32.4436 7.45781 32.5396 7.45846C32.6355 7.45816 32.7314 7.45786 32.8302 7.45755C33.033 7.45734 33.2358 7.45792 33.4386 7.45922C33.7493 7.46089 34.0599 7.45924 34.3706 7.45724C34.5675 7.45745 34.7645 7.45785 34.9614 7.45846C35.0545 7.45783 35.1476 7.45719 35.2436 7.45654C35.3734 7.45802 35.3734 7.45802 35.5059 7.45953C35.5819 7.45978 35.658 7.46003 35.7364 7.46028C35.9944 7.51106 36.0877 7.61054 36.2505 7.81246C36.292 7.96871 36.292 7.96871 36.2896 8.12496C36.2908 8.20231 36.2908 8.20231 36.292 8.28121C36.2314 8.50928 36.1186 8.60103 35.938 8.74996C35.7364 8.78965 35.7364 8.78965 35.5059 8.7904C35.4193 8.79138 35.3327 8.79237 35.2436 8.79338C35.1505 8.79275 35.0574 8.79212 34.9614 8.79147C34.8175 8.79192 34.8175 8.79192 34.6707 8.79237C34.468 8.79259 34.2652 8.79201 34.0624 8.7907C33.7517 8.78903 33.4411 8.79069 33.1304 8.79269C32.9334 8.79248 32.7365 8.79208 32.5396 8.79147C32.4464 8.7921 32.3533 8.79273 32.2574 8.79338C32.1276 8.79191 32.1276 8.79191 31.9951 8.7904C31.919 8.79015 31.8429 8.7899 31.7646 8.78965C31.5066 8.73887 31.4133 8.63939 31.2505 8.43746C31.209 8.28121 31.209 8.28121 31.2114 8.12496C31.2102 8.04762 31.2102 8.04762 31.209 7.96871C31.3173 7.56111 31.6079 7.46079 31.9951 7.45953Z" fill="white"/>
<path d="M29.3755 -0.0390625C29.427 -0.0398682 29.4786 -0.0406738 29.5317 -0.0415039C29.7598 0.0190759 29.8515 0.131928 30.0005 0.3125C30.0401 0.514069 30.0401 0.514069 30.0409 0.744629C30.0419 0.831187 30.0429 0.917746 30.0439 1.00693C30.0432 1.10003 30.0426 1.19314 30.042 1.28906C30.0423 1.38499 30.0426 1.48091 30.0429 1.57974C30.0431 1.78253 30.0425 1.98532 30.0412 2.18811C30.0395 2.49883 30.0412 2.8094 30.0432 3.12012C30.043 3.31706 30.0426 3.514 30.042 3.71094C30.0426 3.80404 30.0432 3.89715 30.0439 3.99307C30.0429 4.07963 30.0419 4.16619 30.0409 4.25537C30.0405 4.3695 30.0405 4.3695 30.0401 4.48593C29.9894 4.74386 29.8899 4.83717 29.688 5C29.5317 5.0415 29.5317 5.0415 29.3755 5.03906C29.3239 5.03987 29.2723 5.04067 29.2192 5.0415C28.9911 4.98092 28.8994 4.86807 28.7505 4.6875C28.7108 4.48593 28.7108 4.48593 28.71 4.25537C28.709 4.16881 28.708 4.08225 28.707 3.99307C28.7077 3.89997 28.7083 3.80686 28.7089 3.71094C28.7086 3.61501 28.7084 3.51909 28.708 3.42026C28.7078 3.21747 28.7084 3.01468 28.7097 2.81189C28.7114 2.50117 28.7097 2.1906 28.7077 1.87988C28.7079 1.68294 28.7083 1.486 28.7089 1.28906C28.7083 1.19596 28.7077 1.10285 28.707 1.00693C28.708 0.920369 28.709 0.83381 28.71 0.744629C28.7103 0.668544 28.7105 0.592459 28.7108 0.514069C28.7812 0.156244 29.0111 -0.0447556 29.3755 -0.0390625Z" fill="white"/>
</g>
<defs>
<clipPath id="clip0_138_7702">
<rect width="40" height="40" fill="white"/>
</clipPath>
</defs>
</svg>
