<svg width="60" height="61" viewBox="0 0 60 61" fill="none" xmlns="http://www.w3.org/2000/svg">
<path d="M21.0431 2.18933C21.1567 2.18849 21.2703 2.18765 21.3874 2.18679C21.7631 2.18481 22.1387 2.18709 22.5144 2.18959C22.7753 2.18949 23.0363 2.1892 23.2972 2.18873C23.8442 2.1884 24.3911 2.19012 24.938 2.19333C25.6395 2.19733 26.3408 2.19662 27.0423 2.19443C27.5812 2.19319 28.12 2.19424 28.6589 2.196C28.9175 2.19661 29.1762 2.19655 29.4348 2.19582C29.7962 2.19518 30.1575 2.19756 30.5188 2.20077C30.626 2.20001 30.7331 2.19924 30.8435 2.19846C31.5635 2.20935 31.5635 2.20935 31.9368 2.4713C32.1122 2.73673 32.1864 2.90461 32.2365 3.21638C32.2538 3.31996 32.2711 3.42354 32.2889 3.53027C32.3069 3.65357 32.3249 3.77687 32.3435 3.90391C32.3663 4.05355 32.3891 4.20318 32.4126 4.35735C32.4947 4.90381 32.5717 5.45094 32.6483 5.99818C32.6769 6.20098 32.7055 6.40378 32.734 6.60658C32.7936 7.02997 32.8528 7.45341 32.9119 7.87687C32.9872 8.41649 33.0637 8.95594 33.1405 9.49536C33.1998 9.91362 33.2583 10.332 33.3166 10.7504C33.3444 10.9492 33.3725 11.148 33.401 11.3467C33.7983 14.13 33.7983 14.13 33.4407 14.822C32.797 15.1727 32.1468 15.0975 31.4279 15.0733C31.2797 15.0707 31.1314 15.0681 30.9786 15.0653C30.6132 15.0584 30.2479 15.0479 29.8825 15.0367C29.8825 15.7715 29.8825 16.5063 29.8825 17.2633C30.0807 17.2578 30.2789 17.2524 30.4831 17.2468C32.8323 17.201 34.6251 17.5118 36.6794 18.6695C36.7779 18.7235 36.8764 18.7774 36.9779 18.833C39.0556 20.088 40.4999 22.3275 41.1058 24.6397C41.4029 25.9497 41.4123 27.2182 41.4012 28.5568C41.4006 28.7934 41.4001 29.0299 41.3997 29.2665C41.3984 29.8832 41.395 30.4998 41.391 31.1165C41.3874 31.7482 41.3858 32.3798 41.3841 33.0115C41.3803 34.2465 41.3743 35.4814 41.3669 36.7164C41.475 36.7399 41.475 36.7399 41.5854 36.7638C41.6801 36.7846 41.7748 36.8053 41.8724 36.8267C41.9663 36.8472 42.0601 36.8677 42.1568 36.8888C44.5428 37.4475 46.7546 39.3866 48.0466 41.4039C49.5754 44.0036 50.2057 47.115 49.5041 50.0904C48.7192 53.07 46.8512 55.5331 44.2307 57.1331C41.6063 58.6566 38.4988 58.9647 35.5805 58.2234C34.3499 57.8822 32.9659 57.3501 32.0314 56.4574C31.625 56.1188 31.3085 56.0965 30.7767 56.097C30.6923 56.0963 30.6079 56.0955 30.5209 56.0948C30.2394 56.093 29.958 56.0954 29.6765 56.0978C29.4742 56.0974 29.2718 56.0967 29.0694 56.0958C28.6344 56.0944 28.1993 56.0948 27.7642 56.0966C27.0763 56.0995 26.3885 56.0981 25.7005 56.0962C24.4888 56.0933 23.277 56.094 22.0652 56.0955C20.2404 56.0976 18.4155 56.0971 16.5907 56.0931C15.9068 56.0918 15.2229 56.0923 14.539 56.0943C14.1138 56.0952 13.6885 56.0947 13.2633 56.0939C13.0661 56.0938 12.8688 56.0943 12.6716 56.0954C12.4024 56.0969 12.1333 56.0963 11.8641 56.0951C11.7134 56.0954 11.5628 56.0956 11.4076 56.0958C10.986 56.0491 10.7649 55.9555 10.4294 55.7008C10.2945 55.431 10.2973 55.2792 10.2968 54.9791C10.2961 54.825 10.2961 54.825 10.2955 54.6678C10.2956 54.5543 10.2957 54.4407 10.2958 54.3237C10.2954 54.2036 10.2951 54.0835 10.2947 53.9597C10.2937 53.5545 10.2935 53.1494 10.2933 52.7442C10.2928 52.4547 10.2922 52.1653 10.2916 51.8758C10.29 51.0871 10.2893 50.2985 10.2888 49.5098C10.2884 49.0169 10.2879 48.5241 10.2874 48.0313C10.286 46.6659 10.2848 45.3005 10.2844 43.9351C10.2844 43.8477 10.2843 43.7602 10.2843 43.6701C10.2843 43.5825 10.2842 43.4948 10.2842 43.4045C10.2842 43.2269 10.2841 43.0493 10.2841 42.8717C10.284 42.7836 10.284 42.6955 10.284 42.6047C10.2835 41.18 10.2815 39.7553 10.2787 38.3307C10.276 36.8669 10.2745 35.403 10.2744 33.9392C10.2743 33.1178 10.2736 32.2964 10.2715 31.475C10.2695 30.7013 10.2693 29.9276 10.2703 29.1539C10.2704 28.8707 10.2699 28.5876 10.2687 28.3045C10.2563 25.0887 10.8945 22.4033 13.1655 20.0204C14.8468 18.4183 17.1233 17.2402 19.4849 17.2518C19.6201 17.2522 19.7553 17.2526 19.8946 17.253C20.034 17.254 20.1734 17.255 20.3171 17.256C20.5303 17.2568 20.5303 17.2568 20.7479 17.2576C21.0974 17.2589 21.447 17.261 21.7966 17.2633C21.7966 16.5285 21.7966 15.7938 21.7966 15.0367C21.4642 15.0449 21.4642 15.0449 21.1251 15.0532C20.8338 15.0576 20.5425 15.0619 20.2512 15.066C20.1052 15.0699 19.9592 15.0739 19.8088 15.0779C19.5975 15.0802 19.5975 15.0802 19.3819 15.0825C19.1877 15.0862 19.1877 15.0862 18.9895 15.0899C18.5358 15.0223 18.3524 14.9092 18.0466 14.568C17.8959 13.9054 17.9544 13.3254 18.0485 12.6634C18.0696 12.5052 18.0696 12.5052 18.0912 12.3438C18.1379 11.997 18.1862 11.6506 18.2347 11.3041C18.268 11.0624 18.3012 10.8206 18.3343 10.5788C18.404 10.073 18.4746 9.56728 18.5457 9.06165C18.6367 8.41397 18.7249 7.76595 18.8124 7.11779C18.8801 6.61876 18.9496 6.11998 19.0196 5.62126C19.0529 5.38241 19.0855 5.14347 19.1176 4.90445C19.1625 4.57041 19.2099 4.23679 19.2579 3.90317C19.2707 3.80465 19.2834 3.70614 19.2965 3.60464C19.4706 2.43839 19.9072 2.17481 21.0431 2.18933ZM21.3278 4.13829C21.1997 5.01566 21.0716 5.89302 20.9397 6.79698C20.9 7.06824 20.8604 7.3395 20.8196 7.61898C20.7506 8.0913 20.682 8.56368 20.6134 9.03607C20.5441 9.51388 20.4736 9.99149 20.4021 10.469C20.3696 10.6886 20.3372 10.9082 20.3047 11.1279C20.2896 11.2269 20.2745 11.326 20.259 11.428C20.2454 11.5211 20.2317 11.6142 20.2177 11.7101C20.2057 11.79 20.1937 11.8699 20.1814 11.9523C20.1475 12.3149 20.156 12.6803 20.156 13.0445C23.9071 13.0445 27.6583 13.0445 31.5232 13.0445C31.3855 11.7369 31.2472 10.4393 31.0608 9.13935C31.0426 9.01029 31.0244 8.88122 31.0057 8.74824C30.9393 8.27842 30.8723 7.8087 30.8054 7.33897C30.6555 6.28274 30.5057 5.22652 30.3513 4.13829C27.3735 4.13829 24.3958 4.13829 21.3278 4.13829ZM23.7888 15.0367C23.7888 15.7715 23.7888 16.5063 23.7888 17.2633C25.1423 17.2633 26.4958 17.2633 27.8903 17.2633C27.8903 16.5285 27.8903 15.7938 27.8903 15.0367C26.5368 15.0367 25.1833 15.0367 23.7888 15.0367ZM14.0554 22.0932C12.5372 23.9089 12.2503 25.9116 12.2645 28.1925C12.2646 28.4179 12.2645 28.6432 12.2643 28.8685C12.2642 29.4764 12.2663 30.0843 12.2688 30.6921C12.271 31.3288 12.2712 31.9655 12.2716 32.6023C12.2727 33.8062 12.2756 35.0102 12.2791 36.2141C12.2838 37.8423 12.2857 39.4704 12.2877 41.0985C12.291 43.6613 12.298 46.224 12.3044 48.7867C17.3317 48.7867 22.3591 48.7867 27.5388 48.7867C27.5388 48.168 27.5388 47.5492 27.5388 46.9117C27.7174 43.8408 29.0397 41.0586 31.3292 38.9899C33.2707 37.3469 35.7339 36.5255 38.2468 36.4161C38.3554 36.4111 38.464 36.406 38.5759 36.4008C38.8422 36.3884 39.1084 36.3765 39.3747 36.3648C39.3856 35.0852 39.3939 33.8056 39.399 32.526C39.4014 31.9316 39.4047 31.3372 39.4101 30.7429C39.4152 30.1677 39.418 29.5925 39.4192 29.0173C39.42 28.7994 39.4217 28.5816 39.4243 28.3638C39.4535 25.7662 38.9643 23.4752 37.1296 21.5417C35.8226 20.2448 33.9896 19.2478 32.1159 19.2382C32.0022 19.2374 31.8886 19.2365 31.7715 19.2357C31.5865 19.2352 31.5865 19.2352 31.3978 19.2347C31.2668 19.234 31.1358 19.2332 31.0008 19.2324C30.5673 19.2301 30.1338 19.2287 29.7003 19.2276C29.5518 19.2271 29.4033 19.2266 29.2502 19.2261C28.5444 19.2239 27.8385 19.2222 27.1327 19.2212C26.3222 19.2201 25.5118 19.217 24.7014 19.2123C23.9962 19.2083 23.2909 19.2069 22.5857 19.2064C22.2875 19.2059 21.9894 19.2045 21.6912 19.2023C18.5421 19.1807 16.2589 19.7223 14.0554 22.0932ZM32.695 40.4664C32.579 40.5534 32.463 40.6404 32.3435 40.7301C30.6412 42.1832 29.7006 44.4244 29.4385 46.605C29.3725 47.7376 29.4715 48.8617 29.7653 49.9586C29.7943 49.8837 29.8233 49.8087 29.8532 49.7315C29.9997 49.4898 29.9997 49.4898 30.2003 49.4167C30.5231 49.3637 30.8289 49.3619 31.156 49.3644C31.3552 49.3626 31.3552 49.3626 31.5584 49.3608C31.8367 49.3589 32.1151 49.3598 32.3934 49.3635C33.12 49.3638 33.12 49.3638 33.7723 49.0867C33.9699 48.876 34.1035 48.6998 34.2185 48.4352C34.2244 48.1001 34.2244 48.1001 34.1013 47.8492C33.8847 47.861 33.8847 47.861 33.6637 47.873C31.9349 47.9103 31.9349 47.9103 31.2209 47.2552C30.7443 46.7563 30.3798 46.3485 30.3513 45.6227C30.4846 45.3499 30.6054 45.1342 30.82 44.9195C31.2531 44.8488 31.5315 44.8442 31.899 45.0985C32.1337 45.3053 32.3586 45.5168 32.5778 45.7398C32.699 45.8874 32.699 45.8874 32.9628 45.8685C33.0702 45.8671 33.1776 45.8658 33.2883 45.8644C33.396 45.8633 33.5037 45.8622 33.6147 45.8612C33.6979 45.8598 33.7811 45.8584 33.8669 45.857C33.81 45.7335 33.81 45.7335 33.752 45.6076C33.5078 44.9199 33.539 44.1505 33.7644 43.462C34.1088 42.9913 34.4746 42.6466 35.0388 42.4586C35.7388 42.4113 36.3772 42.4103 37.031 42.693C37.1001 42.2087 37.1514 41.8033 36.8524 41.3938C36.7063 41.2525 36.5561 41.1153 36.4015 40.9832C36.2107 40.818 36.2107 40.818 36.0935 40.5836C36.0406 39.7517 36.0406 39.7517 36.2107 39.4117C36.6071 39.2135 36.9606 39.1891 37.3825 39.2945C37.7427 39.5249 38.0305 39.8017 38.32 40.1148C38.424 40.2176 38.5279 40.3203 38.635 40.4261C39.0091 40.8806 38.9971 41.3479 39.0012 41.9166C39.0041 42.014 39.0071 42.1115 39.0101 42.2119C39.017 42.4503 39.0204 42.6888 39.0232 42.9273C39.3393 43.0487 39.3393 43.0487 39.7263 43.0445C40.1006 42.81 40.2316 42.7182 40.4294 42.3414C40.5195 41.811 40.5118 41.2889 40.5026 40.7521C40.4996 40.4687 40.4987 40.1853 40.4999 39.902C40.4969 39.7145 40.4969 39.7145 40.4938 39.5232C40.5589 39.097 40.7248 38.9023 41.0153 38.5914C38.0662 37.9007 35.0285 38.4835 32.695 40.4664ZM42.3044 39.1773C42.3044 40.4922 42.3044 41.807 42.3044 43.1617C43.5945 43.191 43.5945 43.191 44.8847 43.2177C45.0469 43.2219 45.2092 43.2261 45.3714 43.2304C45.4551 43.2317 45.5387 43.2331 45.6248 43.2344C46.0577 43.247 46.3889 43.2756 46.7575 43.5133C46.2585 41.7498 44.6391 40.4314 43.1407 39.4996C42.7709 39.2723 42.7709 39.2723 42.3044 39.1773ZM46.7575 43.5133C46.8747 43.7477 46.8747 43.7477 46.8747 43.7477L46.7575 43.5133ZM46.8747 43.7477C46.8619 43.8211 46.849 43.8945 46.8358 43.9701C46.8079 44.1138 46.8079 44.1138 46.7795 44.2604C46.753 44.4031 46.753 44.4031 46.7259 44.5487C46.6403 44.8023 46.6403 44.8023 46.2888 45.0367C45.9514 45.0704 45.9514 45.0704 45.5449 45.077C45.3991 45.0805 45.2532 45.084 45.1029 45.0875C44.7944 45.0927 44.4859 45.0979 44.1773 45.1031C43.9588 45.1083 43.9588 45.1083 43.7358 45.1136C43.5348 45.1169 43.5348 45.1169 43.3298 45.1203C42.9908 45.1215 42.9908 45.1215 42.7732 45.3883C42.7951 45.8366 42.7951 45.8366 43.0075 46.2086C43.4444 46.2027 43.8797 46.1854 44.3163 46.1669C45.0453 46.2346 45.4699 46.6461 45.9665 47.1534C46.0445 47.2321 46.1224 47.3108 46.2027 47.3919C46.6074 47.8358 46.6884 48.1065 46.6683 48.6842C46.6403 48.9039 46.6403 48.9039 46.5232 49.1383C46.1273 49.3362 45.7724 49.3632 45.3513 49.2555C44.9991 49.0186 44.7076 48.7401 44.4138 48.4352C44.2081 48.1814 44.2081 48.1814 43.9597 48.1738C43.8775 48.1754 43.7953 48.1771 43.7107 48.1788C43.5874 48.1799 43.5874 48.1799 43.4616 48.1811C43.2313 48.1882 43.2313 48.1882 43.0075 48.318C42.9319 48.5106 42.8649 48.7066 42.8024 48.9039C42.3781 50.0996 41.7865 50.8656 40.6638 51.482C40.2406 51.6628 39.8146 51.8161 39.3747 51.9508C39.3061 52.4308 39.2539 52.839 39.5491 53.2458C39.6928 53.3847 39.8406 53.5195 39.9927 53.6491C40.2451 53.8695 40.4122 54.0668 40.4647 54.4044C40.4682 55.0372 40.4682 55.0372 40.3122 55.3492C39.9156 55.5475 39.5626 55.5708 39.1403 55.4664C38.7775 55.2388 38.4997 54.9524 38.2028 54.6461C38.1232 54.581 38.0436 54.5159 37.9616 54.4488C37.551 54.0779 37.367 53.7851 37.3317 53.2321C37.323 52.7638 37.3468 52.3004 37.3825 51.8336C37.041 51.6362 37.041 51.6362 36.6574 51.6358C36.446 51.6994 36.446 51.6994 36.3278 51.8336C36.3136 52.0709 36.3068 52.3086 36.3031 52.5463C36.2998 52.6919 36.2965 52.8374 36.2931 52.9874C36.287 53.2959 36.2818 53.6044 36.2775 53.913C36.2739 54.059 36.2702 54.205 36.2665 54.3554C36.2642 54.4897 36.2619 54.624 36.2595 54.7623C36.2064 55.1457 36.1287 55.3104 35.8591 55.5836C35.594 55.655 35.594 55.655 35.3098 55.6715C35.2151 55.6781 35.1203 55.6848 35.0228 55.6916C34.9507 55.6947 34.8786 55.6977 34.8044 55.7008C36.4662 56.8087 38.7781 56.7657 40.6638 56.4039C42.4738 55.9892 43.9542 55.0188 45.2341 53.7086C45.3206 53.6245 45.4072 53.5403 45.4964 53.4536C46.6219 52.2932 47.2224 50.8099 47.5778 49.2555C47.6002 49.1671 47.6226 49.0787 47.6456 48.9877C47.9224 47.2061 47.6883 45.404 46.9919 43.7477C46.9532 43.7477 46.9146 43.7477 46.8747 43.7477ZM36.4716 45.9999C36.0734 46.5781 35.9054 47.1783 36.0189 47.8771C36.2578 48.7259 36.7601 49.3511 37.4924 49.8341C38.2634 50.1016 38.8292 50.1405 39.5889 49.8497C40.2617 49.5181 40.751 49.0383 41.0552 48.3496C41.2559 47.6594 41.241 46.9494 40.9494 46.2892C40.5599 45.6165 39.9931 45.1618 39.2575 44.9195C38.0502 44.7643 37.2351 45.0615 36.4716 45.9999ZM12.3044 50.7789C12.3044 51.8617 12.3044 52.9445 12.3044 54.0602C18.0278 54.0602 23.7513 54.0602 29.6482 54.0602C29.3388 53.5188 29.0294 52.9773 28.7107 52.4195C28.4786 51.8781 28.2466 51.3367 28.0075 50.7789C22.8255 50.7789 17.6435 50.7789 12.3044 50.7789ZM30.3513 51.2477C30.6201 52.0541 31.0071 52.577 31.5232 53.2398C31.5874 53.3238 31.6516 53.4078 31.7177 53.4944C32.4659 54.4135 33.5011 55.1896 34.57 55.7008C34.6474 55.6621 34.7247 55.6234 34.8044 55.5836C34.7476 55.5443 34.6909 55.505 34.6324 55.4644C34.3623 55.1148 34.3966 54.7509 34.3929 54.3261C34.3909 54.2481 34.389 54.1702 34.387 54.0898C34.3802 53.7992 34.3764 53.5085 34.3723 53.2179C34.3602 52.5677 34.3481 51.9175 34.3357 51.2477C33.0208 51.2477 31.706 51.2477 30.3513 51.2477Z" fill="#299B46"/>
<path d="M27.8911 5.92581C28.5606 6.43479 28.9422 7.14056 29.1326 7.95325C29.2652 8.93304 29.0896 9.78184 28.5329 10.6014C28.0669 11.1842 27.4641 11.7166 26.7188 11.8731C25.4555 12.0027 24.5694 11.867 23.552 11.1109C22.8744 10.5177 22.5848 9.75456 22.4557 8.87564C22.4081 7.90067 22.7405 7.07401 23.3497 6.32132C24.578 5.01374 26.4265 5.01221 27.8911 5.92581ZM24.8438 7.65433C24.569 8.05735 24.491 8.28526 24.4996 8.77493C24.619 9.2127 24.7643 9.44027 25.0782 9.7637C25.4533 9.95127 25.8421 9.92247 26.2501 9.88089C26.6988 9.71136 26.8156 9.56355 27.063 9.14847C27.2122 8.62189 27.1694 8.38691 26.9532 7.8887C26.7482 7.57712 26.6006 7.45149 26.24 7.35358C25.6756 7.26451 25.2867 7.25055 24.8438 7.65433Z" fill="#299B46"/>
<path d="M15.2345 32.981C15.3142 32.9886 15.394 32.9961 15.4762 33.0039C15.797 33.1164 15.8814 33.2615 16.0548 33.5523C16.1002 33.8947 16.1002 33.8947 16.1021 34.2973C16.1036 34.4483 16.1051 34.5992 16.1066 34.7548C16.1064 34.9191 16.106 35.0835 16.1056 35.2479C16.1061 35.4169 16.1068 35.5858 16.1075 35.7548C16.1085 36.1087 16.1082 36.4625 16.1071 36.8163C16.1057 37.2695 16.1081 37.7226 16.1115 38.1758C16.1136 38.5247 16.1136 38.8735 16.1129 39.2224C16.1129 39.3894 16.1136 39.5565 16.1151 39.7236C16.1168 39.9572 16.1153 40.1909 16.1136 40.4245C16.1136 40.5573 16.1135 40.6902 16.1135 40.8271C16.042 41.2439 15.9152 41.3814 15.586 41.6382C15.1473 41.7471 14.7582 41.6973 14.3629 41.4844C14.0187 41.1127 14.0468 40.7303 14.0437 40.2483C14.0426 40.1071 14.0415 39.9659 14.0403 39.8204C14.0398 39.6677 14.0393 39.515 14.0388 39.3577C14.0381 39.1993 14.0374 39.0409 14.0368 38.8826C14.0355 38.5506 14.0349 38.2186 14.0344 37.8866C14.0338 37.462 14.031 37.0374 14.0277 36.6127C14.0255 36.2856 14.0249 35.9584 14.0247 35.6313C14.0242 35.3988 14.022 35.1664 14.0198 34.9339C14.0201 34.792 14.0205 34.6501 14.0208 34.5038C14.0204 34.3792 14.02 34.2546 14.0195 34.1262C14.0694 33.733 14.179 33.5174 14.4142 33.2007C14.7796 32.9571 14.8287 32.9334 15.2345 32.981Z" fill="#299B46"/>
<path d="M15.8207 28.3968C16.1374 28.8719 16.0981 29.2381 16.099 29.7958C16.1019 29.8909 16.1047 29.9859 16.1077 30.0839C16.1099 30.5332 16.1095 30.7798 15.8472 31.1553C15.4442 31.4198 15.1146 31.4069 14.6488 31.3265C14.2696 31.1223 14.2007 31.0368 14.0629 30.6234C14.0457 30.3552 14.037 30.0864 14.0336 29.8177C14.029 29.6043 14.029 29.6043 14.0244 29.3865C14.0656 28.9536 14.1541 28.7404 14.4144 28.3968C14.9214 28.0729 15.2792 28.1823 15.8207 28.3968Z" fill="#299B46"/>
</svg>
