<svg width="40" height="40" viewBox="0 0 40 40" fill="none" xmlns="http://www.w3.org/2000/svg">
<g clip-path="url(#clip0_136_664)">
<path d="M7.556 25.1656C7.49584 25.109 7.42507 25.0649 7.34777 25.0359C7.27047 25.0068 7.18818 24.9934 7.10565 24.9963C7.02313 24.9993 6.942 25.0185 6.86696 25.053C6.79193 25.0875 6.72446 25.1365 6.66847 25.1972C6.61248 25.2579 6.56907 25.3291 6.54076 25.4066C6.51244 25.4842 6.49978 25.5666 6.5035 25.6491C6.50723 25.7316 6.52726 25.8125 6.56244 25.8872C6.59763 25.9619 6.64727 26.0289 6.7085 26.0843C7.81909 27.1342 8.767 28.3438 9.521 29.6731C11.9516 33.8818 11.9485 37.6543 10.421 38.5356C8.8935 39.4168 5.62475 37.5343 3.19475 33.325C2.13919 31.5852 1.48121 29.6337 1.26788 27.61C1.15975 26.0475 1.53475 24.9018 2.29475 24.4631C3.05475 24.0243 4.03475 24.3381 4.72475 24.6743C4.79875 24.7141 4.88 24.7386 4.96366 24.7462C5.04732 24.7539 5.13167 24.7446 5.21166 24.719C5.29165 24.6933 5.36565 24.6518 5.42922 24.5968C5.4928 24.5419 5.54465 24.4748 5.58169 24.3993C5.61872 24.3239 5.64017 24.2418 5.64475 24.158C5.64933 24.0741 5.63696 23.9901 5.60837 23.9111C5.57977 23.8321 5.53555 23.7597 5.47834 23.6982C5.42112 23.6367 5.35209 23.5873 5.27537 23.5531C3.89538 22.875 2.65038 22.8156 1.66975 23.38C0.46225 24.0768 -0.12525 25.61 0.0210001 27.6962C0.247741 29.9096 0.9617 32.0453 2.11163 33.95C4.24975 37.6568 7.24975 39.9962 9.57537 39.9956C10.0897 40.003 10.5968 39.8736 11.0448 39.6206C13.4248 38.2456 13.2323 33.6031 10.6029 29.05C9.78591 27.611 8.759 26.3018 7.556 25.1656Z" fill="white"/>
<path d="M2.676 25.8881C2.2935 26.7875 2.39038 29.4325 4.27663 32.7006C6.17163 35.9825 8.36913 37.3625 9.38413 37.4894C9.41005 37.4926 9.43613 37.4942 9.46225 37.4944C9.58437 37.4943 9.70379 37.4584 9.80575 37.3912C9.90772 37.324 9.98776 37.2284 10.036 37.1162C10.4216 36.2187 10.3291 33.575 8.43788 30.2987C6.55913 27.0487 4.35788 25.655 3.33663 25.5144C3.20083 25.4962 3.0628 25.5228 2.94355 25.5903C2.8243 25.6578 2.73036 25.7623 2.676 25.8881ZM7.35538 30.9231C8.32162 32.4568 8.87792 34.2128 8.971 36.0231C7.44448 35.0434 6.19979 33.6826 5.35975 32.075C4.39378 30.5415 3.83769 28.7856 3.74475 26.9756C5.27245 27.9535 6.51732 29.3145 7.35538 30.9231Z" fill="white"/>
<path d="M38.3299 23.38C35.9499 22.005 32.0256 24.4956 29.3968 29.0481C26.7681 33.6006 26.5749 38.2437 28.9549 39.6187C29.4028 39.8718 29.9099 40.0012 30.4243 39.9937C32.7493 39.9937 35.748 37.6543 37.8881 33.9481C39.038 32.0434 39.7519 29.9077 39.9787 27.6943C40.1249 25.61 39.5374 24.0768 38.3299 23.38ZM38.7318 27.61C38.5185 29.6337 37.8605 31.5852 36.8049 33.325C34.3749 37.5343 31.1074 39.4187 29.5799 38.5356C28.0524 37.6525 28.0493 33.8818 30.4799 29.6731C32.9106 25.4643 36.1781 23.5806 37.7049 24.4631C38.4649 24.9018 38.8399 26.0487 38.7318 27.61Z" fill="white"/>
<path d="M36.669 25.51C35.654 25.635 33.4565 27.0169 31.5621 30.2981C29.6677 33.5794 29.5777 36.2181 29.9634 37.1156C30.0116 37.2278 30.0916 37.3234 30.1936 37.3906C30.2956 37.4578 30.415 37.4937 30.5371 37.4937C30.5632 37.4936 30.5893 37.4919 30.6152 37.4887C31.6296 37.3637 33.8271 35.9825 35.7227 32.7C37.6184 29.4175 37.7065 26.7806 37.3209 25.8831C37.2673 25.7587 37.1748 25.655 37.0572 25.5877C36.9397 25.5204 36.8034 25.4931 36.669 25.51ZM34.6396 32.0725C33.7998 33.6803 32.5551 35.0411 31.0284 36.0206C31.1214 34.2102 31.678 32.4541 32.6446 30.9206C33.4846 29.3131 34.7293 27.9525 36.2559 26.9731C36.1633 28.7841 35.6067 30.541 34.6396 32.075V32.0725Z" fill="white"/>
<path d="M30.4625 25.4137C30.5168 25.3522 30.5585 25.2805 30.5852 25.2029C30.6118 25.1252 30.6229 25.0431 30.6178 24.9611C30.6127 24.8792 30.5915 24.799 30.5554 24.7253C30.5193 24.6515 30.4691 24.5856 30.4075 24.5312C30.3459 24.4769 30.2743 24.4352 30.1966 24.4086C30.119 24.382 30.0368 24.3709 29.9549 24.376C29.8729 24.3811 29.7928 24.4023 29.719 24.4384C29.6453 24.4744 29.5793 24.5247 29.525 24.5863C28.6563 25.5784 27.8882 26.6543 27.2319 27.7981C25.8752 30.0309 25.0451 32.5435 24.8044 35.145C23.3063 35.8694 21.6637 36.2456 19.9997 36.2456C18.3356 36.2456 16.6931 35.8694 15.195 35.145C14.9546 32.5435 14.1246 30.031 12.7681 27.7981C11.0625 24.84 8.75625 22.5062 6.40312 21.3381C6.30203 20.4791 6.2509 19.6149 6.25 18.75C6.25 8.89437 13.6413 1.25 20 1.25C26.3587 1.25 33.75 8.89437 33.75 18.75C33.7491 19.6149 33.698 20.4791 33.5969 21.3381C32.8793 21.699 32.201 22.1334 31.5731 22.6344C31.5064 22.6844 31.4503 22.7472 31.4083 22.8192C31.3662 22.8912 31.3389 22.9708 31.3281 23.0535C31.3173 23.1362 31.3231 23.2202 31.3453 23.3006C31.3674 23.381 31.4054 23.4561 31.4571 23.5216C31.5087 23.5871 31.5729 23.6415 31.6459 23.6818C31.7189 23.7221 31.7992 23.7474 31.8822 23.7561C31.9651 23.7649 32.0489 23.757 32.1287 23.7328C32.2085 23.7087 32.2827 23.6689 32.3469 23.6156C32.9867 23.1028 33.6867 22.6698 34.4312 22.3263C34.5282 22.2825 34.6124 22.2147 34.6759 22.1292C34.7393 22.0438 34.7799 21.9436 34.7937 21.8381C34.9302 20.8144 34.9991 19.7828 35 18.75C35 8.1875 26.9375 0 20 0C13.0625 0 5 8.1875 5 18.75C5.00091 19.7828 5.06981 20.8144 5.20625 21.8381C5.22013 21.9436 5.26071 22.0438 5.32414 22.1292C5.38758 22.2147 5.47177 22.2825 5.56875 22.3263C7.79875 23.33 10.0275 25.5525 11.685 28.4231C13.0121 30.583 13.7944 33.0332 13.9644 35.5625C13.9679 35.674 14.0013 35.7826 14.0609 35.8769C14.1206 35.9712 14.2045 36.0478 14.3038 36.0988C16.0613 37.0196 18.0158 37.5006 20 37.5006C21.9841 37.5006 23.9387 37.0196 25.6962 36.0988C25.7955 36.0478 25.8794 35.9712 25.9391 35.8769C25.9987 35.7826 26.0321 35.674 26.0356 35.5625C26.2049 33.0334 26.9863 30.5833 28.3125 28.4231C28.9278 27.3513 29.648 26.3432 30.4625 25.4137Z" fill="white"/>
<path d="M29.375 21.25C29.5408 21.25 29.6997 21.1842 29.8169 21.0669C29.9342 20.9497 30 20.7908 30 20.625V18.125C30 10.765 25.6075 5 20 5C14.3925 5 10 10.765 10 18.125V20.625C10 20.7908 10.0658 20.9497 10.1831 21.0669C10.3003 21.1842 10.4592 21.25 10.625 21.25C10.7908 21.25 10.9497 21.1842 11.0669 21.0669C11.1842 20.9497 11.25 20.7908 11.25 20.625V18.125C11.25 11.5769 15.175 6.25 20 6.25C24.825 6.25 28.75 11.5769 28.75 18.125V20.625C28.75 20.7908 28.8158 20.9497 28.9331 21.0669C29.0503 21.1842 29.2092 21.25 29.375 21.25Z" fill="white"/>
<path d="M22.5 11.25C22.6658 11.25 22.8247 11.1842 22.9419 11.0669C23.0592 10.9497 23.125 10.7908 23.125 10.625C23.125 10.4592 23.0592 10.3003 22.9419 10.1831C22.8247 10.0658 22.6658 10 22.5 10H17.5C17.3342 10 17.1753 10.0658 17.0581 10.1831C16.9408 10.3003 16.875 10.4592 16.875 10.625C16.875 10.7908 16.9408 10.9497 17.0581 11.0669C17.1753 11.1842 17.3342 11.25 17.5 11.25H22.5Z" fill="white"/>
<path d="M15 14.375C15 14.5408 15.0658 14.6997 15.1831 14.8169C15.3003 14.9342 15.4592 15 15.625 15H24.375C24.5408 15 24.6997 14.9342 24.8169 14.8169C24.9342 14.6997 25 14.5408 25 14.375C25 14.2092 24.9342 14.0503 24.8169 13.9331C24.6997 13.8158 24.5408 13.75 24.375 13.75H15.625C15.4592 13.75 15.3003 13.8158 15.1831 13.9331C15.0658 14.0503 15 14.2092 15 14.375Z" fill="white"/>
<path d="M26.875 18.125C26.875 17.9592 26.8092 17.8003 26.6919 17.6831C26.5747 17.5658 26.4158 17.5 26.25 17.5H13.75C13.5842 17.5 13.4253 17.5658 13.3081 17.6831C13.1908 17.8003 13.125 17.9592 13.125 18.125C13.125 18.2908 13.1908 18.4497 13.3081 18.5669C13.4253 18.6842 13.5842 18.75 13.75 18.75H26.25C26.4158 18.75 26.5747 18.6842 26.6919 18.5669C26.8092 18.4497 26.875 18.2908 26.875 18.125Z" fill="white"/>
<path d="M15.625 29.375C15.625 30.2403 15.8816 31.0862 16.3623 31.8056C16.8431 32.5251 17.5263 33.0858 18.3258 33.417C19.1252 33.7481 20.0049 33.8347 20.8535 33.6659C21.7022 33.4971 22.4817 33.0804 23.0936 32.4686C23.7054 31.8567 24.1221 31.0772 24.2909 30.2285C24.4597 29.3799 24.3731 28.5002 24.042 27.7008C23.7108 26.9013 23.1501 26.2181 22.4306 25.7373C21.7112 25.2566 20.8653 25 20 25C18.8401 25.0013 17.7281 25.4627 16.9079 26.2829C16.0877 27.1031 15.6263 28.2151 15.625 29.375ZM23.125 29.375C23.125 29.9931 22.9417 30.5973 22.5983 31.1112C22.255 31.6251 21.7669 32.0256 21.1959 32.2621C20.6249 32.4986 19.9965 32.5605 19.3903 32.44C18.7842 32.3194 18.2273 32.0217 17.7903 31.5847C17.3533 31.1477 17.0556 30.5908 16.935 29.9847C16.8145 29.3785 16.8764 28.7501 17.1129 28.1791C17.3494 27.6081 17.7499 27.12 18.2638 26.7767C18.7777 26.4333 19.3819 26.25 20 26.25C20.8285 26.251 21.6228 26.5806 22.2086 27.1664C22.7944 27.7522 23.124 28.5465 23.125 29.375Z" fill="white"/>
</g>
<defs>
<clipPath id="clip0_136_664">
<rect width="40" height="40" fill="white"/>
</clipPath>
</defs>
</svg>
