<svg width="16" height="16" viewBox="0 0 16 16" fill="none" xmlns="http://www.w3.org/2000/svg">
<g clip-path="url(#clip0_117_138)">
<path d="M3.20745 1.29759L1.9902 2.51484C0.993809 3.51123 0.720004 5.02117 1.3031 6.30397C2.99413 10.0242 5.97576 13.0059 9.69603 14.6969C10.9788 15.28 12.4888 15.0062 13.4852 14.0098L14.7024 12.7925C15.0992 12.3958 15.0992 11.7525 14.7024 11.3557L13.0649 9.71819C12.7557 9.40896 12.2833 9.33229 11.8921 9.52787L10.9834 9.98225C10.201 10.3734 9.2562 10.2201 8.63773 9.60161L6.39839 7.36227C5.77992 6.7438 5.6266 5.79896 6.01775 5.01664L6.47213 4.10789C6.66771 3.71673 6.59104 3.24431 6.28181 2.93507L4.64432 1.29759C4.24754 0.900805 3.60423 0.900805 3.20745 1.29759Z" stroke="white" stroke-linejoin="round"/>
</g>
<defs>
<clipPath id="clip0_117_138">
<rect width="16" height="16" fill="white"/>
</clipPath>
</defs>
</svg>
