<svg width="30" height="30" viewBox="0 0 30 30" fill="none" xmlns="http://www.w3.org/2000/svg">
<g clip-path="url(#clip0_110_215)">
<path d="M22.7414 16.0046C22.6348 15.9405 22.5072 15.9215 22.3866 15.9515C22.266 15.9816 22.1623 16.0583 22.0982 16.1649L20.692 18.5086C20.659 18.5614 20.6368 18.6202 20.6267 18.6817C20.6167 18.7431 20.619 18.806 20.6335 18.8665C20.648 18.9271 20.6745 18.9841 20.7113 19.0344C20.7481 19.0846 20.7945 19.127 20.8479 19.1591C20.9013 19.1911 20.9605 19.2122 21.0221 19.2212C21.0838 19.2301 21.1466 19.2267 21.2068 19.2111C21.2671 19.1955 21.3237 19.168 21.3732 19.1303C21.4228 19.0926 21.4643 19.0454 21.4954 18.9914L22.9017 16.6477C22.9657 16.5411 22.9848 16.4135 22.9547 16.2929C22.9246 16.1723 22.8479 16.0686 22.7414 16.0046Z" fill="white"/>
<path d="M21.4251 15.1374C21.3372 15.0495 21.2179 15.0001 21.0937 15.0001C20.9694 15.0001 20.8501 15.0495 20.7622 15.1374L18.4185 17.4811C18.3737 17.5244 18.338 17.5761 18.3134 17.6333C18.2889 17.6905 18.2759 17.752 18.2754 17.8142C18.2749 17.8764 18.2867 17.9382 18.3103 17.9958C18.3339 18.0534 18.3687 18.1057 18.4127 18.1497C18.4567 18.1938 18.509 18.2286 18.5666 18.2521C18.6242 18.2757 18.686 18.2876 18.7482 18.287C18.8105 18.2865 18.872 18.2735 18.9292 18.249C18.9863 18.2244 19.0381 18.1887 19.0813 18.1439L21.4251 15.8002C21.5129 15.7123 21.5623 15.5931 21.5623 15.4688C21.5623 15.3445 21.5129 15.2253 21.4251 15.1374Z" fill="white"/>
<path d="M25.6065 4.39359C25.5186 4.30572 25.3994 4.25635 25.2751 4.25635C25.1508 4.25635 25.0316 4.30572 24.9437 4.39359L4.7378 24.5995C2.3315 22.0287 0.97772 18.6485 0.944279 15.1274C0.910838 11.6063 2.20017 8.20087 4.55721 5.58485C6.91425 2.96883 10.1673 1.33274 13.6728 1.00026C17.1783 0.66778 20.681 1.66312 23.4878 3.78937C23.5366 3.8286 23.5929 3.85764 23.6531 3.87477C23.7134 3.8919 23.7765 3.89678 23.8387 3.88911C23.9009 3.88144 23.9609 3.86138 24.0152 3.83013C24.0695 3.79887 24.1169 3.75704 24.1548 3.70712C24.1927 3.6572 24.2201 3.60019 24.2356 3.53947C24.251 3.47875 24.2541 3.41555 24.2448 3.35361C24.2354 3.29166 24.2136 3.23223 24.1809 3.17882C24.1481 3.12541 24.105 3.07911 24.054 3.04266C21.4529 1.06012 18.2706 -0.0093249 15.0001 -5.75681e-07C12.0367 -0.00160276 9.13926 0.875091 6.67381 2.51934C4.20836 4.16359 2.2855 6.50162 1.14814 9.23812C0.010777 11.9746 -0.290075 14.9868 0.283589 17.8942C0.857252 20.8016 2.27969 23.4737 4.37124 25.5731C4.38014 25.5839 4.38389 25.5966 4.39374 25.6064C4.40358 25.6162 4.41624 25.62 4.42702 25.6289C7.24768 28.4142 11.0565 29.9694 15.0205 29.9543C18.9846 29.9393 22.7815 28.3552 25.5809 25.5485C28.3803 22.7419 29.9545 18.9409 29.9593 14.9768C29.9641 11.0127 28.3992 7.20798 25.6065 4.39453V4.39359ZM15.0001 29.0625C11.4331 29.0645 7.99977 27.7053 5.40061 25.2623L25.2658 5.39578C27.1392 7.39701 28.3867 9.90229 28.8548 12.6033C29.3228 15.3044 28.991 18.0833 27.9002 20.5982C26.8093 23.1131 25.007 25.2542 22.715 26.7581C20.4231 28.262 17.7414 29.063 15.0001 29.0625Z" fill="white"/>
<path d="M20.5522 11.7862C20.4912 11.7776 20.4291 11.781 20.3695 11.7963C20.3098 11.8116 20.2537 11.8385 20.2045 11.8755C20.1552 11.9125 20.1138 11.9588 20.0824 12.0118C20.0511 12.0648 20.0305 12.1235 20.0218 12.1844C20.0131 12.2454 20.0165 12.3075 20.0318 12.3671C20.0471 12.4268 20.074 12.4829 20.111 12.5321C20.148 12.5814 20.1943 12.6228 20.2473 12.6542C20.3003 12.6855 20.359 12.7062 20.42 12.7148C21.5657 12.883 22.622 13.4304 23.4201 14.2695C24.2181 15.1086 24.7119 16.191 24.8225 17.3437H23.9065C23.7822 17.3437 23.663 17.3931 23.5751 17.481C23.4872 17.5689 23.4378 17.6882 23.4378 17.8125C23.4378 17.9368 23.4872 18.056 23.5751 18.1439C23.663 18.2319 23.7822 18.2812 23.9065 18.2812H25.3128C25.4371 18.2812 25.5563 18.2319 25.6442 18.1439C25.7322 18.056 25.7815 17.9368 25.7815 17.8125C25.7753 16.3484 25.2441 14.9352 24.2846 13.8294C23.325 12.7237 22.0007 11.9987 20.5522 11.7862Z" fill="white"/>
<path d="M16.8752 17.3438H14.8398C14.7155 17.3438 14.5963 17.3931 14.5084 17.481C14.4205 17.569 14.3711 17.6882 14.3711 17.8125C14.3711 17.9368 14.4205 18.056 14.5084 18.144C14.5963 18.2319 14.7155 18.2812 14.8398 18.2812H16.8752C16.9995 18.2812 17.1187 18.2319 17.2066 18.144C17.2945 18.056 17.3439 17.9368 17.3439 17.8125C17.3439 17.6882 17.2945 17.569 17.2066 17.481C17.1187 17.3931 16.9995 17.3438 16.8752 17.3438Z" fill="white"/>
<path d="M13.5938 11.25C13.5881 10.6422 13.753 10.0449 14.0698 9.52614C14.3866 9.00735 14.8426 8.58781 15.3859 8.31518C15.9292 8.04255 16.5381 7.92776 17.1434 7.98386C17.7486 8.03996 18.3261 8.26469 18.81 8.63252C18.8592 8.66946 18.9153 8.69633 18.9749 8.71161C19.0345 8.72689 19.0966 8.73027 19.1575 8.72156C19.2185 8.71286 19.2771 8.69223 19.3301 8.66087C19.383 8.62951 19.4293 8.58802 19.4662 8.53877C19.5032 8.48953 19.5301 8.43349 19.5453 8.37386C19.5606 8.31423 19.564 8.25217 19.5553 8.19123C19.5466 8.13029 19.526 8.07167 19.4946 8.0187C19.4632 7.96573 19.4217 7.91946 19.3725 7.88252C18.7493 7.41024 18.0062 7.12191 17.2276 7.05019C16.4489 6.97846 15.6657 7.12621 14.9667 7.4767C14.2676 7.82718 13.6807 8.3664 13.2724 9.03329C12.8641 9.70017 12.6506 10.4681 12.6562 11.25C12.6572 11.399 12.666 11.5478 12.6825 11.6958C12.6825 11.7038 12.6825 11.7108 12.6825 11.7188H8.4375C7.319 11.72 6.24666 12.1649 5.45576 12.9558C4.66486 13.7467 4.21999 14.819 4.21875 15.9375V19.6875C4.21984 20.1405 4.31446 20.5883 4.49667 21.003C4.67888 21.4176 4.94476 21.7902 5.27766 22.0974C5.36926 22.1803 5.48989 22.2236 5.61331 22.2181C5.73673 22.2125 5.85296 22.1584 5.93673 22.0676C6.0205 21.9768 6.06503 21.8566 6.06064 21.7331C6.05624 21.6097 6.00329 21.4929 5.91328 21.4083C5.67398 21.1902 5.48299 20.9244 5.35261 20.6281C5.22222 20.3317 5.15534 20.0113 5.15625 19.6875V18.2813H8.90625C9.40353 18.2813 9.88044 18.0837 10.2321 17.7321C10.5837 17.3805 10.7812 16.9036 10.7812 16.4063C10.7812 15.909 10.5837 15.4321 10.2321 15.0804C9.88044 14.7288 9.40353 14.5313 8.90625 14.5313H7.5C7.37568 14.5313 7.25645 14.5807 7.16854 14.6686C7.08064 14.7565 7.03125 14.8757 7.03125 15C7.03125 15.1243 7.08064 15.2436 7.16854 15.3315C7.25645 15.4194 7.37568 15.4688 7.5 15.4688H8.90625C9.15489 15.4688 9.39335 15.5675 9.56916 15.7434C9.74498 15.9192 9.84375 16.1576 9.84375 16.4063C9.84375 16.6549 9.74498 16.8934 9.56916 17.0692C9.39335 17.245 9.15489 17.3438 8.90625 17.3438H5.15625V15.9375C5.15724 15.0676 5.50326 14.2336 6.1184 13.6184C6.73354 13.0033 7.56756 12.6573 8.4375 12.6563H12.9009C13.0414 13.0518 13.24 13.4241 13.4902 13.7611C13.5643 13.8609 13.6751 13.9272 13.7981 13.9454C13.9211 13.9635 14.0463 13.9321 14.1462 13.8579C14.246 13.7838 14.3123 13.673 14.3304 13.55C14.3486 13.4269 14.3171 13.3017 14.243 13.2019C13.9653 12.8256 13.7717 12.3939 13.6753 11.9363C13.6584 11.858 13.6411 11.7797 13.6284 11.7019C13.6065 11.5523 13.5949 11.4013 13.5938 11.25Z" fill="white"/>
<path d="M14.0627 22.0312H10.1523C10.028 22.0312 9.90879 22.0806 9.82089 22.1685C9.73298 22.2565 9.68359 22.3757 9.68359 22.5C9.68359 22.6243 9.73298 22.7435 9.82089 22.8315C9.90879 22.9194 10.028 22.9688 10.1523 22.9688H14.0627C14.187 22.9688 14.3062 22.9194 14.3941 22.8315C14.482 22.7435 14.5314 22.6243 14.5314 22.5C14.5314 22.3757 14.482 22.2565 14.3941 22.1685C14.3062 22.0806 14.187 22.0312 14.0627 22.0312Z" fill="white"/>
</g>
<defs>
<clipPath id="clip0_110_215">
<rect width="30" height="30" fill="white"/>
</clipPath>
</defs>
</svg>
