<svg width="30" height="30" viewBox="0 0 30 30" fill="none" xmlns="http://www.w3.org/2000/svg">
<g clip-path="url(#clip0_58_562)">
<path d="M19.6875 11.7188C19.6874 11.681 19.6828 11.6434 19.6739 11.6067C19.3868 10.4528 18.7275 9.42557 17.7978 8.68406C16.8682 7.94255 15.7202 7.52805 14.5312 7.50469V6.47625C14.8045 6.37965 15.0412 6.20098 15.209 5.9647C15.3768 5.72842 15.4675 5.44606 15.4688 5.15625V2.34375C15.4688 1.97079 15.3206 1.6131 15.0569 1.34938C14.7931 1.08566 14.4355 0.9375 14.0625 0.9375H12.1875C11.8145 0.9375 11.4569 1.08566 11.1931 1.34938C10.9294 1.6131 10.7812 1.97079 10.7812 2.34375V5.15625C10.7825 5.44606 10.8732 5.72842 11.041 5.9647C11.2088 6.20098 11.4455 6.37965 11.7188 6.47625V7.50469C10.5302 7.52804 9.38241 7.94232 8.45291 8.68346C7.52342 9.42459 6.86398 10.4513 6.57656 11.6048C6.56723 11.6421 6.5625 11.6803 6.5625 11.7188V28.5938C6.5625 28.9667 6.71066 29.3244 6.97438 29.5881C7.2381 29.8518 7.59579 30 7.96875 30H18.2812C18.6542 30 19.0119 29.8518 19.2756 29.5881C19.5393 29.3244 19.6875 28.9667 19.6875 28.5938V27.1875C19.6875 27.0632 19.6381 26.944 19.5502 26.856C19.4623 26.7681 19.3431 26.7188 19.2188 26.7188C19.0944 26.7188 18.9752 26.7681 18.8873 26.856C18.7994 26.944 18.75 27.0632 18.75 27.1875V28.5938C18.75 28.7181 18.7006 28.8373 18.6127 28.9252C18.5248 29.0131 18.4056 29.0625 18.2812 29.0625H7.96875C7.84443 29.0625 7.7252 29.0131 7.63729 28.9252C7.54939 28.8373 7.5 28.7181 7.5 28.5938V12.1875H9.84375C9.96807 12.1875 10.0873 12.1381 10.1752 12.0502C10.2631 11.9623 10.3125 11.8431 10.3125 11.7188C10.3125 11.5944 10.2631 11.4752 10.1752 11.3873C10.0873 11.2994 9.96807 11.25 9.84375 11.25H7.67812C8.00999 10.4193 8.58337 9.70729 9.32416 9.20591C10.0649 8.70453 10.9391 8.43686 11.8336 8.4375H14.4164C15.3109 8.43693 16.185 8.70462 16.9258 9.20599C17.6666 9.70736 18.24 10.4194 18.5719 11.25H11.7188C11.5944 11.25 11.4752 11.2994 11.3873 11.3873C11.2994 11.4752 11.25 11.5944 11.25 11.7188C11.25 11.8431 11.2994 11.9623 11.3873 12.0502C11.4752 12.1381 11.5944 12.1875 11.7188 12.1875H18.75V25.3125H19.6875V11.7188ZM13.5938 6.5625V7.5H12.6562V6.5625H13.5938ZM11.7188 2.34375C11.7188 2.21943 11.7681 2.1002 11.856 2.01229C11.944 1.92439 12.0632 1.875 12.1875 1.875H14.0625C14.1868 1.875 14.306 1.92439 14.394 2.01229C14.4819 2.1002 14.5312 2.21943 14.5312 2.34375V5.15625C14.5312 5.28057 14.4819 5.3998 14.394 5.48771C14.306 5.57561 14.1868 5.625 14.0625 5.625H12.1875C12.0632 5.625 11.944 5.57561 11.856 5.48771C11.7681 5.3998 11.7188 5.28057 11.7188 5.15625V2.34375Z" fill="white"/>
<path d="M13.1251 16.8749C13.4939 16.875 13.8606 16.9294 14.2135 17.0366C14.3322 17.0716 14.4599 17.0583 14.5688 16.9996C14.6777 16.9408 14.759 16.8414 14.7948 16.723C14.8307 16.6045 14.8183 16.4767 14.7604 16.3674C14.7024 16.2581 14.6035 16.1761 14.4854 16.1394C13.4865 15.8355 12.4148 15.8739 11.4403 16.2487C10.4659 16.6234 9.64447 17.3129 9.10658 18.2077C8.5687 19.1025 8.34514 20.1514 8.4714 21.1878C8.59766 22.2241 9.06651 23.1886 9.8035 23.9281C9.80496 23.9324 9.80736 23.9362 9.81053 23.9394C9.8137 23.9426 9.81754 23.945 9.82178 23.9464C10.7092 24.7872 11.8899 25.2481 13.1122 25.2308C14.3345 25.2135 15.5018 24.7193 16.365 23.8537C17.2282 22.9882 17.7191 21.8196 17.733 20.5972C17.747 19.3748 17.2828 18.1954 16.4396 17.3103C16.3517 17.2225 16.2325 17.1731 16.1082 17.1731C15.9839 17.1731 15.8647 17.2225 15.7768 17.3103L14.0977 18.9894C13.0435 18.141 11.8037 17.968 11.1362 18.636C10.4687 19.3039 10.6416 20.5438 11.4896 21.5975L10.1663 22.9217C9.73453 22.3683 9.46703 21.7046 9.39434 21.0065C9.32164 20.3083 9.44669 19.6038 9.75519 18.9733C10.0637 18.3428 10.5432 17.8117 11.1391 17.4407C11.735 17.0696 12.4231 16.8736 13.1251 16.8749ZM13.1251 24.3749C12.2926 24.375 11.484 24.0964 10.8282 23.5836L12.1496 22.2622C12.6761 22.7196 13.3403 22.9878 14.0368 23.0244C14.2348 23.0315 14.4322 22.9988 14.6174 22.9282C14.8026 22.8577 14.9718 22.7508 15.1149 22.6138C15.7824 21.9458 15.6094 20.706 14.7615 19.6522L16.0852 18.328C16.5161 18.8818 16.7829 19.5454 16.855 20.2434C16.9272 20.9413 16.8018 21.6455 16.4933 22.2758C16.1848 22.906 15.7055 23.4369 15.11 23.808C14.5145 24.1791 13.8267 24.3755 13.1251 24.3749ZM14.094 20.3188C14.5965 20.9872 14.716 21.6856 14.4512 21.951C14.1863 22.2163 13.4874 22.0958 12.819 21.5938L14.094 20.3188ZM11.7971 19.2988C11.9115 19.2001 12.0603 19.1506 12.211 19.161C12.6585 19.1976 13.084 19.3709 13.4297 19.6574L12.1562 20.931C11.6537 20.262 11.5341 19.5641 11.799 19.2988H11.7971Z" fill="white"/>
<path d="M23.3873 1.44366C23.2891 1.02724 23.0515 0.656924 22.7138 0.394193C22.3761 0.131462 21.9588 -0.00788379 21.531 -0.00071301C21.1032 0.00645777 20.6907 0.159714 20.362 0.433615C20.0334 0.707515 19.8083 1.08559 19.7241 1.50506C19.6871 1.73748 19.569 1.94928 19.3907 2.10282C19.2123 2.25636 18.9853 2.34169 18.75 2.34366H17.3437C17.2194 2.34366 17.1002 2.39304 17.0123 2.48095C16.9244 2.56886 16.875 2.68809 16.875 2.81241C16.875 2.93673 16.9244 3.05596 17.0123 3.14386C17.1002 3.23177 17.2194 3.28116 17.3437 3.28116H18.7725C19.2244 3.27613 19.6601 3.11201 20.003 2.81762C20.3459 2.52323 20.5741 2.11741 20.6475 1.67147C20.6978 1.44621 20.8293 1.24741 21.0171 1.11313C21.2048 0.978855 21.4354 0.918538 21.6648 0.943732C21.8943 0.968926 22.1063 1.07786 22.2604 1.24968C22.4145 1.42149 22.4998 1.64411 22.5 1.87491C22.5 1.99923 22.5494 2.11846 22.6373 2.20636C22.7252 2.29427 22.8444 2.34366 22.9687 2.34366C23.3417 2.34366 23.6994 2.49182 23.9631 2.75554C24.2268 3.01926 24.375 3.37695 24.375 3.74991C24.375 4.12287 24.2268 4.48055 23.9631 4.74428C23.6994 5.008 23.3417 5.15616 22.9687 5.15616C22.8444 5.15616 22.7252 5.20554 22.6373 5.29345C22.5494 5.38136 22.5 5.50059 22.5 5.62491C22.5001 5.76233 22.47 5.8981 22.4118 6.0226C22.3536 6.14709 22.2687 6.25727 22.1632 6.34534C22.0577 6.4334 21.9342 6.49719 21.8013 6.53219C21.6684 6.56719 21.5294 6.57255 21.3942 6.54788C21.2107 6.51302 21.0416 6.42469 20.9082 6.294C20.7747 6.1633 20.6829 5.99608 20.6442 5.81335C20.5687 5.37026 20.3399 4.9678 19.9978 4.67631C19.6556 4.38481 19.222 4.22282 18.7725 4.21866H18.75C18.689 4.21889 18.6287 4.23126 18.5726 4.25504C18.5165 4.27882 18.4656 4.31354 18.423 4.35717C18.3804 4.4008 18.347 4.45247 18.3246 4.50917C18.3022 4.56586 18.2913 4.62646 18.2925 4.68741C18.2951 4.81287 18.3468 4.9323 18.4366 5.01997C18.5264 5.10765 18.647 5.15655 18.7725 5.15616C19.0087 5.16425 19.2345 5.25573 19.4097 5.41438C19.5849 5.57304 19.6983 5.78861 19.7297 6.02288C19.8084 6.38649 19.9935 6.71846 20.2615 6.97655C20.5294 7.23465 20.8681 7.4072 21.2344 7.47225C21.3411 7.49051 21.4491 7.49976 21.5573 7.49991C21.9802 7.50067 22.3909 7.35846 22.7228 7.09637C23.0547 6.83428 23.2882 6.4677 23.3855 6.05616C23.9259 5.95831 24.4147 5.67382 24.7668 5.25232C25.1188 4.83082 25.3116 4.29908 25.3116 3.74991C25.3116 3.20074 25.1188 2.669 24.7668 2.2475C24.4147 1.826 23.9259 1.5415 23.3855 1.44366H23.3873Z" fill="white"/>
</g>
<defs>
<clipPath id="clip0_58_562">
<rect width="30" height="30" fill="white"/>
</clipPath>
</defs>
</svg>
