<svg width="40" height="40" viewBox="0 0 40 40" fill="none" xmlns="http://www.w3.org/2000/svg">
<path d="M11.0938 10.8979C11.1437 10.8955 11.1937 10.8931 11.2451 10.8906C11.4931 10.962 11.6266 11.1438 11.7969 11.3276C11.8996 11.4303 12.0028 11.5325 12.1063 11.6343C12.2213 11.7486 12.3362 11.8628 12.4512 11.9771C12.5082 12.0334 12.5652 12.0897 12.6239 12.1478C12.9451 12.4676 13.2509 12.7948 13.5466 13.1383C13.7245 13.3406 13.9137 13.5271 14.1064 13.7153C14.422 14.0274 14.7182 14.3443 15 14.687C15.037 14.6586 15.0739 14.6302 15.112 14.601C15.1637 14.5617 15.2153 14.5224 15.2686 14.4819C15.3184 14.4439 15.3683 14.4058 15.4196 14.3666C15.4874 14.3176 15.5552 14.2687 15.625 14.2183C15.6723 14.1841 15.7196 14.1499 15.7683 14.1147C16.2678 13.7668 16.7971 13.5066 17.3486 13.2515C17.4371 13.2089 17.5256 13.1663 17.6167 13.1224C18.0928 12.9011 18.4573 12.7419 18.9844 12.812C19.1797 12.9292 19.1797 12.9292 19.2969 13.1245C19.3718 13.6493 19.3718 13.6493 19.1556 13.9384C18.8302 14.2407 18.4007 14.3875 17.998 14.5601C16.8797 14.9993 16.8797 14.9993 16.0156 15.7808C16.0554 15.8201 16.0951 15.8594 16.136 15.8999C16.3191 16.0813 16.5018 16.2631 16.6846 16.4448C16.7471 16.5067 16.8095 16.5685 16.8739 16.6322C17.2116 16.9685 17.5355 17.3106 17.8461 17.6721C18.0213 17.872 18.2082 18.0559 18.3984 18.2417C18.6892 18.5281 18.9638 18.8223 19.2285 19.1328C19.4128 19.3386 19.6082 19.5322 19.8047 19.7261C20.0481 19.9662 20.2858 20.2079 20.5078 20.4683C20.5517 20.5163 20.5956 20.5643 20.6409 20.6138C20.7812 20.7808 20.7812 20.7808 20.9314 21.0185C21.1415 21.3023 21.3046 21.5145 21.6406 21.6401C22.2599 21.682 22.8812 21.5442 23.49 21.4436C24.5844 21.2842 25.6208 21.3289 26.5451 21.9761C26.666 22.0686 26.7841 22.1647 26.8997 22.2636C26.989 22.3393 26.989 22.3393 27.0801 22.4165C27.1326 22.4639 27.1852 22.5114 27.2394 22.5602C27.4253 22.6809 27.4253 22.6809 27.6715 22.6149C28.0737 22.5645 28.3267 22.6868 28.6914 22.8462C28.7923 22.8887 28.7923 22.8887 28.8952 22.932C29.0362 22.9915 29.1769 23.0514 29.3174 23.1118C29.5289 23.2017 29.7416 23.2876 29.9551 23.3726C30.0889 23.4266 30.2227 23.4806 30.3564 23.5347C30.4505 23.5717 30.4505 23.5717 30.5465 23.6096C31.1001 23.838 31.1001 23.838 31.25 24.1401C31.3164 24.4462 31.2939 24.692 31.1328 24.9604C30.8551 25.1271 30.6242 25.1263 30.3125 25.0776C29.9511 24.9562 29.6057 24.8035 29.2578 24.6479C29.1638 24.607 29.0697 24.566 28.9728 24.5237C28.7418 24.4229 28.5113 24.3211 28.2812 24.2183C28.0297 24.5121 27.8445 24.8198 27.6703 25.1631C27.6434 25.2154 27.6164 25.2676 27.5887 25.3215C27.5321 25.4314 27.4758 25.5415 27.4197 25.6516C27.3341 25.8195 27.2479 25.9871 27.1616 26.1546C27.1065 26.2619 27.0515 26.3692 26.9965 26.4766C26.9709 26.5263 26.9453 26.576 26.919 26.6273C26.7866 26.8876 26.6659 27.1481 26.5625 27.4214C28.5408 28.5224 31.1509 29.6298 33.4766 29.062C34.021 28.8641 34.4606 28.4606 34.7266 27.9487C35.0004 27.3351 34.9668 26.7748 34.7568 26.1448C34.7382 26.0883 34.7197 26.0318 34.7006 25.9736C34.6369 25.7805 34.5719 25.5877 34.5068 25.395C34.4601 25.2544 34.4134 25.1138 34.3668 24.9731C34.2562 24.6402 34.1451 24.3075 34.0337 23.9748C33.8339 23.3775 33.6367 22.7794 33.4395 22.1812C33.2748 21.6815 33.1096 21.182 32.9442 20.6825C32.8251 20.3228 32.7061 19.963 32.5875 19.603C32.4738 19.258 32.3595 18.9132 32.2448 18.5686C32.2021 18.4401 32.1596 18.3116 32.1174 18.183C31.7214 16.9247 31.7214 16.9247 30.9961 15.8394C30.9157 15.7493 30.9157 15.7493 30.8337 15.6575C30.2559 15.1337 29.5849 14.8289 28.877 14.5161C28.6955 14.4357 28.5142 14.3549 28.3331 14.2735C28.2537 14.2384 28.1743 14.2034 28.0925 14.1672C27.9045 14.0693 27.7874 13.9922 27.6562 13.8276C27.5631 13.5281 27.564 13.3944 27.6807 13.1001C27.8125 12.8901 27.8125 12.8901 27.9688 12.812C28.5585 12.7337 28.9976 12.9556 29.524 13.2073C29.6658 13.2748 29.8088 13.3399 29.9518 13.4048C31.1226 13.954 32.1391 14.6956 32.7247 15.8759C32.7517 15.9303 32.7787 15.9847 32.8065 16.0407C33.1067 16.6626 33.3213 17.3082 33.5336 17.964C33.5775 18.097 33.6215 18.23 33.6655 18.3629C33.7807 18.7111 33.8947 19.0596 34.0084 19.4083C34.1879 19.9577 34.3693 20.5065 34.5503 21.0555C34.6175 21.2595 34.6845 21.4635 34.7514 21.6676C34.9781 22.3572 35.2081 23.0454 35.4445 23.7317C35.468 23.7998 35.4914 23.8678 35.5155 23.938C35.627 24.2615 35.7391 24.5849 35.8519 24.9079C36.3239 26.2667 36.5413 27.3685 35.918 28.7281C35.4318 29.6203 34.6779 30.1356 33.7305 30.4481C31.1309 31.107 28.09 29.9466 25.8772 28.6602C25.0651 28.1765 25.0651 28.1765 24.9219 27.8901C24.9187 27.7079 24.9185 27.5255 24.9219 27.3433C24.7685 27.33 24.7685 27.33 24.6121 27.3164C22.9998 27.135 21.5014 26.2496 20.4541 25.0358C20.0436 24.4961 19.8037 23.9034 19.8486 23.2173C19.9007 22.8883 20.0287 22.6801 20.2344 22.4214C19.9418 21.7539 19.2859 21.2347 18.7759 20.731C18.6185 20.5715 18.4706 20.4092 18.3252 20.2388C18.1014 19.9769 17.8622 19.7335 17.6172 19.4917C17.3754 19.2532 17.1391 19.0133 16.9189 18.7544C16.6447 18.4323 16.3455 18.1375 16.043 17.8422C15.7809 17.5847 15.5439 17.3164 15.3125 17.0308C15.1053 17.238 15.0493 17.4712 14.9612 17.7437C14.9237 17.8564 14.8861 17.9691 14.8485 18.0818C14.7897 18.2597 14.7312 18.4376 14.6731 18.6157C14.6169 18.7875 14.5596 18.9589 14.5023 19.1304C14.4766 19.2105 14.4766 19.2105 14.4504 19.2922C14.3555 19.574 14.3181 19.6729 14.0625 19.8433C13.5156 19.8953 13.5156 19.8953 13.2471 19.7163C13.0935 19.4829 13.0661 19.3421 13.0469 19.062C13.0964 18.8262 13.1764 18.604 13.2587 18.3778C13.2811 18.3133 13.3036 18.2488 13.3268 18.1824C13.3985 17.9772 13.4717 17.7725 13.5449 17.5679C13.6173 17.3626 13.6894 17.1571 13.7614 16.9517C13.8063 16.8241 13.8514 16.6966 13.8968 16.5693C13.9174 16.5114 13.938 16.4535 13.9592 16.3938C13.9773 16.3432 13.9954 16.2926 14.014 16.2404C14.0646 16.087 14.1118 15.9398 14.1406 15.7808C14.0445 15.6318 14.0445 15.6318 13.894 15.4988C13.8399 15.4462 13.7857 15.3936 13.7299 15.3395C13.6721 15.2853 13.6142 15.2311 13.5547 15.1753C13.443 15.0685 13.3315 14.9615 13.2202 14.8542C13.1648 14.8009 13.1094 14.7476 13.0523 14.6926C12.848 14.4881 12.6605 14.2719 12.4725 14.0526C12.2789 13.8318 12.0706 13.6272 11.8604 13.4224C11.5853 13.1543 11.3277 12.8831 11.0938 12.5776C10.8501 12.6248 10.696 12.7016 10.4993 12.8514C10.4467 12.8899 10.3941 12.9284 10.34 12.9681C10.2311 13.0491 10.1229 13.1309 10.0153 13.2135C9.62715 13.495 9.38647 13.577 8.90625 13.5151C8.65235 13.3057 8.60189 13.1752 8.5498 12.8511C8.62238 12.3995 8.96528 12.1956 9.31641 11.9349C9.43984 11.8461 9.56354 11.7576 9.6875 11.6694C9.74954 11.6247 9.81157 11.58 9.87549 11.5339C10.7553 10.9034 10.7553 10.9034 11.0938 10.8979ZM22.8906 22.8364C22.79 22.8502 22.79 22.8502 22.6873 22.8643C21.9054 22.9695 21.9054 22.9695 21.25 23.3589C21.2406 23.8174 21.4128 24.0849 21.7026 24.4319C22.7258 25.4823 24.1783 26.0411 25.625 26.0933C26.0442 25.3767 26.4337 24.6525 26.7969 23.9058C25.4617 22.7792 24.6038 22.5964 22.8906 22.8364Z" fill="white"/>
<path d="M12.0177 20.6637C12.079 20.6633 12.1403 20.6629 12.2034 20.6625C12.4057 20.6615 12.6078 20.6628 12.8101 20.6642C12.9508 20.6642 13.0915 20.664 13.2322 20.6638C13.5269 20.6637 13.8216 20.6647 14.1164 20.6665C14.4942 20.6687 14.8719 20.6685 15.2497 20.6675C15.5402 20.6669 15.8306 20.6675 16.1211 20.6685C16.2604 20.6689 16.3997 20.6689 16.539 20.6686C16.7337 20.6684 16.9283 20.6697 17.123 20.6714C17.2094 20.6708 17.2094 20.6708 17.2974 20.6703C17.5393 20.6738 17.7099 20.6895 17.9237 20.8068C18.1302 21.0255 18.1298 21.1874 18.1251 21.4842C17.8763 22.1434 17.3572 22.7235 16.933 23.2768C16.534 23.8246 16.387 24.2416 16.4063 24.9217C16.4929 24.9181 16.5795 24.9144 16.6688 24.9107C16.7831 24.9078 16.8974 24.9049 17.0118 24.9021C17.0688 24.8995 17.1258 24.8969 17.1845 24.8942C17.4661 24.8891 17.6215 24.8948 17.848 25.0694C18.0441 25.3368 18.055 25.4848 18.0524 25.8137C18.0536 25.9414 18.0536 25.9414 18.0549 26.0717C18.0561 26.2508 18.0555 26.4298 18.053 26.6088C18.0617 27.1914 18.0617 27.1914 18.3826 27.6548C18.4783 27.7343 18.5747 27.8129 18.6719 27.8904C18.7817 28.0203 18.8894 28.152 18.9942 28.2859C19.328 28.7016 19.685 29.0908 20.0515 29.4777C20.1141 29.544 20.1141 29.544 20.178 29.6116C20.2152 29.6507 20.2525 29.6899 20.2909 29.7302C20.4965 29.9638 20.5665 30.1113 20.5678 30.4154C20.5688 30.5188 20.5688 30.5188 20.5698 30.6242C20.5697 30.7373 20.5697 30.7373 20.5696 30.8526C20.5702 30.9321 20.5707 31.0117 20.5712 31.0936C20.5727 31.3572 20.573 31.6207 20.5732 31.8843C20.5737 32.0671 20.5742 32.2499 20.5748 32.4328C20.5757 32.8162 20.576 33.1997 20.5759 33.5832C20.5759 34.0751 20.578 34.567 20.5807 35.0589C20.5824 35.4365 20.5828 35.8142 20.5827 36.1918C20.5829 36.3732 20.5835 36.5546 20.5848 36.736C20.5863 36.9894 20.5858 37.2428 20.5849 37.4963C20.5858 37.5715 20.5866 37.6467 20.5876 37.7242C20.5827 38.2312 20.5827 38.2312 20.4027 38.4818C20.182 38.6284 20.0307 38.6663 19.7657 38.6717C19.5538 38.5802 19.4222 38.5029 19.2871 38.3148C19.1842 38.0285 19.1985 37.7442 19.2011 37.4439C19.2011 37.3741 19.201 37.3044 19.201 37.2326C19.2011 37.0071 19.2023 36.7817 19.2036 36.5562C19.2038 36.4169 19.2039 36.2776 19.204 36.1383C19.2048 35.6221 19.207 35.1059 19.209 34.5896C19.2123 33.4359 19.2155 32.2822 19.2188 31.0936C16.1508 31.0936 13.0829 31.0936 9.92194 31.0936C9.93431 33.4157 9.93431 33.4157 9.95009 35.7378C9.9515 36.1873 9.9515 36.1873 9.95176 36.3978C9.95224 36.5446 9.95334 36.6914 9.95493 36.8382C9.95722 37.0608 9.95753 37.2833 9.95741 37.506C9.95854 37.5712 9.95966 37.6364 9.96082 37.7035C9.95862 38.0112 9.94319 38.1678 9.78025 38.4369C9.54369 38.6538 9.3802 38.6717 9.06256 38.6717C8.83228 38.5665 8.70766 38.5087 8.59381 38.281C8.58552 38.1738 8.5819 38.0661 8.58074 37.9585C8.57984 37.891 8.57894 37.8234 8.57802 37.7538C8.57744 37.6795 8.57686 37.6052 8.57626 37.5286C8.57493 37.4114 8.57493 37.4114 8.57357 37.2918C8.56492 36.4734 8.56122 35.655 8.55788 34.8365C8.55614 34.4483 8.55288 34.0601 8.54826 33.6719C8.54271 33.2031 8.53984 32.7344 8.53888 32.2657C8.53807 32.0872 8.53632 31.9088 8.5336 31.7303C8.52999 31.4799 8.52984 31.2297 8.53049 30.9792C8.52865 30.906 8.5268 30.8328 8.5249 30.7574C8.53216 30.1773 8.752 29.8699 9.14069 29.4529C9.17808 29.4107 9.21548 29.3684 9.25401 29.3249C9.35428 29.2128 9.45741 29.1033 9.56061 28.9939C9.9049 28.6254 10.2278 28.2445 10.5414 27.8492C10.7032 27.6561 10.7032 27.6561 10.9159 27.4998C11.204 27.1203 11.1426 26.7079 11.1378 26.2449C11.1365 26.0617 11.1365 25.8785 11.1381 25.6953C11.1372 25.6143 11.1364 25.5333 11.1355 25.4499C11.1817 25.1767 11.2645 25.086 11.4844 24.9217C11.7106 24.899 11.9047 24.8918 12.129 24.9021C12.1872 24.9036 12.2454 24.905 12.3054 24.9064C12.4484 24.9101 12.5914 24.9157 12.7344 24.9217C12.7552 24.19 12.5686 23.7662 12.1358 23.1874C11.9254 22.904 11.7241 22.6144 11.5235 22.324C11.4813 22.2658 11.439 22.2077 11.3955 22.1477C11.1222 21.7523 11.0165 21.4976 11.0938 21.0154C11.3436 20.6603 11.6129 20.6584 12.0177 20.6637ZM12.9688 21.9529C13.3612 22.572 13.3612 22.572 13.7794 23.1736C14.1015 23.7014 14.0612 24.3215 14.0626 24.9217C14.3977 24.9217 14.7329 24.9217 15.0782 24.9217C15.0802 24.8387 15.0822 24.7557 15.0843 24.6702C15.1239 23.54 15.1239 23.54 15.4688 23.0467C15.5278 22.96 15.5868 22.8734 15.6458 22.7867C15.7718 22.6027 15.8997 22.4204 16.0291 22.2389C16.1793 22.0623 16.1793 22.0623 16.1719 21.9529C15.1149 21.9529 14.0579 21.9529 12.9688 21.9529ZM12.5001 26.2498C12.4743 26.6623 12.4485 27.0748 12.4219 27.4998C12.2335 27.9396 12.0949 28.1861 11.7774 28.5105C11.7008 28.5916 11.6242 28.6727 11.5476 28.7538C11.4917 28.8123 11.4917 28.8123 11.4347 28.8721C11.2872 29.0273 11.1435 29.1856 11.001 29.3455C10.958 29.3932 10.915 29.441 10.8707 29.4902C10.7657 29.6052 10.7657 29.6052 10.7813 29.7654C13.3079 29.7654 15.8344 29.7654 18.4376 29.7654C18.0236 29.1828 18.0236 29.1828 17.7051 28.8768C17.66 28.8313 17.6149 28.7859 17.5684 28.7391C17.4654 28.6368 17.3593 28.5375 17.251 28.4407C16.5661 27.7423 16.7755 27.3832 16.7188 26.2498C15.3266 26.2498 13.9344 26.2498 12.5001 26.2498Z" fill="white"/>
<path d="M27.0679 2.25642C28.0123 3.12864 28.2309 4.51662 28.2909 5.74534C28.326 6.87181 28.231 7.85037 27.8125 8.9065C27.8125 8.98384 27.8125 9.06119 27.8125 9.14088C27.8705 9.18599 27.9285 9.23111 27.9883 9.27759C28.3656 9.58633 28.555 9.98647 28.6124 10.4696C28.6395 11.2447 28.3442 11.7719 27.8369 12.3342C27.3292 12.8692 26.9195 13.1312 26.167 13.1594C25.4448 13.1584 24.9764 12.8499 24.458 12.3782C24.4056 12.3321 24.3532 12.286 24.2992 12.2386C23.8406 11.831 23.8406 11.831 23.8037 11.4993C23.8344 11.186 23.9103 11.0718 24.1406 10.8596C24.4423 10.7456 24.5677 10.7631 24.8633 10.8938C25.1813 11.0934 25.4599 11.3444 25.7401 11.5933C25.9874 11.7508 26.1179 11.7651 26.4062 11.719C26.5896 11.5949 26.5896 11.5949 26.7383 11.4212C26.8162 11.3382 26.8162 11.3382 26.8958 11.2536C27.1281 10.9853 27.1281 10.9853 27.1951 10.6469C27.0679 10.2672 26.814 10.0703 26.5186 9.80982C26.4645 9.76063 26.4105 9.71143 26.3548 9.66074C26.0326 9.36858 25.7046 9.08306 25.3768 8.79715C25.1204 8.5721 24.8692 8.34129 24.6173 8.11121C24.2714 7.81157 23.9068 7.86206 23.4668 7.85181C23.3908 7.84758 23.3147 7.84335 23.2364 7.839C22.8156 7.83107 22.5602 7.86051 22.2369 8.14234C22.1409 8.2394 22.0462 8.33779 21.9531 8.43775C21.8782 8.50543 21.8033 8.5731 21.7261 8.64283C21.6592 8.70406 21.5923 8.76529 21.5234 8.82838C21.2747 9.05523 21.0252 9.28086 20.7715 9.5022C20.7228 9.5449 20.6742 9.5876 20.6241 9.6316C20.5095 9.73064 20.3935 9.82807 20.2768 9.92457C20.2128 9.97855 20.1489 10.0325 20.083 10.0881C20.0243 10.1367 19.9656 10.1852 19.9051 10.2352C19.739 10.4206 19.7025 10.5347 19.6875 10.7815C19.878 11.1397 20.1402 11.4761 20.4688 11.719C20.6927 11.8038 20.6927 11.8038 20.9375 11.719C21.2663 11.5039 21.5567 11.2463 21.8506 10.9866C22.0757 10.8284 22.2252 10.7872 22.5 10.7815C22.7757 10.9068 22.8772 10.9957 23.0469 11.2503C23.0887 11.4801 23.0921 11.639 22.9749 11.8463C22.5128 12.4319 21.7739 13.06 21.0172 13.1542C20.2597 13.1699 19.7892 13.0397 19.2249 12.5274C18.6869 11.9904 18.2845 11.4361 18.2471 10.6545C18.2783 10.0642 18.5043 9.64161 18.9062 9.219C18.9836 9.18033 18.9836 9.18033 19.0625 9.14088C19.0099 8.84295 18.9272 8.56715 18.8281 8.2815C18.3195 6.81545 18.3957 4.56845 19.043 3.15455C19.5883 2.18773 20.5113 1.71836 21.5523 1.40808C23.3369 0.945098 25.5645 1.11223 27.0679 2.25642ZM20.4688 3.43775C20.0518 3.99305 19.987 4.63852 19.9219 5.31275C19.9615 5.29309 20.0012 5.27343 20.042 5.25317C22.0008 4.2876 22.0008 4.2876 23.0469 4.219C23.1298 4.21296 23.1298 4.21296 23.2144 4.20679C24.4247 4.15862 25.5546 4.55097 26.5826 5.16291C26.7161 5.24677 26.7161 5.24677 26.875 5.23463C26.8261 4.4891 26.6654 3.72534 26.0938 3.20338C24.6083 2.23257 21.8065 2.14746 20.4688 3.43775ZM20.9082 6.2649C20.8116 6.31665 20.715 6.36828 20.6183 6.41978C20.3855 6.54437 20.1534 6.67015 19.9219 6.79713C19.9328 6.92146 19.9442 7.04577 19.9557 7.17005C19.962 7.23927 19.9683 7.3085 19.9748 7.37982C20.0047 7.61569 20.0691 7.8263 20.1562 8.04713C20.511 7.95039 20.6896 7.75767 20.9354 7.50117C21.6859 6.75639 22.2119 6.53355 23.2621 6.5338C23.4216 6.53346 23.5809 6.53062 23.7404 6.52766C24.5968 6.52512 25.0494 6.66603 25.659 7.25611C25.7042 7.30123 25.7494 7.34634 25.7959 7.39283C26.2009 7.80495 26.2009 7.80495 26.7188 8.04713C26.7583 7.89751 26.7972 7.74774 26.8359 7.59791C26.8577 7.51452 26.8794 7.43114 26.9019 7.34522C26.9642 7.09892 26.9642 7.09892 26.9531 6.79713C24.7938 5.60176 23.1945 5.00874 20.9082 6.2649Z" fill="white"/>
<path d="M23.906 28.0473C24.1135 28.1456 24.1135 28.1456 24.2966 28.3598C24.3571 28.6774 24.3491 28.993 24.3459 29.3154C24.3465 29.4133 24.3471 29.5111 24.3476 29.6119C24.3487 29.8801 24.3481 30.1481 24.3465 30.4162C24.3452 30.6969 24.3459 30.9775 24.3463 31.2582C24.3467 31.7295 24.3454 32.2007 24.3433 32.672C24.3408 33.2168 24.3408 33.7616 24.3421 34.3064C24.3433 34.8306 24.3428 35.3547 24.3415 35.8789C24.341 36.1019 24.341 36.325 24.3416 36.548C24.3423 36.8594 24.3404 37.1708 24.3383 37.4822C24.3388 37.5749 24.3393 37.6675 24.3399 37.7629C24.3389 37.8477 24.3379 37.9325 24.3368 38.0198C24.3366 38.0934 24.3364 38.1671 24.3362 38.2429C24.2849 38.496 24.1819 38.5899 23.9841 38.7504C23.77 38.8073 23.5755 38.7953 23.3591 38.7504C23.1272 38.5779 23.06 38.4781 22.9685 38.2035C22.961 38.0736 22.958 37.9433 22.9575 37.8132C22.9571 37.7325 22.9566 37.6519 22.9562 37.5689C22.9561 37.4805 22.956 37.3921 22.9559 37.301C22.9555 37.2079 22.9551 37.1147 22.9547 37.0188C22.9538 36.7633 22.9532 36.5077 22.9529 36.2522C22.9526 36.0925 22.9523 35.9329 22.952 35.7732C22.9509 35.2735 22.9501 34.7738 22.9498 34.2741C22.9495 33.6975 22.9481 33.1209 22.9459 32.5442C22.9442 32.0983 22.9434 31.6525 22.9433 31.2066C22.9432 30.9404 22.9427 30.6741 22.9413 30.4079C22.94 30.1109 22.9402 29.8139 22.9407 29.5169C22.9399 29.4288 22.9392 29.3407 22.9385 29.25C22.9389 29.1689 22.9393 29.0879 22.9398 29.0044C22.9397 28.9342 22.9396 28.864 22.9394 28.7916C22.9754 28.5474 23.0587 28.4025 23.2029 28.2035C23.4773 28.0206 23.5829 28.0085 23.906 28.0473Z" fill="white"/>
<path d="M30.9377 31.4846C31.1224 31.6304 31.2236 31.744 31.3283 31.9533C31.3444 32.104 31.3562 32.2552 31.3658 32.4065C31.3721 32.5018 31.3783 32.5971 31.3848 32.6953C31.3913 32.8002 31.3978 32.9052 31.4043 33.0101C31.4112 33.1184 31.418 33.2268 31.425 33.3351C31.4394 33.5633 31.4536 33.7915 31.4677 34.0198C31.482 34.2511 31.4966 34.4824 31.5116 34.7137C31.6529 36.8944 31.6529 36.8944 31.6698 37.8374C31.6718 37.8957 31.6739 37.9539 31.676 38.014C31.6771 38.2818 31.6588 38.4144 31.4925 38.629C31.2652 38.7967 31.1251 38.7901 30.8519 38.7758C30.6449 38.7401 30.5328 38.6692 30.3908 38.5158C30.3053 38.2592 30.2909 38.0462 30.2751 37.7761C30.272 37.7251 30.269 37.6741 30.2658 37.6216C30.2558 37.4528 30.2462 37.2839 30.2367 37.115C30.2298 36.997 30.2229 36.8789 30.216 36.7608C30.2015 36.5127 30.1873 36.2645 30.1733 36.0164C30.1554 35.7011 30.1369 35.3859 30.1183 35.0706C30.104 34.8262 30.0899 34.5819 30.0759 34.3375C30.0693 34.2214 30.0625 34.1054 30.0556 33.9893C29.9374 31.976 29.9374 31.976 30.1613 31.6164C30.4497 31.4507 30.6101 31.4309 30.9377 31.4846Z" fill="white"/>
<path d="M23.9846 15.3908C24.2023 15.5607 24.2882 15.6534 24.3373 15.9286C24.338 16.0594 24.338 16.0594 24.3388 16.1928C24.34 16.2919 24.3413 16.391 24.3425 16.493C24.3422 16.6009 24.3418 16.7088 24.3414 16.8166C24.3418 16.9275 24.3423 17.0384 24.3428 17.1493C24.3436 17.3815 24.3433 17.6137 24.3421 17.846C24.3408 18.1434 24.3426 18.4407 24.3454 18.7381C24.3471 18.967 24.347 19.196 24.3463 19.4249C24.3463 19.5346 24.3468 19.6442 24.348 19.7539C24.3493 19.9072 24.3479 20.0605 24.3464 20.2138C24.3463 20.3446 24.3463 20.3446 24.3462 20.478C24.2971 20.7033 24.2971 20.7033 24.1134 20.8877C23.8586 21.0455 23.7325 21.065 23.4377 21.0158C23.0782 20.7921 23.0782 20.7921 22.9982 20.5634C22.9634 20.3579 22.9578 20.1625 22.9564 19.954C22.9556 19.8664 22.9549 19.7788 22.9541 19.6885C22.9538 19.5942 22.9535 19.4998 22.9531 19.4027C22.9527 19.3054 22.9522 19.2081 22.9518 19.1079C22.951 18.902 22.9505 18.6962 22.9502 18.4904C22.9499 18.2798 22.9488 18.0691 22.947 17.8585C22.9446 17.5545 22.9438 17.2506 22.9434 16.9466C22.9419 16.8056 22.9419 16.8056 22.9404 16.6617C22.9426 15.8355 22.9426 15.8355 23.2034 15.4689C23.4478 15.3467 23.7198 15.3364 23.9846 15.3908Z" fill="white"/>
<path d="M25.9031 17.2161C26.0001 17.2159 26.0001 17.2159 26.0992 17.2156C26.2358 17.2157 26.3724 17.2167 26.5089 17.2186C26.7178 17.2213 26.9265 17.2203 27.1354 17.2187C27.2682 17.2193 27.4011 17.22 27.5339 17.221C27.6275 17.2204 27.6275 17.2204 27.7229 17.2199C28.0061 17.2259 28.17 17.2402 28.3983 17.4145C28.5252 17.5915 28.5578 17.675 28.5544 17.8903C28.5553 17.9418 28.5561 17.9934 28.5569 18.0465C28.4939 18.2836 28.3981 18.3662 28.2029 18.5153C27.9701 18.5473 27.7667 18.561 27.5339 18.5595C27.4692 18.56 27.4045 18.5605 27.3378 18.561C27.2013 18.5616 27.0647 18.5613 26.9281 18.5603C26.7192 18.5592 26.5105 18.5619 26.3016 18.5649C26.1688 18.5649 26.0359 18.5648 25.9031 18.5644C25.8407 18.5654 25.7784 18.5665 25.7142 18.5676C25.4075 18.5624 25.2657 18.545 25.0385 18.3315C24.8945 18.0767 24.8736 17.9444 24.9216 17.6559C25.1673 17.221 25.4391 17.2084 25.9031 17.2161Z" fill="white"/>
<path d="M23.246 9.11717C23.4214 9.11582 23.5968 9.1124 23.7722 9.10895C23.8841 9.10815 23.9961 9.10749 24.108 9.10696C24.2606 9.10525 24.2606 9.10525 24.4162 9.10351C24.7317 9.14619 24.8582 9.22664 25.0782 9.45273C25.1756 9.73895 25.1847 9.86206 25.0538 10.1363C24.9219 10.3121 24.9219 10.3121 24.7657 10.4684C24.5677 10.4849 24.3785 10.4921 24.1804 10.4919C24.1224 10.4922 24.0644 10.4925 24.0046 10.4929C23.8818 10.4933 23.759 10.4934 23.6362 10.493C23.4486 10.4928 23.2611 10.4946 23.0735 10.4966C22.9542 10.4968 22.8348 10.4968 22.7155 10.4967C22.6595 10.4975 22.6035 10.4982 22.5458 10.4989C22.2999 10.4966 22.134 10.4825 21.919 10.3585C21.7359 10.1717 21.7261 10.0187 21.7051 9.76553C21.7272 9.51327 21.8523 9.38712 22.0313 9.21835C22.3814 9.04332 22.8567 9.11924 23.246 9.11717Z" fill="white"/>
<path d="M8.67203 16.9527C8.95955 17.3241 8.92364 17.6123 8.87406 18.0602C8.81733 18.3336 8.72546 18.4872 8.51578 18.6715C8.29011 18.7843 8.14106 18.779 7.89078 18.7496C7.66617 18.608 7.66617 18.608 7.50016 18.359C7.41761 17.8536 7.46503 17.3895 7.73453 16.9527C8.06207 16.7253 8.31882 16.8023 8.67203 16.9527Z" fill="white"/>
<path d="M8.67175 14.7656C8.87958 14.8901 8.87958 14.8901 9.06238 15.0781C9.10876 15.3342 9.10876 15.3342 9.10144 15.6201C9.10063 15.7143 9.09983 15.8084 9.099 15.9054C9.0605 16.1855 8.99664 16.3381 8.828 16.5625C8.58352 16.6847 8.31153 16.6951 8.04675 16.6406C7.82183 16.4747 7.74342 16.3846 7.69824 16.1063C7.70046 16.0264 7.70267 15.9465 7.70496 15.8642C7.70596 15.7846 7.70697 15.7049 7.70801 15.6229C7.74298 15.3134 7.80912 15.0843 8.02722 14.8584C8.26386 14.7335 8.40722 14.7278 8.67175 14.7656Z" fill="white"/>
<path d="M5.15615 12.5782C5.41982 12.7393 5.41982 12.7393 5.54677 12.9688C5.59072 13.2471 5.59072 13.2471 5.54677 13.5157C5.40091 13.7004 5.28735 13.8016 5.07802 13.9063C4.92525 13.9159 4.77211 13.92 4.61904 13.921C4.53706 13.9221 4.45508 13.9232 4.37062 13.9243C4.14326 13.9065 4.01803 13.8719 3.82802 13.7501C3.62781 13.5022 3.66803 13.261 3.6968 12.9612C3.90311 12.3838 4.66939 12.5178 5.15615 12.5782Z" fill="white"/>
<path d="M7.34375 12.5785C7.60254 12.7397 7.60254 12.7397 7.73438 12.9692C7.79353 13.3004 7.77006 13.4539 7.60254 13.7455C7.20523 13.9929 6.78402 13.9885 6.32812 13.9067C6.07022 13.7387 5.95919 13.6579 5.85938 13.3647C5.85938 13.0783 5.91939 12.959 6.09375 12.7348C6.47548 12.4803 6.89802 12.525 7.34375 12.5785Z" fill="white"/>
<path d="M5.54688 15.6246C5.74707 15.7418 5.74707 15.7418 5.85938 15.9371C5.94127 16.3151 5.94127 16.3151 5.85938 16.5621C5.60973 16.8684 5.33516 17.1352 4.95026 17.2469C4.71108 17.2706 4.58461 17.2248 4.375 17.109C4.19101 16.9313 4.14554 16.8247 4.10156 16.5719C4.15458 16.2405 4.29925 16.0963 4.53125 15.859C4.57637 15.8106 4.62148 15.7623 4.66797 15.7125C4.95395 15.5695 5.23447 15.5747 5.54688 15.6246Z" fill="white"/>
<path d="M6.95299 14.2973C7.1776 14.4096 7.1776 14.4096 7.34362 14.6098C7.41702 14.8616 7.41927 15.0614 7.34362 15.3129C7.0809 15.6326 6.76255 15.9157 6.34264 15.9623C6.02937 15.9316 5.91514 15.8558 5.70299 15.6254C5.61309 15.3613 5.6 15.223 5.69811 14.9614C6.02082 14.5702 6.41383 14.1775 6.95299 14.2973Z" fill="white"/>
</svg>
