<svg width="30" height="30" viewBox="0 0 30 30" fill="none" xmlns="http://www.w3.org/2000/svg">
<g clip-path="url(#clip0_58_527)">
<path d="M25.3125 2.34375H19.2188V0.468752C19.2188 0.344432 19.1694 0.225203 19.0815 0.137296C18.9936 0.0493879 18.8743 1.87888e-06 18.75 1.87888e-06H9.26531C8.37968 -0.000834284 7.5163 0.27744 6.79784 0.79529C6.07938 1.31314 5.54237 2.04423 5.26313 2.88469L4.43531 5.36906C4.29164 5.79916 4.2185 6.24967 4.21875 6.70313V24.375C4.21875 24.4993 4.26814 24.6186 4.35604 24.7065C4.44395 24.7944 4.56318 24.8438 4.6875 24.8438C4.81182 24.8438 4.93105 24.7944 5.01896 24.7065C5.10686 24.6186 5.15625 24.4993 5.15625 24.375V10.3125H16.4063V28.5938C16.4063 28.7181 16.3569 28.8373 16.269 28.9252C16.1811 29.0131 16.0618 29.0625 15.9375 29.0625H5.625C5.50068 29.0625 5.38145 29.0131 5.29354 28.9252C5.20564 28.8373 5.15625 28.7181 5.15625 28.5938V26.25C5.15625 26.1257 5.10686 26.0065 5.01896 25.9185C4.93105 25.8306 4.81182 25.7813 4.6875 25.7813C4.56318 25.7813 4.44395 25.8306 4.35604 25.9185C4.26814 26.0065 4.21875 26.1257 4.21875 26.25V28.5938C4.21875 28.9667 4.36691 29.3244 4.63063 29.5881C4.89435 29.8518 5.25204 30 5.625 30H15.9375C16.3105 30 16.6681 29.8518 16.9319 29.5881C17.1956 29.3244 17.3438 28.9667 17.3438 28.5938V8.4375C17.3438 8.31318 17.2944 8.19395 17.2065 8.10604C17.1186 8.01814 16.9993 7.96875 16.875 7.96875C16.7507 7.96875 16.6315 8.01814 16.5435 8.10604C16.4556 8.19395 16.4063 8.31318 16.4063 8.4375V9.375H5.15625V6.70313C5.15618 6.35054 5.21301 6.00026 5.32453 5.66578L6.15234 3.18141C6.36959 2.52769 6.78728 1.95905 7.3461 1.55624C7.90492 1.15343 8.57645 0.936932 9.26531 0.937502H16.4063V6.5625C16.4063 6.68682 16.4556 6.80605 16.5435 6.89396C16.6315 6.98187 16.7507 7.03125 16.875 7.03125C16.9993 7.03125 17.1186 6.98187 17.2065 6.89396C17.2944 6.80605 17.3438 6.68682 17.3438 6.5625V5.625H18.75C18.8743 5.625 18.9936 5.57562 19.0815 5.48771C19.1694 5.3998 19.2188 5.28057 19.2188 5.15625V3.28125H25.3125C25.4368 3.28125 25.556 3.23187 25.644 3.14396C25.7319 3.05605 25.7812 2.93682 25.7812 2.8125C25.7812 2.68818 25.7319 2.56895 25.644 2.48105C25.556 2.39314 25.4368 2.34375 25.3125 2.34375ZM18.2813 4.6875H17.3438V0.937502H18.2813V4.6875Z" fill="white"/>
<path d="M10.7813 15.9376C11.1501 15.9377 11.5169 15.9922 11.8697 16.0993C11.9884 16.1344 12.1161 16.1211 12.225 16.0623C12.3339 16.0036 12.4152 15.9041 12.4511 15.7857C12.487 15.6673 12.4746 15.5395 12.4166 15.4301C12.3586 15.3208 12.2598 15.2389 12.1416 15.2021C11.1428 14.8982 10.0711 14.9367 9.09658 15.3114C8.1221 15.6861 7.30072 16.3756 6.76283 17.2704C6.22495 18.1653 6.00139 19.2141 6.12765 20.2505C6.25391 21.2869 6.72276 22.2514 7.45975 22.9909C7.46121 22.9951 7.46361 22.999 7.46678 23.0021C7.46995 23.0053 7.47379 23.0077 7.47803 23.0092C8.36541 23.85 9.54614 24.3108 10.7685 24.2935C11.9908 24.2762 13.158 23.7821 14.0212 22.9165C14.8844 22.0509 15.3753 20.8823 15.3893 19.66C15.4032 18.4376 14.9391 17.2581 14.0958 16.3731C14.0079 16.2852 13.8887 16.2358 13.7644 16.2358C13.6401 16.2358 13.5209 16.2852 13.433 16.3731L11.754 18.0521C10.7002 17.2037 9.4599 17.0307 8.7924 17.6987C8.1249 18.3667 8.29787 19.6065 9.14584 20.6603L7.82256 21.9845C7.39078 21.4311 7.12328 20.7674 7.05059 20.0692C6.97789 19.3711 7.10294 18.6665 7.41144 18.036C7.71995 17.4055 8.1995 16.8744 8.79535 16.5034C9.39121 16.1324 10.0794 15.9363 10.7813 15.9376ZM10.7813 23.4376C9.94881 23.4377 9.14024 23.1592 8.48443 22.6464L9.80584 21.3249C10.3323 21.7823 10.9966 22.0506 11.693 22.0871C11.8911 22.0942 12.0885 22.0615 12.2737 21.991C12.4588 21.9205 12.628 21.8135 12.7712 21.6765C13.4387 21.0085 13.2657 19.7687 12.4177 18.7149L13.7415 17.3907C14.1724 17.9445 14.4391 18.6082 14.5113 19.3061C14.5834 20.0041 14.4581 20.7083 14.1496 21.3385C13.8411 21.9687 13.3618 22.4996 12.7663 22.8707C12.1707 23.2419 11.483 23.4383 10.7813 23.4376ZM11.7502 19.3815C12.2527 20.0504 12.3722 20.7484 12.1074 21.0137C11.8426 21.279 11.1437 21.1585 10.4752 20.6565L11.7502 19.3815ZM9.45334 18.3615C9.56778 18.2629 9.71651 18.2133 9.86725 18.2237C10.3148 18.2604 10.7402 18.4337 11.086 18.7201L9.8124 19.9937C9.3099 19.3248 9.19037 18.6268 9.45522 18.3615H9.45334Z" fill="white"/>
</g>
<defs>
<clipPath id="clip0_58_527">
<rect width="30" height="30" fill="white"/>
</clipPath>
</defs>
</svg>
