<svg width="40" height="40" viewBox="0 0 40 40" fill="none" xmlns="http://www.w3.org/2000/svg">
<g clip-path="url(#clip0_737_17)">
<path d="M28.2088 18.7587L22.95 16.2775C22.6291 16.1251 22.3578 15.885 22.1676 15.585C21.9774 15.2849 21.8759 14.9371 21.875 14.5819V8.38375L25.2588 5H26.25V11.1431C25.8847 11.0134 25.5684 10.7738 25.3447 10.4573C25.1209 10.1407 25.0005 9.76267 25 9.375C25 9.20924 24.9342 9.05027 24.8169 8.93306C24.6997 8.81585 24.5408 8.75 24.375 8.75C24.2092 8.75 24.0503 8.81585 23.9331 8.93306C23.8158 9.05027 23.75 9.20924 23.75 9.375C23.751 10.2035 24.0806 10.9978 24.6664 11.5836C25.2522 12.1694 26.0465 12.499 26.875 12.5C27.0408 12.5 27.1997 12.4342 27.3169 12.3169C27.4342 12.1997 27.5 12.0408 27.5 11.875V5H28.75C28.9158 5 29.0747 4.93415 29.1919 4.81694C29.3092 4.69973 29.375 4.54076 29.375 4.375V0.625C29.375 0.45924 29.3092 0.300269 29.1919 0.183058C29.0747 0.065848 28.9158 0 28.75 0L16.7575 0C16.2646 0.000524494 15.7787 0.117221 15.3394 0.340625L10.9644 2.56813C10.862 2.62071 10.7762 2.70053 10.7163 2.79879C10.6564 2.89705 10.6248 3.00993 10.625 3.125V5.625C10.625 5.79076 10.6908 5.94973 10.8081 6.06694C10.9253 6.18415 11.0842 6.25 11.25 6.25C12.3926 6.25463 13.4877 6.70745 14.2999 7.5111C15.1121 8.31475 15.5764 9.40504 15.5931 10.5475L15.62 11.6862L10.5575 18.9988C10.1939 19.5218 9.99936 20.1436 10 20.7806V31.875C10 32.0408 10.0658 32.1997 10.1831 32.3169C10.3003 32.4342 10.4592 32.5 10.625 32.5C10.7908 32.5 10.9497 32.4342 11.0669 32.3169C11.1842 32.1997 11.25 32.0408 11.25 31.875V20.7806C11.2497 20.3994 11.3659 20.0271 11.5831 19.7137L16.5775 12.5H20.625V14.5819C20.6265 15.174 20.7955 15.7535 21.1125 16.2537C21.4295 16.7538 21.8815 17.154 22.4163 17.4081L27.675 19.8888C27.9959 20.0413 28.2672 20.2815 28.4574 20.5817C28.6476 20.8818 28.749 21.2297 28.75 21.585V36.875C28.75 37.3723 28.5525 37.8492 28.2008 38.2008C27.8492 38.5525 27.3723 38.75 26.875 38.75H13.125C12.6277 38.75 12.1508 38.5525 11.7992 38.2008C11.4475 37.8492 11.25 37.3723 11.25 36.875V34.375C11.25 34.2092 11.1842 34.0503 11.0669 33.9331C10.9497 33.8158 10.7908 33.75 10.625 33.75C10.4592 33.75 10.3003 33.8158 10.1831 33.9331C10.0658 34.0503 10 34.2092 10 34.375V36.875C10.001 37.7035 10.3306 38.4978 10.9164 39.0836C11.5022 39.6694 12.2965 39.999 13.125 40H26.875C27.7035 39.999 28.4978 39.6694 29.0836 39.0836C29.6694 38.4978 29.999 37.7035 30 36.875V21.585C29.9985 20.9929 29.8296 20.4133 29.5126 19.9132C29.1956 19.413 28.7436 19.0128 28.2088 18.7587ZM28.125 3.75H25.625V1.25H28.125V3.75ZM16.8606 11.25L16.8431 10.525C16.8212 9.16317 16.3053 7.85568 15.3914 6.8458C14.4775 5.83591 13.2279 5.1924 11.875 5.035V3.50812L15.9063 1.45437C16.1701 1.32048 16.4617 1.25047 16.7575 1.25H24.375V4.11625L20.8081 7.68313C20.6909 7.80031 20.625 7.95925 20.625 8.125V11.25H16.8606Z" fill="#299B46"/>
<path d="M20.0005 23.75C20.4924 23.7503 20.9816 23.8229 21.4523 23.9656C21.6096 24.0088 21.7774 23.9889 21.9202 23.91C22.0629 23.8312 22.1691 23.6997 22.2163 23.5436C22.2634 23.3876 22.2477 23.2192 22.1725 23.0746C22.0972 22.9299 21.9684 22.8204 21.8136 22.7694C20.4822 22.3645 19.0536 22.4158 17.7547 22.9152C16.4557 23.4146 15.3608 24.3335 14.6435 25.5261C13.9263 26.7187 13.6278 28.1166 13.7955 29.4981C13.9632 30.8796 14.5875 32.1655 15.5692 33.1519C15.5742 33.1569 15.5755 33.1644 15.5811 33.1694C15.5867 33.1744 15.5936 33.1762 15.5986 33.1812C16.7821 34.302 18.3566 34.9161 19.9864 34.8926C21.6161 34.869 23.1723 34.2097 24.3229 33.0553C25.4735 31.9008 26.1276 30.3425 26.1457 28.7127C26.1639 27.0828 25.5445 25.5104 24.4198 24.3306C24.3026 24.2134 24.1437 24.1476 23.978 24.1476C23.8122 24.1476 23.6533 24.2134 23.5361 24.3306L21.2998 26.5669C20.7815 26.136 20.1769 25.8213 19.5267 25.6437C19.1588 25.4995 18.7569 25.4657 18.3701 25.5465C17.9833 25.6273 17.6284 25.8191 17.349 26.0986C17.0696 26.378 16.8778 26.7328 16.797 27.1196C16.7162 27.5064 16.75 27.9084 16.8942 28.2762C17.0717 28.9264 17.3865 29.5311 17.8173 30.0494L16.0555 31.8125C15.4798 31.0746 15.1231 30.1897 15.0262 29.2588C14.9293 28.3279 15.096 27.3886 15.5073 26.5479C15.9187 25.7072 16.5581 24.9991 17.3525 24.5044C18.147 24.0097 19.0646 23.7483 20.0005 23.75ZM20.0005 33.75C18.8905 33.7501 17.8124 33.3787 16.938 32.695L18.6998 30.9331C19.2182 31.364 19.8228 31.6787 20.473 31.8562C20.713 31.9175 20.9596 31.9492 21.2073 31.9506C21.4723 31.9597 21.7365 31.9157 21.9843 31.8214C22.2321 31.7271 22.4586 31.5842 22.6505 31.4012C22.91 31.1097 23.0886 30.7552 23.1684 30.3732C23.2482 29.9911 23.2265 29.5948 23.1055 29.2237C22.928 28.5735 22.6132 27.9689 22.1823 27.4506L23.9473 25.6875C24.5219 26.4259 24.8775 27.3107 24.9737 28.2414C25.0699 29.172 24.9028 30.1109 24.4915 30.9512C24.0801 31.7915 23.4411 32.4993 22.6471 32.9942C21.8531 33.489 20.936 33.7509 20.0005 33.75ZM21.2923 28.3419C21.5682 28.6937 21.7727 29.096 21.8942 29.5262C21.9573 29.6889 21.9789 29.8646 21.9571 30.0377C21.9353 30.2107 21.8707 30.3756 21.7692 30.5175C21.6271 30.6185 21.4623 30.6828 21.2893 30.7046C21.1164 30.7264 20.9407 30.7051 20.778 30.6425C20.3477 30.521 19.9454 30.3165 19.5936 30.0406L21.2923 28.3419ZM18.1048 27.9737C18.0418 27.8111 18.0202 27.6354 18.042 27.4623C18.0638 27.2893 18.1284 27.1244 18.2298 26.9825C18.3824 26.8493 18.5815 26.7819 18.7836 26.795C18.9313 26.7967 19.0782 26.8165 19.2211 26.8537C19.6513 26.9753 20.0537 27.1797 20.4055 27.4556L18.7055 29.1556C18.431 28.8043 18.2276 28.4029 18.1067 27.9737H18.1048Z" fill="#299B46"/>
</g>
<defs>
<clipPath id="clip0_737_17">
<rect width="40" height="40" fill="white"/>
</clipPath>
</defs>
</svg>
