<svg width="30" height="30" viewBox="0 0 30 30" fill="none" xmlns="http://www.w3.org/2000/svg">
<path d="M23.4375 14.4797C23.4388 13.1893 22.9549 11.9456 22.0819 10.9955L18.2813 6.84891V1.40625C18.2813 1.03329 18.1331 0.675604 17.8694 0.411881C17.6056 0.148158 17.248 0 16.875 0L13.125 0C12.752 0 12.3944 0.148158 12.1306 0.411881C11.8669 0.675604 11.7188 1.03329 11.7188 1.40625V6.84891L7.91813 10.9955C7.04506 11.9456 6.56117 13.1893 6.5625 14.4797C6.5625 14.4886 6.56719 14.4966 6.56766 14.5055C6.56813 14.5144 6.5625 14.5219 6.5625 14.5312V27.6562C6.56325 28.2776 6.81042 28.8733 7.24979 29.3127C7.68917 29.7521 8.28488 29.9993 8.90625 30H21.0938C21.7151 29.9993 22.3108 29.7521 22.7502 29.3127C23.1896 28.8733 23.4368 28.2776 23.4375 27.6562V14.5312C23.4375 14.5219 23.4328 14.5144 23.4323 14.5055C23.4319 14.4966 23.4375 14.4886 23.4375 14.4797ZM12.6563 1.40625C12.6563 1.28193 12.7056 1.1627 12.7935 1.07479C12.8815 0.986886 13.0007 0.9375 13.125 0.9375H16.875C16.9993 0.9375 17.1186 0.986886 17.2065 1.07479C17.2944 1.1627 17.3438 1.28193 17.3438 1.40625V6.5625H12.6563V1.40625ZM21.0938 29.0625H8.90625C8.53329 29.0625 8.17561 28.9143 7.91188 28.6506C7.64816 28.3869 7.5 28.0292 7.5 27.6562V27.1875H18.75C18.8743 27.1875 18.9936 27.1381 19.0815 27.0502C19.1694 26.9623 19.2188 26.8431 19.2188 26.7188C19.2188 26.5944 19.1694 26.4752 19.0815 26.3873C18.9936 26.2994 18.8743 26.25 18.75 26.25H7.5V15H9.375C9.49932 15 9.61855 14.9506 9.70646 14.8627C9.79437 14.7748 9.84375 14.6556 9.84375 14.5312C9.84375 14.4069 9.79437 14.2877 9.70646 14.1998C9.61855 14.1119 9.49932 14.0625 9.375 14.0625H7.52157C7.61041 13.1549 7.99212 12.3008 8.60906 11.6292L12.3938 7.5H17.6063L21.3909 11.6292C22.0079 12.3008 22.3896 13.1549 22.4784 14.0625H11.25C11.1257 14.0625 11.0065 14.1119 10.9185 14.1998C10.8306 14.2877 10.7813 14.4069 10.7813 14.5312C10.7813 14.6556 10.8306 14.7748 10.9185 14.8627C11.0065 14.9506 11.1257 15 11.25 15H22.5V26.25H20.625C20.5007 26.25 20.3815 26.2994 20.2935 26.3873C20.2056 26.4752 20.1563 26.5944 20.1563 26.7188C20.1563 26.8431 20.2056 26.9623 20.2935 27.0502C20.3815 27.1381 20.5007 27.1875 20.625 27.1875H22.5V27.6562C22.5 28.0292 22.3518 28.3869 22.0881 28.6506C21.8244 28.9143 21.4667 29.0625 21.0938 29.0625Z" fill="white"/>
<path d="M17.6518 17.3104L15.9746 18.9876C15.5858 18.6645 15.1324 18.4284 14.6447 18.2953C14.3688 18.1871 14.0673 18.1617 13.7772 18.2223C13.4871 18.2829 13.221 18.4268 13.0115 18.6364C12.8019 18.8459 12.658 19.112 12.5974 19.4021C12.5368 19.6922 12.5622 19.9937 12.6704 20.2696C12.8036 20.7572 13.0397 21.2107 13.3627 21.5995L12.0413 22.9218C11.5534 22.2938 11.278 21.5267 11.2549 20.7318C11.2319 19.9368 11.4624 19.1551 11.9131 18.4998C12.3638 17.8446 13.0114 17.3497 13.762 17.0869C14.5127 16.8241 15.3275 16.807 16.0885 17.0381C16.1475 17.0564 16.2096 17.0629 16.2712 17.0572C16.3328 17.0514 16.3926 17.0335 16.4472 17.0046C16.5019 16.9756 16.5502 16.9361 16.5895 16.8884C16.6288 16.8406 16.6583 16.7856 16.6762 16.7264C16.6942 16.6672 16.7002 16.6051 16.694 16.5435C16.6878 16.482 16.6695 16.4223 16.6402 16.3679C16.6108 16.3135 16.571 16.2654 16.5229 16.2264C16.4749 16.1875 16.4197 16.1584 16.3604 16.1409C15.3621 15.8396 14.2919 15.8797 13.319 16.255C12.3461 16.6302 11.5262 17.3191 10.9888 18.2127C10.4514 19.1063 10.2273 20.1536 10.352 21.1888C10.4766 22.2241 10.9429 23.1882 11.6771 23.9287C11.6808 23.9324 11.6818 23.9371 11.6855 23.9409C11.6893 23.9446 11.6939 23.9456 11.6977 23.9488C12.5841 24.796 13.7672 25.2622 14.9933 25.2473C16.2193 25.2324 17.3908 24.7378 18.2564 23.8693C19.122 23.0009 19.6129 21.8278 19.6238 20.6017C19.6346 19.3756 19.1646 18.1941 18.3146 17.3104C18.2267 17.2225 18.1075 17.1732 17.9832 17.1732C17.8589 17.1732 17.7397 17.2225 17.6518 17.3104ZM16.4204 21.2076C16.4676 21.3296 16.4838 21.4614 16.4674 21.5912C16.4511 21.7209 16.4027 21.8446 16.3266 21.951C16.2202 22.0271 16.0965 22.0755 15.9667 22.0919C15.837 22.1082 15.7051 22.0921 15.5832 22.0448C15.2606 21.9534 14.9588 21.8001 14.6949 21.5934L15.9699 20.3184C16.1766 20.5826 16.3297 20.8846 16.4204 21.2076ZM13.5797 20.0423C13.5325 19.9203 13.5163 19.7885 13.5326 19.6587C13.549 19.5289 13.5974 19.4053 13.6735 19.2988C13.7877 19.199 13.9369 19.1484 14.0883 19.1582C14.1991 19.1596 14.3093 19.1744 14.4164 19.2023C14.7391 19.2936 15.0408 19.447 15.3047 19.6537L14.0297 20.9287C13.8235 20.6653 13.6706 20.3642 13.5797 20.0423ZM15 24.3749C14.1674 24.3752 13.3588 24.0965 12.7032 23.5832L14.0246 22.2623C14.4133 22.5854 14.8668 22.8215 15.3544 22.9546C15.5346 23.0007 15.7197 23.0247 15.9057 23.0259C16.1043 23.0325 16.3023 22.9995 16.4881 22.9287C16.6738 22.858 16.8436 22.7509 16.9875 22.6138C17.1822 22.3951 17.3161 22.1292 17.376 21.8426C17.4359 21.5559 17.4196 21.2586 17.3288 20.9803C17.1955 20.4926 16.9595 20.0392 16.6364 19.6504L17.9602 18.3281C18.3911 18.8818 18.6578 19.5455 18.73 20.2435C18.8021 20.9414 18.6768 21.6456 18.3683 22.2758C18.0598 22.9061 17.5805 23.437 16.985 23.8081C16.3895 24.1792 15.7017 24.3756 15 24.3749Z" fill="white"/>
<path d="M14.0625 1.875C13.9382 1.875 13.819 1.92439 13.731 2.01229C13.6431 2.1002 13.5938 2.21943 13.5938 2.34375V5.15625C13.5938 5.28057 13.6431 5.3998 13.731 5.48771C13.819 5.57561 13.9382 5.625 14.0625 5.625C14.1868 5.625 14.306 5.57561 14.394 5.48771C14.4819 5.3998 14.5312 5.28057 14.5312 5.15625V2.34375C14.5312 2.21943 14.4819 2.1002 14.394 2.01229C14.306 1.92439 14.1868 1.875 14.0625 1.875Z" fill="white"/>
<path d="M15.9375 1.875C15.8132 1.875 15.694 1.92439 15.606 2.01229C15.5181 2.1002 15.4688 2.21943 15.4688 2.34375V5.15625C15.4688 5.28057 15.5181 5.3998 15.606 5.48771C15.694 5.57561 15.8132 5.625 15.9375 5.625C16.0618 5.625 16.181 5.57561 16.269 5.48771C16.3569 5.3998 16.4062 5.28057 16.4062 5.15625V2.34375C16.4062 2.21943 16.3569 2.1002 16.269 2.01229C16.181 1.92439 16.0618 1.875 15.9375 1.875Z" fill="white"/>
</svg>
