<svg width="30" height="30" viewBox="0 0 30 30" fill="none" xmlns="http://www.w3.org/2000/svg">
<path d="M12.6562 6.5625V5.625H14.0625C14.4355 5.625 14.7931 5.47684 15.0569 5.21312C15.3206 4.9494 15.4688 4.59171 15.4688 4.21875V1.40625C15.4688 1.03329 15.3206 0.675604 15.0569 0.411881C14.7931 0.148158 14.4355 0 14.0625 0L8.4375 0C8.06454 0 7.70685 0.148158 7.44313 0.411881C7.17941 0.675604 7.03125 1.03329 7.03125 1.40625V4.21875C7.03125 4.59171 7.17941 4.9494 7.44313 5.21312C7.70685 5.47684 8.06454 5.625 8.4375 5.625H9.84375V6.5625C8.47672 6.56411 7.16615 7.10788 6.19951 8.07451C5.23288 9.04115 4.68911 10.3517 4.6875 11.7188V28.5938C4.6875 28.9667 4.83566 29.3244 5.09938 29.5881C5.3631 29.8518 5.72079 30 6.09375 30H16.4062C16.7792 30 17.1369 29.8518 17.4006 29.5881C17.6643 29.3244 17.8125 28.9667 17.8125 28.5938V11.7188C17.8109 10.3517 17.2671 9.04115 16.3005 8.07451C15.3339 7.10788 14.0233 6.56411 12.6562 6.5625ZM10.3125 4.6875H8.4375C8.31318 4.6875 8.19395 4.63811 8.10604 4.55021C8.01814 4.4623 7.96875 4.34307 7.96875 4.21875V1.40625C7.96875 1.28193 8.01814 1.1627 8.10604 1.07479C8.19395 0.986886 8.31318 0.9375 8.4375 0.9375H14.0625C14.1868 0.9375 14.306 0.986886 14.394 1.07479C14.4819 1.1627 14.5312 1.28193 14.5312 1.40625V4.21875C14.5312 4.34307 14.4819 4.4623 14.394 4.55021C14.306 4.63811 14.1868 4.6875 14.0625 4.6875H12.1875C12.0632 4.6875 11.944 4.73689 11.856 4.82479C11.7681 4.9127 11.7188 5.03193 11.7188 5.15625V6.5625H10.7812V5.15625C10.7812 5.03193 10.7319 4.9127 10.644 4.82479C10.556 4.73689 10.4368 4.6875 10.3125 4.6875ZM16.4062 29.0625H6.09375C5.96943 29.0625 5.8502 29.0131 5.76229 28.9252C5.67439 28.8373 5.625 28.7181 5.625 28.5938V24.8438H13.5938C13.7181 24.8438 13.8373 24.7944 13.9252 24.7065C14.0131 24.6185 14.0625 24.4993 14.0625 24.375C14.0625 24.2507 14.0131 24.1315 13.9252 24.0435C13.8373 23.9556 13.7181 23.9062 13.5938 23.9062H5.625V12.6562H16.875V23.9062H15.4688C15.3444 23.9062 15.2252 23.9556 15.1373 24.0435C15.0494 24.1315 15 24.2507 15 24.375C15 24.4993 15.0494 24.6185 15.1373 24.7065C15.2252 24.7944 15.3444 24.8438 15.4688 24.8438H16.875V28.5938C16.875 28.7181 16.8256 28.8373 16.7377 28.9252C16.6498 29.0131 16.5306 29.0625 16.4062 29.0625ZM5.625 11.7188C5.62624 10.6002 6.07111 9.52791 6.86201 8.73701C7.65291 7.94611 8.72525 7.50124 9.84375 7.5H12.6562C13.7748 7.50124 14.8471 7.94611 15.638 8.73701C16.4289 9.52791 16.8738 10.6002 16.875 11.7188H5.625Z" fill="white"/>
<path d="M14.5646 14.9667C14.4767 14.8788 14.3575 14.8295 14.2332 14.8295C14.1089 14.8295 13.9897 14.8788 13.9018 14.9667L12.2246 16.6439C11.8358 16.3208 11.3824 16.0847 10.8947 15.9516C10.6164 15.8612 10.3193 15.8451 10.0329 15.9049C9.74643 15.9647 9.48057 16.0982 9.26161 16.2923C9.06696 16.5111 8.93304 16.777 8.87316 17.0636C8.81329 17.3503 8.82956 17.6476 8.92036 17.9259C9.0536 18.4135 9.28967 18.867 9.6127 19.2558L8.29129 20.5781C7.80337 19.9501 7.52796 19.183 7.50491 18.3881C7.48187 17.5931 7.7124 16.8114 8.16312 16.1561C8.61385 15.5009 9.26139 15.006 10.012 14.7433C10.7627 14.4805 11.5775 14.4633 12.3385 14.6944C12.3975 14.7127 12.4596 14.7192 12.5212 14.7135C12.5828 14.7077 12.6426 14.6898 12.6972 14.6609C12.7519 14.6319 12.8002 14.5924 12.8395 14.5447C12.8788 14.4969 12.9083 14.4419 12.9262 14.3827C12.9442 14.3235 12.9502 14.2614 12.944 14.1998C12.9378 14.1383 12.9195 14.0786 12.8902 14.0242C12.8608 13.9698 12.821 13.9217 12.7729 13.8827C12.7249 13.8438 12.6697 13.8147 12.6104 13.7972C11.6121 13.4959 10.5419 13.536 9.56901 13.9113C8.59614 14.2865 7.77616 14.9754 7.23878 15.869C6.70141 16.7626 6.47732 17.8099 6.60199 18.8451C6.72665 19.8804 7.19293 20.8445 7.92707 21.585C7.93082 21.5888 7.93176 21.5934 7.93551 21.5972C7.93926 21.6009 7.94395 21.6019 7.9477 21.6052C8.83412 22.4523 10.0172 22.9185 11.2433 22.9036C12.4693 22.8888 13.6408 22.3941 14.5064 21.5256C15.372 20.6572 15.8629 19.4842 15.8738 18.258C15.8846 17.0319 15.4146 15.8504 14.5646 14.9667ZM12.6704 18.8639C12.7176 18.9859 12.7338 19.1177 12.7174 19.2475C12.7011 19.3773 12.6527 19.5009 12.5766 19.6073C12.4702 19.6835 12.3466 19.732 12.2168 19.7484C12.087 19.7647 11.9551 19.7485 11.8332 19.7011C11.5106 19.6098 11.2088 19.4564 10.9449 19.2497L12.2199 17.9747C12.4266 18.2389 12.5797 18.5409 12.6704 18.8639ZM9.82973 17.6986C9.78246 17.5766 9.76628 17.4448 9.78264 17.315C9.79901 17.1852 9.84741 17.0616 9.92348 16.9552C10.0377 16.8553 10.1869 16.8047 10.3383 16.8145C10.4491 16.8159 10.5593 16.8307 10.6664 16.8586C10.9891 16.9499 11.2908 17.1033 11.5547 17.31L10.2797 18.585C10.0735 18.3216 9.92063 18.0205 9.82973 17.6986ZM11.25 22.0313C10.4174 22.0315 9.60877 21.7528 8.95317 21.2395L10.2746 19.9186C10.6633 20.2417 11.1168 20.4778 11.6044 20.6109C11.7846 20.657 11.9697 20.681 12.1557 20.6822C12.3543 20.6888 12.5523 20.6558 12.7381 20.585C12.9238 20.5143 13.0936 20.4073 13.2375 20.2702C13.4322 20.0514 13.5661 19.7855 13.626 19.4989C13.6859 19.2122 13.6696 18.9149 13.5788 18.6366C13.4456 18.149 13.2095 17.6955 12.8864 17.3067L14.2102 15.9844C14.6411 16.5382 14.9078 17.2018 14.98 17.8998C15.0521 18.5977 14.9268 19.3019 14.6183 19.9321C14.3098 20.5624 13.8305 21.0933 13.235 21.4644C12.6395 21.8355 11.9517 22.0319 11.25 22.0313Z" fill="white"/>
<path d="M25.2656 4.47799C25.2381 4.42288 25.2 4.37372 25.1535 4.33334C25.107 4.29295 25.053 4.26213 24.9946 4.24263C24.9362 4.22312 24.8745 4.21533 24.8131 4.21968C24.7516 4.22403 24.6917 4.24044 24.6366 4.26799L22.342 5.41549C22.1075 5.53127 21.9101 5.71049 21.7724 5.9328C21.6346 6.15511 21.5619 6.4116 21.5625 6.67314V11.7188H21.0938C20.9694 11.7188 20.8502 11.7682 20.7623 11.8561C20.6744 11.944 20.625 12.0632 20.625 12.1875V15C20.625 15.1243 20.6744 15.2436 20.7623 15.3315C20.8502 15.4194 20.9694 15.4688 21.0938 15.4688H21.5625V26.25C21.5625 26.623 21.4143 26.9807 21.1506 27.2444C20.8869 27.5081 20.5292 27.6563 20.1562 27.6563H19.2188C19.0944 27.6563 18.9752 27.7057 18.8873 27.7936C18.7994 27.8815 18.75 28.0007 18.75 28.125C18.75 28.2493 18.7994 28.3686 18.8873 28.4565C18.9752 28.5444 19.0944 28.5938 19.2188 28.5938H20.1562C20.7776 28.593 21.3733 28.3459 21.8127 27.9065C22.2521 27.4671 22.4993 26.8714 22.5 26.25V15.4688H22.9688C23.0931 15.4688 23.2123 15.4194 23.3002 15.3315C23.3881 15.2436 23.4375 15.1243 23.4375 15V12.1875C23.4375 12.0632 23.3881 11.944 23.3002 11.8561C23.2123 11.7682 23.0931 11.7188 22.9688 11.7188H22.5V6.67314C22.4997 6.58605 22.5239 6.50061 22.5697 6.42654C22.6155 6.35247 22.6812 6.29272 22.7592 6.25408L25.0533 5.10939C25.1089 5.08211 25.1585 5.04408 25.1994 4.99749C25.2402 4.9509 25.2714 4.89669 25.2911 4.83797C25.3109 4.77926 25.3188 4.71722 25.3144 4.65543C25.31 4.59364 25.2935 4.53333 25.2656 4.47799ZM22.5 14.5313H21.5625V12.6563H22.5V14.5313Z" fill="white"/>
</svg>
