<svg width="40" height="40" viewBox="0 0 40 40" fill="none" xmlns="http://www.w3.org/2000/svg">
<g clip-path="url(#clip0_234_580)">
<path d="M10.2588 1.19617C11.09 1.8222 11.6681 2.55359 11.875 3.59363C11.9913 4.74828 11.8748 5.75244 11.1597 6.69941C10.6249 7.35094 10.0325 7.7952 9.21878 8.04676C9.35746 8.04978 9.35746 8.04978 9.49893 8.05286C10.3872 8.08096 11.1536 8.13806 11.8335 8.77308C12.3055 9.29804 12.5213 9.85071 12.5153 10.5584C12.5151 10.6097 12.5148 10.6611 12.5146 10.714C12.5138 10.8764 12.5118 11.0387 12.5098 11.2011C12.509 11.3118 12.5083 11.4226 12.5077 11.5334C12.5059 11.8035 12.5033 12.0736 12.5 12.3436C12.5677 12.3636 12.6354 12.3837 12.7051 12.4043C12.9757 12.5024 13.1922 12.6291 13.437 12.7794C13.9983 13.0858 14.4568 13.1201 15.087 13.1063C15.2415 13.1066 15.3961 13.1069 15.5506 13.1074C15.764 13.1073 15.9773 13.1048 16.1907 13.1023C16.5657 13.098 16.9408 13.0961 17.3159 13.0965C17.5147 13.0965 17.7136 13.0949 17.9125 13.0916C18.5526 13.09 18.9773 13.1617 19.4748 13.5909C19.539 13.6672 19.539 13.6672 19.6045 13.745C19.6487 13.7957 19.6929 13.8463 19.7385 13.8985C19.8579 14.0843 19.884 14.2373 19.9219 14.453C19.9951 14.4686 20.0682 14.4841 20.1436 14.5002C21.302 14.7504 22.451 15.0391 23.6008 15.3258C23.7748 15.3692 23.9488 15.4126 24.1228 15.4559C24.669 15.5919 25.2152 15.7281 25.7613 15.8645C26.3888 16.0211 27.0163 16.1773 27.6439 16.3331C28.132 16.4543 28.6199 16.5759 29.1078 16.6978C29.3981 16.7703 29.6884 16.8427 29.9789 16.9146C30.2512 16.982 30.5233 17.05 30.7953 17.1183C30.9422 17.1551 31.0892 17.1913 31.2362 17.2275C32.0756 17.4394 32.0756 17.4394 32.4219 17.6561C32.5177 17.8478 32.5089 17.9726 32.5077 18.1865C32.5074 18.26 32.5072 18.3336 32.5069 18.4093C32.5062 18.4862 32.5056 18.5632 32.5049 18.6425C32.5046 18.72 32.5042 18.7976 32.5038 18.8774C32.5029 19.0693 32.5016 19.2612 32.5 19.453C32.5587 19.4746 32.6175 19.4961 32.6779 19.5183C32.8723 19.6014 33.0077 19.6804 33.169 19.8143C33.2344 19.8666 33.2344 19.8666 33.3011 19.9199C33.7894 20.4858 33.7984 21.0509 33.7891 21.7772C33.7903 21.8724 33.7915 21.9676 33.7928 22.0656C33.7924 22.157 33.7919 22.2483 33.7915 22.3424C33.7912 22.4252 33.7908 22.5079 33.7905 22.5932C33.75 22.8124 33.75 22.8124 33.6351 22.9954C33.3412 23.188 33.0789 23.1697 32.7344 23.1664C32.6662 23.1667 32.598 23.167 32.5278 23.1673C32.3839 23.1675 32.2399 23.1669 32.096 23.1656C31.8758 23.1639 31.6558 23.1656 31.4356 23.1676C31.2956 23.1674 31.1556 23.167 31.0157 23.1664C30.9499 23.167 30.8841 23.1677 30.8164 23.1683C30.527 23.1637 30.3609 23.1566 30.1149 22.9954C29.9693 22.7635 29.9597 22.6156 29.9585 22.3424C29.9581 22.2511 29.9577 22.1597 29.9573 22.0656C29.9585 21.9704 29.9597 21.8753 29.961 21.7772C29.9598 21.6833 29.9585 21.5893 29.9573 21.4925C29.9602 20.8421 30.0356 20.3933 30.4688 19.9001C30.5203 19.8573 30.5719 19.8145 30.625 19.7704C30.6766 19.7262 30.7282 19.682 30.7813 19.6364C30.9375 19.5311 30.9375 19.5311 31.25 19.453C31.2242 19.1952 31.1985 18.9374 31.1719 18.6718C27.4594 17.7436 23.7469 16.8155 19.9219 15.8593C19.6899 16.1171 19.4578 16.3749 19.2188 16.6405C18.83 16.8703 18.4866 16.9082 18.0433 16.9015C17.983 16.9015 17.9227 16.9016 17.8606 16.9016C17.6632 16.9014 17.4658 16.8996 17.2684 16.8978C17.1308 16.8973 16.9932 16.897 16.8556 16.8968C16.4948 16.8959 16.1341 16.8936 15.7733 16.891C15.3397 16.8881 14.9061 16.8871 14.4725 16.8857C13.815 16.8834 13.1575 16.879 12.5 16.8749C12.5 18.6022 12.5 20.3296 12.5 22.1093C12.6547 22.1608 12.8094 22.2124 12.9688 22.2655C13.1593 22.3524 13.3471 22.4412 13.5346 22.534C13.5892 22.5607 13.6437 22.5874 13.7 22.6149C13.8791 22.7027 14.058 22.7911 14.2368 22.8795C14.3288 22.925 14.3288 22.925 14.4227 22.9713C14.7468 23.1316 15.0707 23.2922 15.3945 23.4532C15.7286 23.6191 16.0635 23.7835 16.3986 23.9475C16.6566 24.0742 16.914 24.2021 17.1713 24.3304C17.2945 24.3915 17.4179 24.4522 17.5416 24.5124C17.7145 24.5966 17.8864 24.6826 18.0583 24.7691C18.1348 24.8056 18.1348 24.8056 18.2129 24.8429C18.5642 25.0231 18.6956 25.1775 18.8282 25.5468C18.9188 25.8651 18.9951 26.1859 19.0699 26.5083C19.1043 26.6532 19.1043 26.6532 19.1393 26.801C19.2018 27.0648 19.2636 27.3287 19.3252 27.5927C19.3899 27.8691 19.4552 28.1454 19.5204 28.4217C19.6297 28.8852 19.7386 29.3489 19.8472 29.8126C19.9867 30.4083 20.1269 31.0037 20.2673 31.5991C20.388 32.111 20.5084 32.623 20.6288 33.135C20.6675 33.2996 20.7063 33.4643 20.745 33.6289C20.8171 33.9351 20.8888 34.2413 20.9605 34.5475C20.982 34.639 21.0036 34.7305 21.0258 34.8247C21.0452 34.9078 21.0645 34.9908 21.0845 35.0763C21.11 35.1849 21.11 35.1849 21.136 35.2958C21.1719 35.4686 21.1719 35.4686 21.1719 35.6249C21.2621 35.6184 21.3524 35.612 21.4453 35.6054C21.9082 35.6086 22.2416 35.7677 22.5772 36.0836C23.0723 36.6258 23.1626 37.046 23.1488 37.7776C23.0945 38.3918 22.8088 38.7147 22.3514 39.1057C22.0212 39.3333 21.7321 39.3946 21.3344 39.3976C21.2431 39.3986 21.1519 39.3996 21.0579 39.4006C20.9112 39.4009 20.9111 39.4009 20.7614 39.4011C20.6604 39.4016 20.5594 39.4022 20.4553 39.4027C20.242 39.4036 20.0286 39.4039 19.8153 39.4038C19.5421 39.4038 19.269 39.406 18.9959 39.4086C18.7348 39.4108 18.4737 39.4107 18.2126 39.4109C18.1146 39.412 18.0166 39.4131 17.9157 39.4143C17.8247 39.4138 17.7337 39.4133 17.6399 39.4128C17.5199 39.4132 17.5199 39.4132 17.3975 39.4135C17.1241 39.3632 17.0334 39.2897 16.875 39.0624C16.8476 38.8353 16.8476 38.8353 16.8611 38.5665C16.8636 38.4647 16.8661 38.3629 16.8686 38.2579C16.8701 38.2032 16.8715 38.1485 16.873 38.0921C16.9049 36.406 16.4298 34.9136 15.9089 33.3269C15.7929 32.9712 15.6809 32.6142 15.5686 32.2573C15.3848 31.675 15.1993 31.0933 15.0089 30.5132C14.9142 30.2234 14.8235 29.9333 14.7396 29.6403C14.7143 29.5539 14.7143 29.5539 14.6885 29.4658C14.657 29.3573 14.6264 29.2484 14.5969 29.1392C14.5292 28.9085 14.4794 28.7714 14.2908 28.617C14.1126 28.5407 13.9569 28.5097 13.7647 28.4862C13.7046 28.4745 13.6445 28.4628 13.5826 28.4508C13.4635 28.4279 13.3439 28.4071 13.224 28.3886C12.952 28.3435 12.6885 28.2729 12.4219 28.203C12.4185 28.2601 12.4151 28.3171 12.4116 28.3759C12.3607 29.13 12.2594 29.8725 12.1509 30.62C12.1319 30.7525 12.1129 30.885 12.094 31.0175C12.0545 31.293 12.0149 31.5685 11.975 31.8439C11.924 32.1965 11.8734 32.5491 11.8229 32.9018C11.7745 33.2398 11.7259 33.5779 11.6773 33.9159C11.6681 33.9799 11.6589 34.044 11.6494 34.1099C11.6234 34.2912 11.5972 34.4725 11.5709 34.6538C11.5595 34.7337 11.5595 34.7337 11.5478 34.8152C11.5083 35.087 11.4631 35.3562 11.4063 35.6249C11.4997 35.6313 11.5932 35.6378 11.6895 35.6444C12.2041 35.7115 12.5464 36.0095 12.865 36.4028C13.1702 36.8723 13.2554 37.3895 13.1745 37.9387C13.0289 38.4867 12.6539 38.9084 12.1875 39.2186C11.8931 39.3574 11.6588 39.3952 11.3344 39.3976C11.2431 39.3986 11.1519 39.3996 11.0579 39.4006C10.9112 39.4009 10.9112 39.4009 10.7614 39.4011C10.6604 39.4016 10.5594 39.4022 10.4553 39.4027C10.242 39.4036 10.0286 39.4039 9.81527 39.4038C9.54213 39.4038 9.26905 39.406 8.99592 39.4086C8.73482 39.4108 8.47373 39.4107 8.21262 39.4109C8.06564 39.4126 8.06564 39.4126 7.91569 39.4143C7.82469 39.4138 7.73369 39.4133 7.63994 39.4128C7.51992 39.4132 7.51992 39.4132 7.39747 39.4135C7.12318 39.363 7.04543 39.2814 6.87503 39.0624C6.83754 38.8224 6.83754 38.8224 6.83974 38.5347C6.83971 38.4818 6.83967 38.4288 6.83964 38.3742C6.83988 38.1966 6.84235 38.0192 6.84478 37.8416C6.84538 37.7143 6.84583 37.587 6.84614 37.4597C6.84706 37.1854 6.8489 36.9112 6.8514 36.637C6.85523 36.2029 6.85618 35.7688 6.85659 35.3347C6.85814 34.1003 6.86276 32.8659 6.87206 31.6315C6.87717 30.9498 6.87947 30.2681 6.87872 29.5863C6.87841 29.1553 6.88153 28.7244 6.88721 28.2934C6.88993 28.0243 6.88935 27.7554 6.88787 27.4864C6.88783 27.3622 6.88912 27.2381 6.89188 27.1139C6.9102 26.4054 6.9102 26.4054 6.6243 25.772C6.43017 25.5775 6.22969 25.4062 6.01566 25.2343C5.15124 24.2584 4.53369 22.9175 4.41055 21.6232C4.40381 21.5532 4.39707 21.4832 4.39013 21.411C4.38515 21.3579 4.38016 21.3047 4.37503 21.2499C4.27254 21.2515 4.17004 21.2532 4.06444 21.2548C3.68415 21.2605 3.30386 21.2641 2.92354 21.267C2.75894 21.2686 2.59435 21.2708 2.42977 21.2735C2.19317 21.2772 1.95663 21.279 1.72 21.2804C1.60964 21.2828 1.60964 21.2828 1.49704 21.2853C1.42824 21.2853 1.35944 21.2853 1.28856 21.2854C1.22819 21.2861 1.16782 21.2867 1.10561 21.2875C0.862687 21.2331 0.778724 21.1315 0.625033 20.9374C0.585707 20.6948 0.585707 20.6948 0.58535 20.4036C0.584619 20.3232 0.584619 20.3232 0.583873 20.2411C0.582627 20.0614 0.583614 19.8817 0.584597 19.702C0.584173 19.5732 0.583617 19.4443 0.582938 19.3155C0.581512 18.9655 0.582066 18.6156 0.583056 18.2657C0.583847 17.8996 0.583114 17.5336 0.582623 17.1675C0.582054 16.5528 0.582804 15.9381 0.584292 15.3234C0.585992 14.6124 0.585441 13.9015 0.583721 13.1906C0.582303 12.5804 0.582103 11.9703 0.582921 11.3601C0.583408 10.9956 0.583472 10.6311 0.58244 10.2666C0.581538 9.92388 0.582163 9.58122 0.58397 9.23853C0.584383 9.11268 0.584264 8.98683 0.583575 8.86098C0.582723 8.68932 0.58379 8.51778 0.58535 8.34614C0.585468 8.25004 0.585586 8.15395 0.585707 8.05494C0.632445 7.76667 0.708025 7.67467 0.937533 7.49988C1.11327 7.45862 1.11327 7.45862 1.30733 7.45573C1.38037 7.45399 1.4534 7.45224 1.52865 7.45045C1.60711 7.45035 1.68556 7.45024 1.76639 7.45014C1.8477 7.44928 1.92901 7.44843 2.01279 7.44755C2.18484 7.44631 2.35689 7.4459 2.52895 7.44627C2.79105 7.44617 3.0528 7.44151 3.31485 7.43656C3.48229 7.43592 3.64973 7.43556 3.81717 7.43549C3.89499 7.43365 3.97281 7.43181 4.05299 7.42991C4.56251 7.43657 4.82202 7.54483 5.18352 7.9065C5.24738 7.97593 5.24738 7.97593 5.31253 8.04676C5.43132 8.17972 5.43132 8.17972 5.54691 8.28113C5.70145 8.27802 5.70145 8.27802 5.86429 8.22254C6.25168 8.11932 6.63238 8.0784 7.03128 8.04676C6.98304 8.03054 6.9348 8.01433 6.8851 7.99762C5.85662 7.62349 5.08396 6.88692 4.61002 5.90259C4.24362 4.97381 4.20942 3.79424 4.58377 2.85968C5.09089 1.86484 5.85157 1.11011 6.90433 0.712773C8.03322 0.414474 9.28742 0.551478 10.2588 1.19617ZM6.22074 2.75867C6.1493 2.85243 6.08085 2.94855 6.01566 3.04676C5.98343 3.0953 5.9512 3.14384 5.918 3.19385C5.61847 3.74092 5.60641 4.39411 5.70316 4.99988C5.94291 5.77339 6.41066 6.29245 7.11429 6.67469C7.7278 6.91988 8.4793 6.89478 9.09671 6.67469C9.75216 6.36329 10.1827 5.89852 10.4688 5.23426C10.6777 4.59825 10.6209 3.82185 10.3366 3.22193C9.92688 2.51983 9.34881 2.11622 8.56082 1.90143C7.67855 1.76534 6.82221 2.10884 6.22074 2.75867ZM1.87503 8.74988C1.87503 12.4624 1.87503 16.1749 1.87503 19.9999C2.70003 19.9999 3.52503 19.9999 4.37503 19.9999C4.37658 19.7006 4.37813 19.4014 4.37972 19.0931C4.38495 18.1036 4.39101 17.1142 4.3975 16.1248C4.40141 15.525 4.40503 14.9252 4.40799 14.3254C4.41057 13.8024 4.41369 13.2794 4.41744 12.7564C4.4194 12.4796 4.42111 12.2029 4.42217 11.9262C4.42336 11.6167 4.42576 11.3072 4.42825 10.9977C4.42842 10.9067 4.42858 10.8157 4.42876 10.722C4.43278 10.3292 4.44644 9.99517 4.56702 9.62014C4.58101 9.51342 4.595 9.40671 4.60941 9.29676C4.42894 9.11629 4.24847 8.93582 4.06253 8.74988C3.34066 8.74988 2.61878 8.74988 1.87503 8.74988ZM5.94241 9.8241C5.61142 10.3457 5.60273 10.8318 5.60729 11.4328C5.60727 11.5121 5.60725 11.5915 5.60722 11.6732C5.60733 11.934 5.60855 12.1948 5.60977 12.4556C5.61006 12.637 5.61029 12.8184 5.61044 12.9998C5.61104 13.4761 5.61257 13.9525 5.6143 14.4289C5.61619 15.001 5.6169 15.5731 5.61781 16.1452C5.61932 17.0134 5.62232 17.8817 5.62503 18.7499C7.48128 18.7499 9.33753 18.7499 11.25 18.7499C11.25 18.028 11.25 17.3061 11.25 16.5624C11.1152 16.485 10.9803 16.4077 10.8414 16.328C10.3818 16.0641 9.92291 15.799 9.46452 15.5331C9.31951 15.4489 9.17443 15.3649 9.02919 15.2812C7.8827 14.6181 7.8827 14.6181 7.61813 13.9299C7.46917 13.259 7.49031 12.559 7.84213 11.96C8.15165 11.561 8.56349 11.2677 9.06253 11.1718C9.62872 11.1191 10.0798 11.1604 10.5976 11.4006C10.8105 11.4975 11.0274 11.5693 11.25 11.6405C11.3074 10.6632 11.3074 10.6632 10.9149 9.79755C10.4527 9.37115 9.88116 9.35072 9.28775 9.35138C9.18737 9.35088 9.18737 9.35088 9.08496 9.35037C8.94406 9.34992 8.80316 9.34988 8.66226 9.35022C8.44846 9.35047 8.23475 9.34863 8.02097 9.34665C7.88333 9.34648 7.7457 9.34642 7.60806 9.3465C7.51355 9.34542 7.51355 9.34542 7.41712 9.34432C6.89146 9.34853 6.31345 9.41616 5.94241 9.8241ZM8.90628 12.7343C8.77806 12.9907 8.76742 13.2403 8.82816 13.5155C9.25495 13.9471 9.76329 14.2283 10.2881 14.5262C10.4479 14.6181 10.6077 14.71 10.7675 14.8018C10.8377 14.8418 10.9079 14.8818 10.9802 14.923C11.25 15.078 11.25 15.078 11.4406 15.2149C12.1485 15.6922 12.7389 15.701 13.5614 15.6865C13.6921 15.6861 13.8227 15.6859 13.9534 15.6859C14.2254 15.6853 14.4973 15.6829 14.7693 15.679C15.1171 15.6741 15.4648 15.6727 15.8126 15.6725C16.0817 15.6721 16.3507 15.6705 16.6197 15.6684C16.748 15.6675 16.8763 15.6668 17.0045 15.6664C17.1836 15.6655 17.3626 15.6631 17.5416 15.6602C17.6433 15.659 17.7449 15.6579 17.8496 15.6567C18.1474 15.6223 18.3395 15.5469 18.5938 15.3905C18.7048 15.1686 18.6965 15.0112 18.6719 14.7655C18.4975 14.543 18.3946 14.4647 18.125 14.3749C17.9933 14.3743 17.8614 14.3788 17.7298 14.3861C14.837 14.5256 12.7112 14.2702 10.2152 12.6615C9.71254 12.3552 9.35707 12.2964 8.90628 12.7343ZM5.62503 19.9999C5.72907 21.9766 6.04831 23.2911 7.42191 24.6874C7.464 24.736 7.5061 24.7847 7.54947 24.8348C8.43952 25.8299 9.89957 26.2276 11.1478 26.53C11.3187 26.5714 11.4895 26.6138 11.6601 26.6563C12.0829 26.7615 12.506 26.8654 12.9292 26.969C13.2896 27.0573 13.6498 27.1462 14.0098 27.236C14.1777 27.2777 14.3458 27.3183 14.514 27.359C14.6165 27.3845 14.719 27.4101 14.8215 27.4357C14.9109 27.4576 15.0003 27.4795 15.0925 27.502C15.3165 27.5794 15.4105 27.6223 15.5469 27.8124C15.6237 27.993 15.6237 27.993 15.6918 28.2101C15.7181 28.2928 15.7444 28.3755 15.7715 28.4607C15.7996 28.5517 15.8277 28.6427 15.8567 28.7365C15.902 28.8805 15.902 28.8805 15.9483 29.0274C16.05 29.3512 16.1501 29.6755 16.25 29.9999C16.286 30.1162 16.3219 30.2325 16.3578 30.3488C16.6055 31.1512 16.8506 31.9543 17.0951 32.7576C17.194 33.0825 17.2931 33.4073 17.3922 33.7322C17.5845 34.363 17.7767 34.9939 17.9688 35.6249C18.5618 35.6249 19.1547 35.6249 19.7657 35.6249C19.667 35.0145 19.5573 34.4092 19.4288 33.8045C19.4113 33.7218 19.3939 33.6391 19.3759 33.5539C19.2154 32.7979 19.0483 32.0434 18.879 31.2894C18.7657 30.7845 18.6548 30.2793 18.5494 29.7727C18.4468 29.28 18.3381 28.7889 18.2251 28.2984C18.1834 28.1125 18.1438 27.926 18.1065 27.7391C17.9181 26.6539 17.9181 26.6539 17.2591 25.8255C16.9488 25.6446 16.6246 25.5119 16.2882 25.3875C15.9838 25.2699 15.6999 25.117 15.4114 24.9655C15.2984 24.9084 15.1853 24.8516 15.072 24.7951C15.0152 24.7666 14.9584 24.7382 14.8999 24.7089C14.8418 24.6799 14.7837 24.6508 14.7238 24.6209C14.6002 24.5589 14.4766 24.497 14.353 24.435C14.0978 24.3072 13.8425 24.1795 13.5871 24.0518C13.2596 23.888 12.9322 23.7238 12.6049 23.5595C12.3515 23.4324 12.0979 23.3055 11.8443 23.1787C11.7234 23.1182 11.6025 23.0576 11.4817 22.9969C11.3144 22.9128 11.1469 22.8292 10.9793 22.7457C10.9048 22.7081 10.9048 22.7081 10.8287 22.6697C10.5825 22.5407 10.5825 22.5407 10.3125 22.4999C10.5188 22.1132 10.725 21.7264 10.9375 21.328C11.0922 21.3667 11.0922 21.3667 11.25 21.4061C11.25 20.9421 11.25 20.478 11.25 19.9999C9.39378 19.9999 7.53753 19.9999 5.62503 19.9999ZM31.46 20.8446C31.1871 21.1983 31.25 21.3882 31.25 21.8749C31.6625 21.8749 32.075 21.8749 32.5 21.8749C32.5129 21.2666 32.5129 21.2666 32.2657 20.7811C31.9691 20.6329 31.7209 20.6401 31.46 20.8446ZM8.12503 26.8749C8.12503 29.7624 8.12503 32.6499 8.12503 35.6249C8.76956 35.6249 9.41409 35.6249 10.0782 35.6249C10.2209 34.6293 10.3635 33.6338 10.506 32.6382C10.5721 32.176 10.6383 31.7137 10.7046 31.2515C10.7685 30.8058 10.8323 30.36 10.8961 29.9142C10.9205 29.7438 10.9449 29.5734 10.9693 29.4031C11.0035 29.1651 11.0375 28.9272 11.0715 28.6892C11.0817 28.6182 11.092 28.5471 11.1025 28.4739C11.1529 28.1445 11.1529 28.1445 11.1719 27.8124C11.1157 27.7979 11.0595 27.7833 11.0016 27.7684C10.7408 27.7006 10.4803 27.632 10.2198 27.5634C10.1314 27.5405 10.043 27.5177 9.95197 27.4942C9.8636 27.4708 9.77522 27.4474 9.68417 27.4233C9.56451 27.392 9.56451 27.392 9.44242 27.3601C8.99586 27.2201 8.5618 27.0429 8.12503 26.8749ZM8.12503 36.8749C8.12503 37.2874 8.12503 37.6999 8.12503 38.1249C8.56149 38.1307 8.99793 38.1349 9.43443 38.1378C9.5828 38.1389 9.73116 38.1405 9.87953 38.1426C10.0932 38.1454 10.3069 38.1467 10.5207 38.1478C10.5866 38.149 10.6525 38.1502 10.7205 38.1514C11.1113 38.1515 11.3807 38.1096 11.7188 37.8905C11.8298 37.6686 11.8215 37.5112 11.7969 37.2655C11.6225 37.043 11.5196 36.9647 11.25 36.8749C11.1457 36.8682 11.0411 36.8657 10.9366 36.866C10.874 36.866 10.8115 36.866 10.747 36.866C10.6463 36.8666 10.6463 36.8666 10.5435 36.8673C10.4745 36.8674 10.4055 36.8675 10.3344 36.8676C10.1139 36.868 9.89338 36.869 9.67288 36.87C9.5234 36.8704 9.37391 36.8707 9.22443 36.8711C8.85796 36.8719 8.4915 36.8733 8.12503 36.8749ZM18.125 36.8749C18.125 37.2874 18.125 37.6999 18.125 38.1249C18.5615 38.1307 18.9979 38.1349 19.4344 38.1378C19.5828 38.1389 19.7312 38.1405 19.8795 38.1426C20.0932 38.1454 20.3069 38.1467 20.5207 38.1478C20.5866 38.149 20.6525 38.1502 20.7205 38.1514C21.1113 38.1515 21.3807 38.1096 21.7188 37.8905C21.8298 37.6686 21.8215 37.5112 21.7969 37.2655C21.6225 37.043 21.5196 36.9647 21.25 36.8749C21.1457 36.8682 21.0411 36.8657 20.9366 36.866C20.874 36.866 20.8115 36.866 20.747 36.866C20.6463 36.8666 20.6463 36.8666 20.5435 36.8673C20.4745 36.8674 20.4055 36.8675 20.3344 36.8676C20.1139 36.868 19.8934 36.869 19.6729 36.87C19.5234 36.8704 19.3739 36.8707 19.2244 36.8711C18.858 36.8719 18.4915 36.8733 18.125 36.8749Z" fill="white"/>
<path d="M36.5186 29.4921C36.973 29.7667 37.3436 30.1945 37.5 30.703C37.5235 30.9639 37.5235 30.9639 37.5244 31.245C37.5257 31.3375 37.527 31.4301 37.5284 31.5255C37.4974 31.8213 37.4031 32.0048 37.2656 32.2655C37.2821 32.5217 37.2821 32.5217 37.3438 32.7343C37.4975 32.7318 37.4975 32.7318 37.6562 32.6561C37.7413 32.4469 37.7413 32.4469 37.8125 32.1874C37.9105 31.9758 38.017 31.769 38.125 31.5624C38.5691 31.6909 38.9662 31.8976 39.375 32.1093C39.272 32.3514 39.1652 32.5917 39.0576 32.8319C39.0142 32.9342 39.0142 32.9342 38.9699 33.0385C38.7608 33.4989 38.5914 33.7029 38.125 33.9061C38.125 34.2671 38.125 34.628 38.125 34.9999C38.5375 34.9999 38.95 34.9999 39.375 34.9999C39.375 35.4124 39.375 35.8249 39.375 36.2499C38.9109 36.2757 38.4469 36.3014 37.9688 36.328C37.8914 36.4827 37.8914 36.4827 37.8125 36.6405C37.8818 36.6615 37.9511 36.6824 38.0225 36.704C38.4456 36.8557 38.6596 36.9706 38.8638 37.3787C38.9263 37.5146 38.9877 37.651 39.0479 37.788C39.0796 37.8577 39.1114 37.9274 39.1441 37.9993C39.2221 38.1709 39.299 38.343 39.375 38.5155C39.1961 38.607 39.0171 38.6981 38.8379 38.7889C38.787 38.815 38.7362 38.8411 38.6838 38.868C38.299 39.0624 38.299 39.0624 38.125 39.0624C38.0465 38.9096 37.9685 38.7565 37.8906 38.6034C37.8471 38.5182 37.8036 38.433 37.7588 38.3452C37.6562 38.1249 37.6562 38.1249 37.6562 37.9686C37.5837 37.9445 37.5112 37.9203 37.4365 37.8954C37.2754 37.8417 37.1143 37.788 36.9531 37.7343C36.8115 37.7899 36.8115 37.7899 36.6748 37.8807C36.628 37.9095 36.5811 37.9383 36.5329 37.968C36.4911 37.994 36.4493 38.02 36.4062 38.0468C35.9878 38.256 35.2264 38.1952 34.7839 38.0577C34.6191 37.9735 34.6191 37.9735 34.375 37.8124C34.3234 37.7866 34.2719 37.7608 34.2188 37.7343C34.0612 37.8097 33.9049 37.8879 33.75 37.9686C33.6984 37.9686 33.6469 37.9686 33.5938 37.9686C33.5744 38.0331 33.5551 38.0975 33.5352 38.1639C33.4229 38.4783 33.2794 38.767 33.125 39.0624C32.6809 38.9338 32.2838 38.7272 31.875 38.5155C31.9739 38.2746 32.0778 38.0361 32.1826 37.7977C32.2241 37.6964 32.2241 37.6964 32.2664 37.5931C32.4714 37.1357 32.6748 36.9201 33.1261 36.699C33.2812 36.6405 33.2812 36.6405 33.4375 36.6405C33.3859 36.5374 33.3344 36.4343 33.2812 36.328C32.8172 36.3022 32.3531 36.2764 31.875 36.2499C31.875 35.8374 31.875 35.4249 31.875 34.9999C32.2875 34.9999 32.7 34.9999 33.125 34.9999C33.125 34.6389 33.125 34.278 33.125 33.9061C33.0427 33.8703 32.9604 33.8344 32.8757 33.7975C32.4862 33.5749 32.3619 33.2311 32.1924 32.8319C32.1613 32.7625 32.1302 32.6931 32.0982 32.6216C32.0223 32.4515 31.948 32.2807 31.875 32.1093C32.0539 32.0177 32.2329 31.9266 32.4121 31.8358C32.463 31.8097 32.5138 31.7836 32.5662 31.7568C32.951 31.5624 32.951 31.5624 33.125 31.5624C33.2035 31.7152 33.2815 31.8682 33.3594 32.0214C33.4029 32.1066 33.4464 32.1918 33.4912 32.2795C33.5938 32.4999 33.5938 32.4999 33.5938 32.6561C33.6969 32.6819 33.8 32.7077 33.9062 32.7343C33.981 32.4489 34.0102 32.3148 33.8708 32.0482C33.6459 31.5802 33.6715 31.0116 33.7985 30.5123C34.0065 30.04 34.4125 29.6695 34.8694 29.4396C35.3752 29.2828 36.0291 29.2752 36.5186 29.4921ZM35.2051 30.83C35.0401 31.0711 35.0303 31.1974 35.0781 31.4843C35.1953 31.6796 35.1953 31.6796 35.3906 31.7968C35.6775 31.8446 35.8038 31.8348 36.0449 31.6698C36.2099 31.4286 36.2197 31.3024 36.1719 31.0155C36.0547 30.8202 36.0547 30.8202 35.8594 30.703C35.5725 30.6552 35.4462 30.665 35.2051 30.83ZM34.6622 33.8155C34.3583 34.3709 34.3825 35.0132 34.4531 35.6249C34.6038 36.1302 34.8558 36.5281 35.3125 36.7968C35.6314 36.8524 35.8046 36.8685 36.088 36.7156C36.4636 36.4276 36.6885 36.0847 36.7969 35.6249C36.8777 34.8856 36.8668 34.2146 36.4062 33.5936C36.1812 33.3153 35.9897 33.2121 35.6299 33.1493C35.1756 33.1823 34.917 33.4615 34.6622 33.8155Z" fill="white"/>
<path d="M28.3936 29.4921C28.848 29.7667 29.2186 30.1945 29.375 30.703C29.3985 30.9639 29.3985 30.9639 29.3994 31.245C29.4007 31.3375 29.402 31.4301 29.4034 31.5255C29.3724 31.8213 29.2781 32.0048 29.1406 32.2655C29.1571 32.5217 29.1571 32.5217 29.2188 32.7343C29.3725 32.7318 29.3725 32.7318 29.5312 32.6561C29.6163 32.4469 29.6163 32.4469 29.6875 32.1874C29.7855 31.9758 29.892 31.769 30 31.5624C30.4441 31.6909 30.8412 31.8976 31.25 32.1093C31.147 32.3514 31.0402 32.5917 30.9326 32.8319C30.8892 32.9342 30.8892 32.9342 30.8449 33.0385C30.6358 33.4989 30.4664 33.7029 30 33.9061C30 34.2671 30 34.628 30 34.9999C30.4125 34.9999 30.825 34.9999 31.25 34.9999C31.25 35.4124 31.25 35.8249 31.25 36.2499C30.7859 36.2757 30.3219 36.3014 29.8438 36.328C29.7664 36.4827 29.7664 36.4827 29.6875 36.6405C29.7568 36.6615 29.8261 36.6824 29.8975 36.704C30.3206 36.8557 30.5346 36.9706 30.7388 37.3787C30.8013 37.5146 30.8627 37.651 30.9229 37.788C30.9546 37.8577 30.9864 37.9274 31.0191 37.9993C31.0971 38.1709 31.174 38.343 31.25 38.5155C31.0711 38.607 30.8921 38.6981 30.7129 38.7889C30.662 38.815 30.6112 38.8411 30.5588 38.868C30.174 39.0624 30.174 39.0624 30 39.0624C29.9215 38.9096 29.8435 38.7565 29.7656 38.6034C29.7221 38.5182 29.6786 38.433 29.6338 38.3452C29.5312 38.1249 29.5312 38.1249 29.5312 37.9686C29.4587 37.9445 29.3862 37.9203 29.3115 37.8954C29.1504 37.8417 28.9893 37.788 28.8281 37.7343C28.6865 37.7899 28.6865 37.7899 28.5498 37.8807C28.503 37.9095 28.4561 37.9383 28.4079 37.968C28.3661 37.994 28.3243 38.02 28.2812 38.0468C27.8628 38.256 27.1014 38.1952 26.6589 38.0577C26.4941 37.9735 26.4941 37.9735 26.25 37.8124C26.1984 37.7866 26.1469 37.7608 26.0938 37.7343C25.9362 37.8097 25.7799 37.8879 25.625 37.9686C25.5734 37.9686 25.5219 37.9686 25.4688 37.9686C25.4494 38.0331 25.4301 38.0975 25.4102 38.1639C25.2979 38.4783 25.1544 38.767 25 39.0624C24.5559 38.9338 24.1588 38.7272 23.75 38.5155C23.8489 38.2746 23.9528 38.0361 24.0576 37.7977C24.0991 37.6964 24.0991 37.6964 24.1414 37.5931C24.3464 37.1357 24.5498 36.9201 25.0011 36.699C25.1562 36.6405 25.1562 36.6405 25.3125 36.6405C25.2609 36.5374 25.2094 36.4343 25.1562 36.328C24.6922 36.3022 24.2281 36.2764 23.75 36.2499C23.75 35.8374 23.75 35.4249 23.75 34.9999C24.1625 34.9999 24.575 34.9999 25 34.9999C25 34.6389 25 34.278 25 33.9061C24.9177 33.8703 24.8354 33.8344 24.7507 33.7975C24.3612 33.5749 24.2369 33.2311 24.0674 32.8319C24.0363 32.7625 24.0052 32.6931 23.9732 32.6216C23.8973 32.4515 23.823 32.2807 23.75 32.1093C23.9289 32.0177 24.1079 31.9266 24.2871 31.8358C24.338 31.8097 24.3888 31.7836 24.4412 31.7568C24.826 31.5624 24.826 31.5624 25 31.5624C25.0785 31.7152 25.1565 31.8682 25.2344 32.0214C25.2779 32.1066 25.3214 32.1918 25.3662 32.2795C25.4688 32.4999 25.4688 32.4999 25.4688 32.6561C25.5719 32.6819 25.675 32.7077 25.7812 32.7343C25.856 32.4489 25.8852 32.3148 25.7458 32.0482C25.5209 31.5802 25.5465 31.0116 25.6735 30.5123C25.8815 30.04 26.2875 29.6695 26.7444 29.4396C27.2502 29.2828 27.9041 29.2752 28.3936 29.4921ZM27.0801 30.83C26.9151 31.0711 26.9053 31.1974 26.9531 31.4843C27.0703 31.6796 27.0703 31.6796 27.2656 31.7968C27.5525 31.8446 27.6788 31.8348 27.9199 31.6698C28.0849 31.4286 28.0947 31.3024 28.0469 31.0155C27.9297 30.8202 27.9297 30.8202 27.7344 30.703C27.4475 30.6552 27.3212 30.665 27.0801 30.83ZM26.5372 33.8155C26.2333 34.3709 26.2575 35.0132 26.3281 35.6249C26.4788 36.1302 26.7308 36.5281 27.1875 36.7968C27.5064 36.8524 27.6796 36.8685 27.963 36.7156C28.3386 36.4276 28.5635 36.0847 28.6719 35.6249C28.7527 34.8856 28.7418 34.2146 28.2812 33.5936C28.0562 33.3153 27.8647 33.2121 27.5049 33.1493C27.0506 33.1823 26.792 33.4615 26.5372 33.8155Z" fill="white"/>
<path d="M37.8906 27.6562C38.1197 27.7595 38.2802 27.8708 38.4558 28.0499C38.5006 28.0952 38.5454 28.1406 38.5916 28.1873C38.6374 28.2344 38.6833 28.2815 38.7305 28.3301C38.7775 28.3778 38.8245 28.4255 38.873 28.4747C38.9886 28.5922 39.1037 28.7101 39.2188 28.8281C39.0987 29.1157 38.9233 29.2959 38.7012 29.5117C38.6373 29.5742 38.5735 29.6366 38.5077 29.7009C38.4587 29.7481 38.4098 29.7952 38.3594 29.8438C38.1303 29.7405 37.9698 29.6292 37.7942 29.4501C37.7494 29.4048 37.7046 29.3594 37.6584 29.3127C37.6126 29.2656 37.5667 29.2185 37.5195 29.1699C37.4725 29.1222 37.4255 29.0745 37.377 29.0253C37.2614 28.9078 37.1463 28.7899 37.0312 28.6719C37.1513 28.3843 37.3267 28.2041 37.5488 27.9883C37.6127 27.9258 37.6765 27.8634 37.7423 27.7991C37.8157 27.7284 37.8157 27.7284 37.8906 27.6562Z" fill="white"/>
<path d="M25.0781 27.6562C25.3657 27.7763 25.5459 27.9517 25.7617 28.1738C25.8242 28.2377 25.8866 28.3015 25.9509 28.3673C25.9981 28.4163 26.0452 28.4652 26.0938 28.5156C25.9905 28.7447 25.8792 28.9052 25.7001 29.0808C25.6548 29.1256 25.6094 29.1704 25.5627 29.2166C25.5156 29.2624 25.4685 29.3083 25.4199 29.3555C25.3722 29.4025 25.3245 29.4495 25.2753 29.498C25.1578 29.6136 25.0399 29.7287 24.9219 29.8438C24.6343 29.7237 24.4541 29.5483 24.2383 29.3262C24.1758 29.2623 24.1134 29.1985 24.0491 29.1327C24.0019 29.0837 23.9548 29.0348 23.9062 28.9844C24.0095 28.7553 24.1208 28.5948 24.2999 28.4192C24.3452 28.3744 24.3906 28.3296 24.4373 28.2834C24.4844 28.2376 24.5315 28.1917 24.5801 28.1445C24.6278 28.0975 24.6755 28.0505 24.7247 28.002C24.8422 27.8864 24.9601 27.7713 25.0781 27.6562Z" fill="white"/>
<path d="M36.0156 25.7812C36.2447 25.8845 36.4052 25.9958 36.5808 26.1749C36.6256 26.2202 36.6704 26.2656 36.7166 26.3123C36.7624 26.3594 36.8083 26.4065 36.8555 26.4551C36.9025 26.5028 36.9495 26.5505 36.998 26.5997C37.1136 26.7172 37.2287 26.8351 37.3438 26.9531C37.2237 27.2407 37.0483 27.4209 36.8262 27.6367C36.7623 27.6992 36.6985 27.7616 36.6327 27.8259C36.5837 27.8731 36.5348 27.9202 36.4844 27.9688C36.2553 27.8655 36.0948 27.7542 35.9192 27.5751C35.8744 27.5298 35.8296 27.4844 35.7834 27.4377C35.7376 27.3906 35.6917 27.3435 35.6445 27.2949C35.5975 27.2472 35.5505 27.1995 35.502 27.1503C35.3864 27.0328 35.2713 26.9149 35.1562 26.7969C35.2763 26.5093 35.4517 26.3291 35.6738 26.1133C35.7377 26.0508 35.8015 25.9884 35.8673 25.9241C35.9407 25.8534 35.9407 25.8534 36.0156 25.7812Z" fill="white"/>
<path d="M26.9531 25.7812C27.2407 25.9013 27.4209 26.0767 27.6367 26.2988C27.6992 26.3627 27.7616 26.4265 27.8259 26.4923C27.8731 26.5413 27.9202 26.5902 27.9688 26.6406C27.8655 26.8697 27.7542 27.0302 27.5751 27.2058C27.5298 27.2506 27.4844 27.2954 27.4377 27.3416C27.3906 27.3874 27.3435 27.4333 27.2949 27.4805C27.2472 27.5275 27.1995 27.5745 27.1503 27.623C27.0328 27.7386 26.9149 27.8537 26.7969 27.9688C26.5093 27.8487 26.3291 27.6733 26.1133 27.4512C26.0508 27.3873 25.9884 27.3235 25.9241 27.2577C25.8769 27.2087 25.8298 27.1598 25.7812 27.1094C25.8845 26.8803 25.9958 26.7198 26.1749 26.5442C26.2202 26.4994 26.2656 26.4546 26.3123 26.4084C26.3594 26.3626 26.4065 26.3167 26.4551 26.2695C26.5028 26.2225 26.5505 26.1755 26.5997 26.127C26.7172 26.0114 26.8351 25.8963 26.9531 25.7812Z" fill="white"/>
<path d="M34.1406 23.9062C34.3697 24.0095 34.5302 24.1208 34.7058 24.2999C34.7506 24.3452 34.7954 24.3906 34.8416 24.4373C34.8874 24.4844 34.9333 24.5315 34.9805 24.5801C35.0275 24.6278 35.0745 24.6755 35.123 24.7247C35.2386 24.8422 35.3537 24.9601 35.4688 25.0781C35.3487 25.3657 35.1733 25.5459 34.9512 25.7617C34.8873 25.8242 34.8235 25.8866 34.7577 25.9509C34.7087 25.9981 34.6598 26.0452 34.6094 26.0938C34.3803 25.9905 34.2198 25.8792 34.0442 25.7001C33.9994 25.6548 33.9546 25.6094 33.9084 25.5627C33.8626 25.5156 33.8167 25.4685 33.7695 25.4199C33.7225 25.3722 33.6755 25.3245 33.627 25.2753C33.5114 25.1578 33.3963 25.0399 33.2812 24.9219C33.4013 24.6343 33.5767 24.4541 33.7988 24.2383C33.8627 24.1758 33.9265 24.1134 33.9923 24.0491C34.0657 23.9784 34.0657 23.9784 34.1406 23.9062Z" fill="white"/>
<path d="M28.8281 23.9062C29.1157 24.0263 29.2959 24.2017 29.5117 24.4238C29.5742 24.4877 29.6366 24.5515 29.7009 24.6173C29.7481 24.6663 29.7952 24.7152 29.8438 24.7656C29.7405 24.9947 29.6292 25.1552 29.4501 25.3308C29.4048 25.3756 29.3594 25.4204 29.3127 25.4666C29.2656 25.5124 29.2185 25.5583 29.1699 25.6055C29.1222 25.6525 29.0745 25.6995 29.0253 25.748C28.9078 25.8636 28.7899 25.9787 28.6719 26.0938C28.3843 25.9737 28.2041 25.7983 27.9883 25.5762C27.9258 25.5123 27.8634 25.4485 27.7991 25.3827C27.7519 25.3337 27.7048 25.2848 27.6562 25.2344C27.7595 25.0053 27.8708 24.8448 28.0499 24.6692C28.0952 24.6244 28.1406 24.5796 28.1873 24.5334C28.2344 24.4876 28.2815 24.4417 28.3301 24.3945C28.3778 24.3475 28.4255 24.3005 28.4747 24.252C28.5922 24.1364 28.7101 24.0213 28.8281 23.9062Z" fill="white"/>
<path d="M31.25 29.375C31.6625 29.375 32.075 29.375 32.5 29.375C32.5 29.7875 32.5 30.2 32.5 30.625C32.0875 30.625 31.675 30.625 31.25 30.625C31.25 30.2125 31.25 29.8 31.25 29.375Z" fill="white"/>
<path d="M31.25 26.875C31.6625 26.875 32.075 26.875 32.5 26.875C32.5 27.2875 32.5 27.7 32.5 28.125C32.0875 28.125 31.675 28.125 31.25 28.125C31.25 27.7125 31.25 27.3 31.25 26.875Z" fill="white"/>
<path d="M31.25 24.375C31.6625 24.375 32.075 24.375 32.5 24.375C32.5 24.7875 32.5 25.2 32.5 25.625C32.0875 25.625 31.675 25.625 31.25 25.625C31.25 25.2125 31.25 24.8 31.25 24.375Z" fill="white"/>
</g>
<defs>
<clipPath id="clip0_234_580">
<rect width="40" height="40" fill="white"/>
</clipPath>
</defs>
</svg>
