<svg width="40" height="40" viewBox="0 0 40 40" fill="none" xmlns="http://www.w3.org/2000/svg">
<g clip-path="url(#clip0_112_4164)">
<path d="M33.75 3.125H25.625V0.625003C25.625 0.459242 25.5592 0.300271 25.4419 0.183061C25.3247 0.0658505 25.1658 2.50517e-06 25 2.50517e-06H12.3538C11.1729 -0.00111238 10.0217 0.36992 9.06378 1.06039C8.10583 1.75085 7.38983 2.72564 7.0175 3.84625L5.91375 7.15875C5.72218 7.73221 5.62467 8.33289 5.625 8.9375V32.5C5.625 32.6658 5.69085 32.8247 5.80806 32.9419C5.92527 33.0592 6.08424 33.125 6.25 33.125C6.41576 33.125 6.57473 33.0592 6.69194 32.9419C6.80915 32.8247 6.875 32.6658 6.875 32.5V13.75H21.875V38.125C21.875 38.2908 21.8092 38.4497 21.6919 38.5669C21.5747 38.6842 21.4158 38.75 21.25 38.75H7.5C7.33424 38.75 7.17527 38.6842 7.05806 38.5669C6.94085 38.4497 6.875 38.2908 6.875 38.125V35C6.875 34.8342 6.80915 34.6753 6.69194 34.5581C6.57473 34.4408 6.41576 34.375 6.25 34.375C6.08424 34.375 5.92527 34.4408 5.80806 34.5581C5.69085 34.6753 5.625 34.8342 5.625 35V38.125C5.625 38.6223 5.82254 39.0992 6.17418 39.4508C6.52581 39.8025 7.00272 40 7.5 40H21.25C21.7473 40 22.2242 39.8025 22.5758 39.4508C22.9275 39.0992 23.125 38.6223 23.125 38.125V11.25C23.125 11.0842 23.0592 10.9253 22.9419 10.8081C22.8247 10.6909 22.6658 10.625 22.5 10.625C22.3342 10.625 22.1753 10.6909 22.0581 10.8081C21.9408 10.9253 21.875 11.0842 21.875 11.25V12.5H6.875V8.9375C6.87491 8.46739 6.95068 8.00035 7.09938 7.55438L8.20313 4.24188C8.49278 3.37026 9.0497 2.61206 9.7948 2.07498C10.5399 1.5379 11.4353 1.24924 12.3538 1.25H21.875V8.75C21.875 8.91576 21.9408 9.07473 22.0581 9.19194C22.1753 9.30915 22.3342 9.375 22.5 9.375C22.6658 9.375 22.8247 9.30915 22.9419 9.19194C23.0592 9.07473 23.125 8.91576 23.125 8.75V7.5H25C25.1658 7.5 25.3247 7.43415 25.4419 7.31694C25.5592 7.19973 25.625 7.04076 25.625 6.875V4.375H33.75C33.9158 4.375 34.0747 4.30915 34.1919 4.19194C34.3092 4.07473 34.375 3.91576 34.375 3.75C34.375 3.58424 34.3092 3.42527 34.1919 3.30806C34.0747 3.19085 33.9158 3.125 33.75 3.125ZM24.375 6.25H23.125V1.25H24.375V6.25Z" fill="white"/>
<path d="M14.375 21.2501C14.8667 21.2503 15.3557 21.3229 15.8262 21.4658C15.9845 21.5125 16.1548 21.4947 16.3 21.4164C16.4452 21.3381 16.5535 21.2055 16.6014 21.0476C16.6492 20.8897 16.6327 20.7193 16.5554 20.5735C16.4781 20.4278 16.3463 20.3185 16.1887 20.2695C14.857 19.8643 13.428 19.9156 12.1287 20.4152C10.8294 20.9148 9.73421 21.8342 9.01703 23.0272C8.29985 24.2203 8.00177 25.6188 8.17012 27.0007C8.33847 28.3825 8.96359 29.6685 9.94625 30.6545C9.9482 30.6602 9.9514 30.6653 9.95563 30.6695C9.95985 30.6737 9.96498 30.6769 9.97062 30.6789C11.1538 31.8 12.7281 32.4145 14.3579 32.3914C15.9876 32.3683 17.5439 31.7094 18.6949 30.5553C19.8458 29.4012 20.5004 27.8431 20.519 26.2133C20.5375 24.5834 19.9187 23.0108 18.7944 21.8308C18.6772 21.7136 18.5182 21.6478 18.3525 21.6478C18.1868 21.6478 18.0278 21.7136 17.9106 21.8308L15.6719 24.0695C14.2669 22.9383 12.6131 22.7076 11.7231 23.5983C10.8331 24.4889 11.0637 26.142 12.1944 27.547L10.43 29.3126C9.85429 28.5747 9.49762 27.6899 9.4007 26.759C9.30378 25.8281 9.4705 24.8887 9.88184 24.048C10.2932 23.2074 10.9326 22.4993 11.7271 22.0045C12.5215 21.5098 13.4391 21.2484 14.375 21.2501ZM14.375 31.2501C13.265 31.2503 12.1869 30.8789 11.3125 30.1951L13.0744 28.4333C13.7764 29.0431 14.662 29.4008 15.5906 29.4495C15.8547 29.4589 16.1179 29.4154 16.3648 29.3213C16.6117 29.2273 16.8373 29.0847 17.0281 28.902C17.9181 28.0114 17.6875 26.3583 16.5569 24.9533L18.3219 23.1876C18.8964 23.926 19.2521 24.8109 19.3483 25.7415C19.4445 26.6721 19.2774 27.611 18.866 28.4513C18.4547 29.2916 17.8156 29.9995 17.0216 30.4943C16.2276 30.9891 15.3106 31.251 14.375 31.2501ZM15.6669 25.842C16.3369 26.7339 16.4962 27.6645 16.1431 28.0183C15.79 28.372 14.8581 28.2114 13.9669 27.542L15.6669 25.842ZM12.6044 24.482C12.757 24.3505 12.9553 24.2845 13.1562 24.2983C13.7529 24.3472 14.3202 24.5782 14.7812 24.9601L13.0831 26.6583C12.4131 25.7664 12.2537 24.8358 12.6069 24.482H12.6044Z" fill="white"/>
</g>
<defs>
<clipPath id="clip0_112_4164">
<rect width="40" height="40" fill="white"/>
</clipPath>
</defs>
</svg>
