<svg width="60" height="61" viewBox="0 0 60 61" fill="none" xmlns="http://www.w3.org/2000/svg">
<g clip-path="url(#clip0_247_502)">
<path d="M46.875 29.348C46.8777 26.7673 45.9099 24.2799 44.1638 22.3796L36.5625 14.0865V3.20117C36.5625 2.45525 36.2662 1.73988 35.7387 1.21243C35.2113 0.684988 34.4959 0.388672 33.75 0.388672L26.25 0.388672C25.5041 0.388672 24.7887 0.684988 24.2613 1.21243C23.7338 1.73988 23.4375 2.45525 23.4375 3.20117V14.0865L15.8363 22.3796C14.0901 24.2799 13.1223 26.7673 13.125 29.348C13.125 29.3659 13.1344 29.3818 13.1353 29.3996C13.1363 29.4174 13.125 29.4324 13.125 29.4512V55.7012C13.1265 56.9439 13.6208 58.1353 14.4996 59.0141C15.3783 59.8928 16.5698 60.3872 17.8125 60.3887H42.1875C43.4303 60.3872 44.6217 59.8928 45.5004 59.0141C46.3792 58.1353 46.8735 56.9439 46.875 55.7012V29.4512C46.875 29.4324 46.8656 29.4174 46.8647 29.3996C46.8638 29.3818 46.875 29.3659 46.875 29.348ZM25.3125 3.20117C25.3125 2.95253 25.4113 2.71407 25.5871 2.53826C25.7629 2.36244 26.0014 2.26367 26.25 2.26367H33.75C33.9986 2.26367 34.2371 2.36244 34.4129 2.53826C34.5887 2.71407 34.6875 2.95253 34.6875 3.20117V13.5137H25.3125V3.20117ZM42.1875 58.5137H17.8125C17.0666 58.5137 16.3512 58.2174 15.8238 57.6899C15.2963 57.1625 15 56.4471 15 55.7012V54.7637H37.5C37.7486 54.7637 37.9871 54.6649 38.1629 54.4891C38.3387 54.3133 38.4375 54.0748 38.4375 53.8262C38.4375 53.5775 38.3387 53.3391 38.1629 53.1633C37.9871 52.9874 37.7486 52.8887 37.5 52.8887H15V30.3887H18.75C18.9986 30.3887 19.2371 30.2899 19.4129 30.1141C19.5887 29.9383 19.6875 29.6998 19.6875 29.4512C19.6875 29.2025 19.5887 28.9641 19.4129 28.7883C19.2371 28.6124 18.9986 28.5137 18.75 28.5137H15.0431C15.2208 26.6984 15.9842 24.9903 17.2181 23.6471L24.7875 15.3887H35.2125L42.7819 23.6471C44.0158 24.9903 44.7792 26.6984 44.9569 28.5137H22.5C22.2514 28.5137 22.0129 28.6124 21.8371 28.7883C21.6613 28.9641 21.5625 29.2025 21.5625 29.4512C21.5625 29.6998 21.6613 29.9383 21.8371 30.1141C22.0129 30.2899 22.2514 30.3887 22.5 30.3887H45V52.8887H41.25C41.0014 52.8887 40.7629 52.9874 40.5871 53.1633C40.4113 53.3391 40.3125 53.5775 40.3125 53.8262C40.3125 54.0748 40.4113 54.3133 40.5871 54.4891C40.7629 54.6649 41.0014 54.7637 41.25 54.7637H45V55.7012C45 56.4471 44.7037 57.1625 44.1762 57.6899C43.6488 58.2174 42.9334 58.5137 42.1875 58.5137Z" fill="#299B46"/>
<path d="M35.3035 35.0095L31.9491 38.3639C31.1717 37.7176 30.2648 37.2454 29.2895 36.9792C28.7376 36.7628 28.1347 36.7122 27.5545 36.8333C26.9743 36.9545 26.442 37.2423 26.0229 37.6614C25.6038 38.0805 25.316 38.6128 25.1949 39.193C25.0737 39.7732 25.1244 40.3761 25.3407 40.9279C25.6072 41.9031 26.0793 42.81 26.7254 43.5876L24.0826 46.2323C23.1067 44.9762 22.5559 43.4421 22.5098 41.8522C22.4637 40.2622 22.9248 38.6989 23.8262 37.3883C24.7277 36.0778 26.0228 35.0881 27.5241 34.5626C29.0253 34.037 30.6549 34.0027 32.177 34.4648C32.2951 34.5015 32.4193 34.5145 32.5424 34.503C32.6655 34.4915 32.7852 34.4558 32.8945 34.3978C33.0037 34.3399 33.1004 34.2609 33.1791 34.1654C33.2577 34.0699 33.3166 33.9598 33.3525 33.8414C33.3883 33.7231 33.4004 33.5988 33.388 33.4757C33.3757 33.3527 33.3391 33.2333 33.2803 33.1244C33.2216 33.0156 33.1419 32.9194 33.0459 32.8415C32.9498 32.7636 32.8393 32.7055 32.7207 32.6704C30.7242 32.0678 28.5838 32.1481 26.638 32.8986C24.6923 33.6491 23.0523 35.0269 21.9776 36.8141C20.9028 38.6013 20.4546 40.6958 20.704 42.7663C20.9533 44.8368 21.8859 46.7651 23.3541 48.2461C23.3616 48.2536 23.3635 48.2629 23.371 48.2704C23.3785 48.2779 23.3879 48.2798 23.3954 48.2864C25.1682 49.9808 27.5344 50.913 29.9865 50.8833C32.4387 50.8536 34.7815 49.8642 36.5128 48.1273C38.244 46.3905 39.2257 44.0444 39.2475 41.5921C39.2693 39.1399 38.3293 36.7768 36.6291 35.0095C36.4533 34.8337 36.2149 34.735 35.9663 34.735C35.7177 34.735 35.4793 34.8337 35.3035 35.0095ZM32.8407 42.8039C32.9353 43.0478 32.9676 43.3114 32.9349 43.571C32.9022 43.8306 32.8054 44.0779 32.6532 44.2907C32.4404 44.4429 32.193 44.5397 31.9335 44.5724C31.6739 44.6052 31.4103 44.5728 31.1663 44.4782C30.5211 44.2956 29.9177 43.9889 29.3898 43.5754L31.9398 41.0254C32.3532 41.5538 32.6593 42.158 32.8407 42.8039ZM27.1595 40.4732C27.0649 40.2293 27.0326 39.9657 27.0653 39.7061C27.098 39.4465 27.1948 39.1992 27.347 38.9864C27.5754 38.7866 27.8738 38.6855 28.1766 38.7051C28.3982 38.7078 28.6185 38.7374 28.8329 38.7932C29.4781 38.9759 30.0815 39.2826 30.6095 39.6961L28.0595 42.2461C27.647 41.7193 27.3413 41.1171 27.1595 40.4732ZM30.0001 49.1386C28.3349 49.1391 26.7175 48.5816 25.4063 47.5551L28.0491 44.9132C28.8266 45.5595 29.7335 46.0317 30.7088 46.2979C31.0692 46.3901 31.4394 46.438 31.8113 46.4404C32.2087 46.4537 32.6046 46.3876 32.9761 46.2461C33.3476 46.1047 33.6872 45.8906 33.9751 45.6164C34.3644 45.1789 34.6322 44.647 34.752 44.0738C34.8717 43.5005 34.8392 42.9059 34.6576 42.3492C34.3911 41.374 33.919 40.4671 33.2729 39.6895L35.9204 37.0448C36.7822 38.1524 37.3157 39.4797 37.46 40.8756C37.6043 42.2715 37.3536 43.6799 36.7366 44.9403C36.1196 46.2008 35.161 47.2626 33.97 48.0048C32.779 48.7471 31.4034 49.1399 30.0001 49.1386Z" fill="#299B46"/>
<path d="M28.125 4.13867C27.8764 4.13867 27.6379 4.23744 27.4621 4.41326C27.2863 4.58907 27.1875 4.82753 27.1875 5.07617V10.7012C27.1875 10.9498 27.2863 11.1883 27.4621 11.3641C27.6379 11.5399 27.8764 11.6387 28.125 11.6387C28.3736 11.6387 28.6121 11.5399 28.7879 11.3641C28.9637 11.1883 29.0625 10.9498 29.0625 10.7012V5.07617C29.0625 4.82753 28.9637 4.58907 28.7879 4.41326C28.6121 4.23744 28.3736 4.13867 28.125 4.13867Z" fill="#299B46"/>
<path d="M31.875 4.13867C31.6264 4.13867 31.3879 4.23744 31.2121 4.41326C31.0363 4.58907 30.9375 4.82753 30.9375 5.07617V10.7012C30.9375 10.9498 31.0363 11.1883 31.2121 11.3641C31.3879 11.5399 31.6264 11.6387 31.875 11.6387C32.1236 11.6387 32.3621 11.5399 32.5379 11.3641C32.7137 11.1883 32.8125 10.9498 32.8125 10.7012V5.07617C32.8125 4.82753 32.7137 4.58907 32.5379 4.41326C32.3621 4.23744 32.1236 4.13867 31.875 4.13867Z" fill="#299B46"/>
</g>
<defs>
<clipPath id="clip0_247_502">
<rect width="60" height="60" fill="white" transform="translate(0 0.388672)"/>
</clipPath>
</defs>
</svg>
