<svg width="40" height="40" viewBox="0 0 40 40" fill="none" xmlns="http://www.w3.org/2000/svg">
<g clip-path="url(#clip0_136_612)">
<path d="M24.5005 6.2375C24.5809 6.22109 24.6574 6.18899 24.7254 6.14305C24.7934 6.0971 24.8517 6.0382 24.897 5.96972C24.9423 5.90124 24.9736 5.82451 24.9892 5.74391C25.0048 5.66332 25.0044 5.58044 24.988 5.50001C24.9716 5.41957 24.9395 5.34316 24.8936 5.27513C24.8476 5.2071 24.7887 5.14878 24.7202 5.10351C24.6517 5.05825 24.575 5.02691 24.4944 5.01129C24.4138 4.99568 24.3309 4.99609 24.2505 5.01251C23.3758 5.18784 22.5468 5.54205 21.8154 6.05293C21.084 6.5638 20.4662 7.22031 20.0005 7.98126C19.535 7.22021 18.9171 6.56363 18.1858 6.05274C17.4544 5.54185 16.6253 5.1877 15.7505 5.01251C15.5881 4.97935 15.4191 5.01209 15.2808 5.10351C15.1425 5.19494 15.0462 5.33756 15.013 5.50001C14.9799 5.66245 15.0126 5.83141 15.104 5.96972C15.1954 6.10803 15.3381 6.20435 15.5005 6.2375C16.2487 6.38582 16.9555 6.69572 17.5715 7.14557C18.1874 7.5954 18.6978 8.17433 19.0668 8.84188C17.688 9.10126 16.8755 9.95438 16.8755 11.25C16.8386 12.3075 17.203 13.3399 17.8955 14.14C17.4728 14.3682 17.1086 14.6911 16.8316 15.0835C16.5546 15.4759 16.3721 15.9272 16.2986 16.4019C14.4055 17.0075 6.41239 19.6763 4.50801 22.115C4.24988 22.4851 4.0951 22.9174 4.05962 23.3673C4.02413 23.8172 4.10923 24.2683 4.30614 24.6744C4.59301 25.2631 5.38989 26.25 7.50051 26.25C11.7449 26.25 14.9018 21.8238 16.4299 19.1319C16.4831 19.2867 16.5479 19.4373 16.6236 19.5825C16.6612 19.6566 16.7132 19.7224 16.7765 19.7762C16.8398 19.8299 16.9132 19.8705 16.9924 19.8956C17.0716 19.9206 17.155 19.9297 17.2377 19.9221C17.3204 19.9146 17.4008 19.8906 17.4742 19.8517C17.5475 19.8127 17.6124 19.7595 17.6649 19.6952C17.7175 19.6309 17.7567 19.5567 17.7803 19.4771C17.8039 19.3975 17.8113 19.3139 17.8022 19.2314C17.7932 19.1488 17.7677 19.0689 17.7274 18.9963C17.5811 18.729 17.5031 18.4297 17.5005 18.125V16.875C17.5005 16.3777 17.6981 15.9008 18.0497 15.5492C18.4013 15.1975 18.8782 15 19.3755 15H20.6255C20.9302 15.0027 21.2295 15.0806 21.4968 15.2269C21.6391 15.2899 21.7999 15.2975 21.9476 15.2483C22.0953 15.199 22.2193 15.0964 22.2953 14.9605C22.3713 14.8246 22.3938 14.6652 22.3585 14.5136C22.3232 14.3619 22.2325 14.2289 22.1043 14.1406C22.7975 13.3406 23.1624 12.3079 23.1255 11.25C23.1255 9.95438 22.313 9.10126 20.9318 8.84188C21.3011 8.1741 21.8118 7.59504 22.4282 7.14519C23.0447 6.69535 23.7519 6.38556 24.5005 6.2375ZM7.50051 25C6.42426 25 5.70801 24.6981 5.42989 24.125C5.33672 23.9289 5.29367 23.7127 5.30457 23.4959C5.31548 23.279 5.38001 23.0683 5.49239 22.8825C6.82864 21.1713 12.4018 19.0244 15.658 17.925C14.3986 20.2781 11.3843 25 7.50051 25ZM21.8755 11.25C21.8755 11.6675 21.7849 13.75 20.0005 13.75C18.2161 13.75 18.1255 11.6675 18.1255 11.25C18.1255 10.9375 18.1255 10 20.0005 10C21.8755 10 21.8755 10.9406 21.8755 11.25Z" fill="white"/>
<path d="M27.6831 7.05814L26.4331 8.30814C26.3159 8.42532 26.25 8.58426 26.25 8.75001V10C26.25 10.1658 26.3158 10.3247 26.4331 10.442C26.5503 10.5592 26.7092 10.625 26.875 10.625C27.0408 10.625 27.1997 10.5592 27.3169 10.442C27.4342 10.3247 27.5 10.1658 27.5 10V9.00876L28.5669 7.94188C28.6807 7.82401 28.7437 7.66613 28.7423 7.50226C28.7409 7.33839 28.6751 7.18163 28.5593 7.06575C28.4434 6.94987 28.2866 6.88414 28.1228 6.88271C27.9589 6.88129 27.801 6.94429 27.6831 7.05814Z" fill="white"/>
<path d="M13.567 8.30814L12.317 7.05814C12.1991 6.94429 12.0413 6.88129 11.8774 6.88271C11.7135 6.88414 11.5568 6.94987 11.4409 7.06575C11.325 7.18163 11.2593 7.33839 11.2578 7.50226C11.2564 7.66613 11.3194 7.82401 11.4333 7.94188L12.5001 9.00876V11.25C12.5002 11.4158 12.566 11.5747 12.6833 11.6919L15.1833 14.1919C15.3011 14.3057 15.459 14.3687 15.6229 14.3673C15.7868 14.3659 15.9435 14.3002 16.0594 14.1843C16.1753 14.0684 16.241 13.9116 16.2424 13.7478C16.2439 13.5839 16.1809 13.426 16.067 13.3081L13.7501 10.9913V8.75001C13.7501 8.58426 13.6842 8.42532 13.567 8.30814Z" fill="white"/>
<path d="M27.5001 30.9913V26.875C27.4999 26.7516 27.4634 26.631 27.3951 26.5281L26.1451 24.6531C26.0531 24.5152 25.9101 24.4195 25.7475 24.387C25.5849 24.3546 25.4161 24.388 25.2782 24.48C25.1403 24.572 25.0446 24.715 25.0121 24.8776C24.9796 25.0402 25.0131 25.209 25.1051 25.3469L26.2501 27.0625V31.25C26.2501 31.4158 26.316 31.5747 26.4332 31.6919L28.9332 34.1919C29.0511 34.3057 29.209 34.3687 29.3728 34.3673C29.5367 34.3659 29.6935 34.3002 29.8093 34.1843C29.9252 34.0684 29.991 33.9116 29.9924 33.7478C29.9938 33.5839 29.9308 33.426 29.817 33.3081L27.5001 30.9913Z" fill="white"/>
<path d="M22.4343 20.3531C22.3542 20.3715 22.2785 20.4055 22.2116 20.4531C22.1446 20.5007 22.0877 20.5611 22.0441 20.6308C22.0005 20.7004 21.9711 20.778 21.9575 20.8591C21.9439 20.9401 21.9464 21.0231 21.965 21.1031C22.3323 22.7938 22.5119 24.5199 22.5006 26.25C22.5095 28.8605 21.6276 31.396 20.0006 33.4375C18.4546 31.4966 17.5822 29.1054 17.515 26.625C17.5124 26.5429 17.4936 26.4622 17.4598 26.3873C17.4261 26.3125 17.3778 26.245 17.318 26.1888C17.2581 26.1326 17.1878 26.0888 17.1109 26.0597C17.0341 26.0307 16.9523 26.0171 16.8703 26.0197C16.7882 26.0223 16.7074 26.041 16.6326 26.0748C16.5578 26.1086 16.4903 26.1568 16.4341 26.2167C16.3779 26.2765 16.334 26.3469 16.305 26.4237C16.276 26.5005 16.2624 26.5823 16.265 26.6644C16.3185 29.7007 17.4961 32.6092 19.57 34.8275C19.686 34.9372 19.8396 34.9983 19.9993 34.9983C20.159 34.9983 20.3127 34.9372 20.4287 34.8275C22.6062 32.5072 23.7973 29.4317 23.7506 26.25C23.7622 24.4254 23.5718 22.6052 23.1831 20.8225C23.146 20.661 23.0463 20.5208 22.9059 20.4328C22.7655 20.3448 22.5959 20.3161 22.4343 20.3531Z" fill="white"/>
<path d="M35.4924 22.1156C34.1018 20.3344 29.5549 18.4463 25.9805 17.1781C25.8243 17.1226 25.6524 17.1314 25.5027 17.2026C25.3529 17.2738 25.2376 17.4016 25.1821 17.5578C25.1266 17.714 25.1354 17.8859 25.2066 18.0357C25.2778 18.1854 25.4055 18.3007 25.5618 18.3563C30.3199 20.0488 33.5805 21.7006 34.5074 22.8881C34.6202 23.0736 34.685 23.2843 34.6959 23.5012C34.7068 23.718 34.6635 23.9341 34.5699 24.13C34.2924 24.6981 33.5762 25 32.4999 25C29.0224 25 26.2305 21.165 24.8749 18.8788C24.833 18.8081 24.7777 18.7464 24.712 18.6972C24.6463 18.648 24.5715 18.6122 24.492 18.5918C24.4124 18.5715 24.3297 18.567 24.2484 18.5787C24.1671 18.5903 24.089 18.6178 24.0183 18.6597C23.9477 18.7016 23.886 18.7569 23.8368 18.8226C23.7876 18.8883 23.7517 18.9631 23.7314 19.0426C23.7111 19.1221 23.7066 19.2049 23.7182 19.2862C23.7299 19.3675 23.7574 19.4456 23.7993 19.5163C25.6205 22.5881 28.6074 26.25 32.4999 26.25C34.6105 26.25 35.4074 25.2631 35.6943 24.6744C35.8912 24.2685 35.9763 23.8174 35.9408 23.3676C35.9053 22.9178 35.7505 22.4857 35.4924 22.1156Z" fill="white"/>
<path d="M13.7499 28.75C13.5841 28.75 13.4251 28.8158 13.3079 28.9331C13.1907 29.0503 13.1249 29.2092 13.1249 29.375V30.9912L10.808 33.3081C10.7483 33.3658 10.7007 33.4347 10.6679 33.511C10.6352 33.5872 10.6179 33.6693 10.6172 33.7522C10.6165 33.8352 10.6323 33.9175 10.6637 33.9943C10.6952 34.0712 10.7416 34.1409 10.8002 34.1996C10.8589 34.2583 10.9287 34.3047 11.0055 34.3361C11.0823 34.3676 11.1646 34.3834 11.2476 34.3827C11.3306 34.3819 11.4126 34.3647 11.4889 34.3319C11.5651 34.2992 11.6341 34.2516 11.6917 34.1919L14.1917 31.6919C14.309 31.5747 14.3748 31.4157 14.3749 31.25V29.375C14.3749 29.2092 14.309 29.0503 14.1918 28.9331C14.0746 28.8158 13.9156 28.75 13.7499 28.75Z" fill="white"/>
<path d="M34.1421 5.85815C34.0249 5.74098 33.8659 5.67515 33.7002 5.67515C33.5345 5.67515 33.3755 5.74098 33.2583 5.85815L6.31707 32.7994C3.10867 29.3717 1.30363 24.8646 1.25904 20.1698C1.21445 15.475 2.93356 10.9345 6.07628 7.44648C9.21901 3.95846 13.5564 1.77701 18.2304 1.3337C22.9045 0.890396 27.5746 2.21752 31.3171 5.05252C31.3823 5.1034 31.4571 5.14081 31.5369 5.16258C31.6167 5.18435 31.7001 5.19005 31.7822 5.17935C31.8642 5.16864 31.9434 5.14175 32.0149 5.10022C32.0865 5.05869 32.1491 5.00336 32.1992 4.93744C32.2492 4.87152 32.2856 4.79632 32.3064 4.7162C32.3271 4.63609 32.3317 4.55265 32.32 4.47073C32.3082 4.38882 32.2803 4.31005 32.2378 4.23901C32.1954 4.16797 32.1393 4.10607 32.0727 4.0569C28.6044 1.41338 24.3611 -0.0125487 20.0002 2.13637e-05C16.0489 -0.00211489 12.1857 1.16681 8.89841 3.35914C5.61114 5.55147 3.04734 8.66885 1.53085 12.3175C0.0143693 15.9662 -0.386766 19.9824 0.378118 23.8589C1.143 27.7355 3.03959 31.2983 5.82832 34.0975C5.84019 34.1119 5.84519 34.1288 5.85832 34.1419C5.87144 34.155 5.88832 34.16 5.90269 34.1719C9.66358 37.8857 14.7419 39.9592 20.0274 39.9391C25.3128 39.919 30.3753 37.807 34.1079 34.0647C37.8404 30.3225 39.9394 25.2546 39.9458 19.9691C39.9522 14.6837 37.8655 9.61067 34.1421 5.8594V5.85815ZM20.0002 38.75C15.2442 38.7526 10.6664 36.9404 7.20082 33.6831L33.6877 7.1944C36.1856 9.8627 37.849 13.2031 38.473 16.8045C39.0971 20.4058 38.6547 24.1111 37.2002 27.4643C35.7457 30.8175 33.3427 33.6723 30.2867 35.6775C27.2308 37.6826 23.6553 38.7506 20.0002 38.75Z" fill="white"/>
</g>
<defs>
<clipPath id="clip0_136_612">
<rect width="40" height="40" fill="white"/>
</clipPath>
</defs>
</svg>
