<svg width="40" height="40" viewBox="0 0 40 40" fill="none" xmlns="http://www.w3.org/2000/svg">
<g clip-path="url(#clip0_136_695)">
<path d="M16.25 16.25C17.907 16.2482 19.4957 15.5891 20.6674 14.4174C21.8391 13.2457 22.4982 11.657 22.5 10V6.25H24.375C24.5408 6.25 24.6997 6.18415 24.8169 6.06694C24.9342 5.94973 25 5.79076 25 5.625C25 5.45924 24.9342 5.30027 24.8169 5.18306C24.6997 5.06585 24.5408 5 24.375 5H22.5V4.375C22.4987 3.21508 22.0373 2.10305 21.2171 1.28287C20.3969 0.462684 19.2849 0.00132335 18.125 0L14.375 0C13.2151 0.00132335 12.1031 0.462684 11.2829 1.28287C10.4627 2.10305 10.0013 3.21508 10 4.375V10C10.0018 11.657 10.6609 13.2457 11.8326 14.4174C13.0043 15.5891 14.593 16.2482 16.25 16.25ZM11.25 6.25H21.25V8.59625L16.3856 7.515C16.2963 7.495 16.2037 7.495 16.1144 7.515L11.25 8.59625V6.25ZM11.25 4.375C11.251 3.5465 11.5806 2.75222 12.1664 2.16639C12.7522 1.58055 13.5465 1.25099 14.375 1.25H18.125C18.9535 1.25099 19.7478 1.58055 20.3336 2.16639C20.9194 2.75222 21.249 3.5465 21.25 4.375V5H11.25V4.375ZM11.25 9.875L16.25 8.76375L21.25 9.875V10C21.25 11.3261 20.7232 12.5979 19.7855 13.5355C18.8479 14.4732 17.5761 15 16.25 15C14.9239 15 13.6521 14.4732 12.7145 13.5355C11.7768 12.5979 11.25 11.3261 11.25 10V9.875Z" fill="white"/>
<path d="M3.75 35H1.875C1.70924 35 1.55027 34.9342 1.43306 34.8169C1.31585 34.6997 1.25 34.5408 1.25 34.375V15.625C1.25 15.4592 1.31585 15.3003 1.43306 15.1831C1.55027 15.0658 1.70924 15 1.875 15H5.625C5.79076 15 5.94973 15.0658 6.06694 15.1831C6.18415 15.3003 6.25 15.4592 6.25 15.625C6.25 15.7908 6.31585 15.9497 6.43306 16.0669C6.55027 16.1842 6.70924 16.25 6.875 16.25C7.04076 16.25 7.19973 16.1842 7.31694 16.0669C7.43415 15.9497 7.5 15.7908 7.5 15.625C7.5 15.1277 7.30246 14.6508 6.95083 14.2992C6.59919 13.9475 6.12228 13.75 5.625 13.75H4.375V12.5H5C5.49728 12.5 5.97419 12.3025 6.32583 11.9508C6.67746 11.5992 6.875 11.1223 6.875 10.625V9.375C6.875 8.87772 6.67746 8.40081 6.32583 8.04917C5.97419 7.69754 5.49728 7.5 5 7.5H2.5C2.00272 7.5 1.52581 7.69754 1.17417 8.04917C0.822544 8.40081 0.625 8.87772 0.625 9.375V10.625C0.625 11.1223 0.822544 11.5992 1.17417 11.9508C1.52581 12.3025 2.00272 12.5 2.5 12.5H3.125V13.75H1.875C1.37772 13.75 0.900805 13.9475 0.549175 14.2992C0.197544 14.6508 0 15.1277 0 15.625L0 34.375C0 34.8723 0.197544 35.3492 0.549175 35.7008C0.900805 36.0525 1.37772 36.25 1.875 36.25H3.75C3.91576 36.25 4.07473 36.1842 4.19194 36.0669C4.30915 35.9497 4.375 35.7908 4.375 35.625C4.375 35.4592 4.30915 35.3003 4.19194 35.1831C4.07473 35.0658 3.91576 35 3.75 35ZM1.875 10.625V9.375C1.875 9.20924 1.94085 9.05027 2.05806 8.93306C2.17527 8.81585 2.33424 8.75 2.5 8.75H5C5.16576 8.75 5.32473 8.81585 5.44194 8.93306C5.55915 9.05027 5.625 9.20924 5.625 9.375V10.625C5.625 10.7908 5.55915 10.9497 5.44194 11.0669C5.32473 11.1842 5.16576 11.25 5 11.25H2.5C2.33424 11.25 2.17527 11.1842 2.05806 11.0669C1.94085 10.9497 1.875 10.7908 1.875 10.625Z" fill="white"/>
<path d="M28.0806 20.3925C28.0501 20.3163 28.0049 20.2468 27.9476 20.1881C27.8903 20.1294 27.8219 20.0825 27.7465 20.0502C27.671 20.0178 27.59 20.0007 27.5079 19.9997C27.4258 19.9987 27.3443 20.0139 27.2681 20.0444L25.1875 20.875C24.7763 21.0397 24.4048 21.2898 24.0975 21.6089C23.7902 21.9279 23.5542 22.3085 23.405 22.7256L20.8125 30H9.375C9.20924 30 9.05027 30.0659 8.93306 30.1831C8.81585 30.3003 8.75 30.4593 8.75 30.625C8.75 30.7908 8.81585 30.9497 8.93306 31.067C9.05027 31.1842 9.20924 31.25 9.375 31.25H18.125V35H6.875C6.37772 35 5.90081 34.8025 5.54918 34.4508C5.19755 34.0992 5 33.6223 5 33.125V20.7019C5.00005 20.2838 5.13982 19.8777 5.3971 19.5482C5.65439 19.2187 6.01442 18.9846 6.42 18.8831L11.5 17.6138L12.5469 20.2325C12.5774 20.3087 12.6226 20.3782 12.6799 20.4369C12.7372 20.4957 12.8056 20.5425 12.881 20.5749C12.9565 20.6072 13.0375 20.6243 13.1196 20.6253C13.2017 20.6263 13.2832 20.6111 13.3594 20.5806L16.25 19.4231L19.1425 20.5806C19.2187 20.6111 19.3002 20.6263 19.3823 20.6253C19.4643 20.6243 19.5454 20.6072 19.6209 20.5749C19.6963 20.5425 19.7646 20.4957 19.822 20.4369C19.8793 20.3782 19.9245 20.3087 19.955 20.2325L21.0019 17.6138L26.0794 18.8831C26.2402 18.9233 26.4105 18.898 26.5527 18.8126C26.6948 18.7273 26.7973 18.589 26.8375 18.4281C26.8777 18.2673 26.8523 18.097 26.767 17.9548C26.6817 17.8127 26.5434 17.7102 26.3825 17.67L20.7763 16.2688C20.6295 16.2328 20.4746 16.2509 20.3401 16.3198C20.2056 16.3886 20.1004 16.5037 20.0438 16.6438L19.0269 19.1875L16.4825 18.1694C16.3331 18.1107 16.1669 18.1107 16.0175 18.1694L13.4731 19.1875L12.4556 16.6425C12.3996 16.5019 12.2945 16.3864 12.1598 16.3174C12.0251 16.2485 11.8699 16.2307 11.7231 16.2675L6.1175 17.67C5.44096 17.8384 4.84026 18.2284 4.41118 18.7779C3.98209 19.3274 3.74933 20.0047 3.75 20.7019V33.125C3.75099 33.9535 4.08055 34.7478 4.66639 35.3336C5.25223 35.9195 6.0465 36.249 6.875 36.25H21.25C22.0785 36.249 22.8728 35.9195 23.4586 35.3336C24.0444 34.7478 24.374 33.9535 24.375 33.125V31.875C24.375 31.3777 24.1775 30.9008 23.8258 30.5492C23.4742 30.1976 22.9973 30 22.5 30H22.1369L24.5844 23.1469C24.6738 22.8967 24.8154 22.6683 24.9997 22.4769C25.1841 22.2856 25.407 22.1356 25.6538 22.0369L27.7325 21.2056C27.8088 21.1752 27.8783 21.1299 27.9371 21.0725C27.9959 21.0152 28.0428 20.9468 28.0751 20.8712C28.1075 20.7957 28.1246 20.7146 28.1255 20.6324C28.1265 20.5503 28.1112 20.4688 28.0806 20.3925ZM23.125 31.875V33.125C23.125 33.6223 22.9275 34.0992 22.5758 34.4508C22.2242 34.8025 21.7473 35 21.25 35H19.375V31.25H22.5C22.6658 31.25 22.8247 31.3159 22.9419 31.4331C23.0592 31.5503 23.125 31.7093 23.125 31.875Z" fill="white"/>
<path d="M35.6248 22.5C35.459 22.5 35.3 22.5659 35.1828 22.6831C35.0656 22.8003 34.9998 22.9593 34.9998 23.125C34.9999 23.3083 34.9598 23.4893 34.8822 23.6553C34.8046 23.8213 34.6914 23.9682 34.5508 24.0856C34.4101 24.203 34.2453 24.2881 34.0681 24.3347C33.8909 24.3814 33.7057 24.3885 33.5254 24.3556C33.2807 24.3092 33.0553 24.1914 32.8773 24.0171C32.6994 23.8429 32.577 23.6199 32.5254 23.3763C32.4247 22.7855 32.1197 22.2489 31.6635 21.8602C31.2073 21.4716 30.629 21.2556 30.0298 21.25H29.9998C29.9185 21.2503 29.8381 21.2668 29.7632 21.2985C29.6884 21.3302 29.6206 21.3765 29.5638 21.4347C29.507 21.4929 29.4624 21.5618 29.4325 21.6374C29.4027 21.713 29.3881 21.7938 29.3898 21.875C29.3932 22.0423 29.4622 22.2015 29.5819 22.3184C29.7016 22.4353 29.8625 22.5005 30.0298 22.5C30.3448 22.5108 30.6457 22.6328 30.8793 22.8443C31.113 23.0559 31.2641 23.3433 31.306 23.6556C31.411 24.1405 31.6578 24.5831 32.0151 24.9272C32.3723 25.2713 32.8239 25.5014 33.3123 25.5881C33.4545 25.6125 33.5986 25.6248 33.7429 25.625C34.3067 25.626 34.8544 25.4364 35.2969 25.087C35.7394 24.7375 36.0507 24.2487 36.1804 23.7C36.9009 23.5696 37.5527 23.1902 38.0221 22.6282C38.4915 22.0662 38.7486 21.3573 38.7486 20.625C38.7486 19.8928 38.4915 19.1838 38.0221 18.6218C37.5527 18.0598 36.9009 17.6805 36.1804 17.55C36.0495 16.9948 35.7326 16.501 35.2824 16.1507C34.8321 15.8004 34.2756 15.6146 33.7052 15.6242C33.1349 15.6338 32.5849 15.8381 32.1467 16.2033C31.7084 16.5685 31.4083 17.0726 31.296 17.6319C31.2469 17.9414 31.0897 18.2234 30.8525 18.4281C30.6152 18.6328 30.3131 18.7468 29.9998 18.75C29.9185 18.7503 29.8381 18.7668 29.7632 18.7985C29.6884 18.8302 29.6206 18.8765 29.5638 18.9347C29.507 18.9929 29.4624 19.0618 29.4325 19.1374C29.4027 19.213 29.3881 19.2937 29.3898 19.375C29.3932 19.5423 29.4622 19.7015 29.5819 19.8184C29.7016 19.9353 29.8625 20.0005 30.0298 20C30.6323 19.9933 31.2132 19.7745 31.6705 19.382C32.1277 18.9895 32.4319 18.4484 32.5298 17.8538C32.5968 17.5534 32.7722 17.2884 33.0225 17.1093C33.2728 16.9303 33.5803 16.8499 33.8862 16.8835C34.1921 16.917 34.4749 17.0623 34.6803 17.2914C34.8858 17.5205 34.9995 17.8173 34.9998 18.125C34.9998 18.2908 35.0656 18.4498 35.1828 18.567C35.3 18.6842 35.459 18.75 35.6248 18.75C36.1221 18.75 36.599 18.9476 36.9506 19.2992C37.3022 19.6508 37.4998 20.1277 37.4998 20.625C37.4998 21.1223 37.3022 21.5992 36.9506 21.9508C36.599 22.3025 36.1221 22.5 35.6248 22.5Z" fill="white"/>
<path d="M38.1691 29.3306C38.0519 29.2134 37.893 29.1476 37.7273 29.1476C37.5615 29.1476 37.4026 29.2134 37.2854 29.3306L35.0466 31.5694C33.6416 30.4381 31.9841 30.2081 31.0979 31.0981C30.2116 31.9881 30.4385 33.6419 31.5691 35.0469L29.8048 36.8125C29.1539 35.9751 28.7865 34.9523 28.7556 33.8922C28.7248 32.8321 29.0321 31.7897 29.6331 30.9158C30.2341 30.042 31.0977 29.3821 32.0987 29.0318C33.0997 28.6814 34.1862 28.6586 35.201 28.9669C35.3592 29.0136 35.5295 28.9958 35.6747 28.9175C35.8199 28.8392 35.9283 28.7066 35.9761 28.5487C36.024 28.3908 36.0074 28.2204 35.9301 28.0746C35.8528 27.9289 35.7211 27.8196 35.5635 27.7706C34.2317 27.3654 32.8028 27.4167 31.5034 27.9163C30.2041 28.4159 29.109 29.3353 28.3918 30.5283C27.6746 31.7214 27.3765 33.1199 27.5449 34.5018C27.7132 35.8836 28.3383 37.1696 29.321 38.1556C29.323 38.1613 29.3262 38.1664 29.3304 38.1706C29.3346 38.1748 29.3397 38.178 29.3454 38.18C30.5276 39.3066 32.1039 39.9258 33.7369 39.9049C35.3699 39.8841 36.9298 39.2249 38.0829 38.0685C39.236 36.912 39.8907 35.3501 39.9068 33.7171C39.9229 32.0841 39.2992 30.5096 38.1691 29.3306ZM35.5179 35.5181C35.1635 35.8706 34.2329 35.7112 33.3416 35.0419L35.0416 33.3419C35.7116 34.2337 35.871 35.1644 35.5179 35.5181ZM31.9816 31.9819C32.1342 31.8503 32.3325 31.7843 32.5335 31.7981C33.1302 31.847 33.6975 32.0781 34.1585 32.46L32.4604 34.1581C31.7879 33.2662 31.6285 32.3356 31.9816 31.9819ZM33.7498 38.75C32.6398 38.7501 31.5617 38.3787 30.6873 37.695L32.4491 35.9331C33.1511 36.5429 34.0368 36.9006 34.9654 36.9494C35.2294 36.9588 35.4927 36.9152 35.7396 36.8212C35.9865 36.7271 36.212 36.5846 36.4029 36.4019C37.2929 35.5112 37.0623 33.8581 35.9316 32.4531L37.6966 30.6875C38.2712 31.4259 38.6268 32.3107 38.723 33.2414C38.8192 34.172 38.6521 35.1109 38.2408 35.9512C37.8294 36.7915 37.1904 37.4993 36.3963 37.9942C35.6023 38.489 34.6853 38.7509 33.7498 38.75Z" fill="white"/>
</g>
<defs>
<clipPath id="clip0_136_695">
<rect width="40" height="40" fill="white"/>
</clipPath>
</defs>
</svg>
