<svg width="30" height="30" viewBox="0 0 30 30" fill="none" xmlns="http://www.w3.org/2000/svg">
<g clip-path="url(#clip0_58_537)">
<path d="M7.03125 19.2188C6.47499 19.2188 5.93122 19.3837 5.46871 19.6927C5.0062 20.0018 4.64571 20.441 4.43284 20.955C4.21997 21.4689 4.16427 22.0344 4.27279 22.5799C4.38131 23.1255 4.64918 23.6267 5.04251 24.02C5.43585 24.4133 5.93699 24.6812 6.48256 24.7897C7.02813 24.8982 7.59363 24.8425 8.10755 24.6297C8.62147 24.4168 9.06072 24.0563 9.36976 23.5938C9.6788 23.1313 9.84375 22.5875 9.84375 22.0312C9.84301 21.2856 9.54645 20.5706 9.01917 20.0433C8.49188 19.516 7.77694 19.2195 7.03125 19.2188ZM7.03125 23.9062C6.66041 23.9062 6.2979 23.7963 5.98956 23.5903C5.68121 23.3842 5.44089 23.0914 5.29898 22.7488C5.15706 22.4062 5.11993 22.0292 5.19228 21.6655C5.26463 21.3017 5.4432 20.9676 5.70543 20.7054C5.96765 20.4432 6.30174 20.2646 6.66546 20.1923C7.02917 20.1199 7.40617 20.1571 7.74878 20.299C8.09139 20.4409 8.38423 20.6812 8.59026 20.9896C8.79628 21.2979 8.90625 21.6604 8.90625 22.0312C8.90625 22.5285 8.70871 23.0054 8.35708 23.3571C8.00545 23.7087 7.52853 23.9062 7.03125 23.9062Z" fill="white"/>
<path d="M23.9063 19.2188C23.35 19.2188 22.8062 19.3837 22.3437 19.6927C21.8812 20.0018 21.5207 20.441 21.3078 20.955C21.095 21.4689 21.0393 22.0344 21.1478 22.5799C21.2563 23.1255 21.5242 23.6267 21.9175 24.02C22.3108 24.4133 22.812 24.6812 23.3576 24.7897C23.9031 24.8982 24.4686 24.8425 24.9825 24.6297C25.4965 24.4168 25.9357 24.0563 26.2448 23.5938C26.5538 23.1313 26.7188 22.5875 26.7188 22.0312C26.718 21.2856 26.4215 20.5706 25.8942 20.0433C25.3669 19.516 24.6519 19.2195 23.9063 19.2188ZM23.9063 23.9062C23.5354 23.9062 23.1729 23.7963 22.8646 23.5903C22.5562 23.3842 22.3159 23.0914 22.174 22.7488C22.0321 22.4062 21.9949 22.0292 22.0673 21.6655C22.1396 21.3017 22.3182 20.9676 22.5804 20.7054C22.8427 20.4432 23.1767 20.2646 23.5405 20.1923C23.9042 20.1199 24.2812 20.1571 24.6238 20.299C24.9664 20.4409 25.2592 20.6812 25.4653 20.9896C25.6713 21.2979 25.7813 21.6604 25.7813 22.0312C25.7813 22.5285 25.5837 23.0054 25.2321 23.3571C24.8804 23.7087 24.4035 23.9062 23.9063 23.9062Z" fill="white"/>
<path d="M27.6562 13.5938H27.0722L25.4888 8.05125C25.4039 7.75788 25.2263 7.49991 24.9825 7.31601C24.7386 7.13212 24.4418 7.0322 24.1364 7.03125H18.75V6.5625C18.75 6.18954 18.6018 5.83185 18.3381 5.56813C18.0744 5.30441 17.7167 5.15625 17.3438 5.15625H1.40625C1.03329 5.15625 0.675604 5.30441 0.411881 5.56813C0.148158 5.83185 0 6.18954 0 6.5625L0 21.5625C0 21.6868 0.049386 21.806 0.137294 21.894C0.225201 21.9819 0.34443 22.0312 0.46875 22.0312H2.8125C2.93682 22.0312 3.05605 21.9819 3.14396 21.894C3.23186 21.806 3.28125 21.6868 3.28125 21.5625C3.28125 21.4382 3.23186 21.319 3.14396 21.231C3.05605 21.1431 2.93682 21.0938 2.8125 21.0938H0.9375V6.5625C0.9375 6.43818 0.986886 6.31895 1.07479 6.23104C1.1627 6.14314 1.28193 6.09375 1.40625 6.09375H17.3438C17.4681 6.09375 17.5873 6.14314 17.6752 6.23104C17.7631 6.31895 17.8125 6.43818 17.8125 6.5625V9.84375C17.8125 9.96807 17.8619 10.0873 17.9498 10.1752C18.0377 10.2631 18.1569 10.3125 18.2812 10.3125C18.4056 10.3125 18.5248 10.2631 18.6127 10.1752C18.7006 10.0873 18.75 9.96807 18.75 9.84375V7.96875H24.1364C24.2383 7.96882 24.3373 8.00208 24.4186 8.06348C24.4999 8.12489 24.559 8.2111 24.5869 8.30906L24.7575 8.90625H21.0938C20.9694 8.90625 20.8502 8.95564 20.7623 9.04354C20.6744 9.13145 20.625 9.25068 20.625 9.375V14.0625C20.625 14.1868 20.6744 14.306 20.7623 14.394C20.8502 14.4819 20.9694 14.5312 21.0938 14.5312H27.6562C28.0292 14.5312 28.3869 14.6794 28.6506 14.9431C28.9143 15.2069 29.0625 15.5645 29.0625 15.9375V21.0938H28.125C28.0007 21.0938 27.8815 21.1431 27.7935 21.231C27.7056 21.319 27.6562 21.4382 27.6562 21.5625C27.6562 21.6868 27.7056 21.806 27.7935 21.894C27.8815 21.9819 28.0007 22.0312 28.125 22.0312H29.5312C29.6556 22.0312 29.7748 21.9819 29.8627 21.894C29.9506 21.806 30 21.6868 30 21.5625V15.9375C29.9993 15.3161 29.7521 14.7204 29.3127 14.281C28.8733 13.8417 28.2776 13.5945 27.6562 13.5938ZM21.5625 9.84375H25.0256L26.0972 13.5938H21.5625V9.84375Z" fill="white"/>
<path d="M19.6875 21.0938H11.25C11.1257 21.0938 11.0065 21.1431 10.9185 21.231C10.8306 21.319 10.7812 21.4382 10.7812 21.5625C10.7812 21.6868 10.8306 21.806 10.9185 21.894C11.0065 21.9819 11.1257 22.0312 11.25 22.0312H19.6875C19.8118 22.0312 19.931 21.9819 20.019 21.894C20.1069 21.806 20.1562 21.6868 20.1562 21.5625C20.1562 21.4382 20.1069 21.319 20.019 21.231C19.931 21.1431 19.8118 21.0938 19.6875 21.0938Z" fill="white"/>
<path d="M9.37506 9.3751C9.74385 9.3752 10.1106 9.42969 10.4635 9.53682C10.5225 9.55518 10.5846 9.56167 10.6462 9.55592C10.7078 9.55017 10.7676 9.53229 10.8222 9.50332C10.8769 9.47435 10.9252 9.43486 10.9645 9.38711C11.0038 9.33937 11.0333 9.28432 11.0512 9.22514C11.0692 9.16596 11.0752 9.10381 11.069 9.04229C11.0628 8.98076 11.0445 8.92106 11.0152 8.86664C10.9858 8.81221 10.946 8.76414 10.898 8.72518C10.8499 8.68622 10.7947 8.65715 10.7354 8.63964C9.73654 8.33572 8.66481 8.37418 7.69033 8.7489C6.71585 9.12361 5.89447 9.81311 5.35658 10.7079C4.8187 11.6028 4.59514 12.6516 4.7214 13.688C4.84766 14.7244 5.31651 15.6889 6.0535 16.4284C6.05496 16.4326 6.05736 16.4365 6.06053 16.4396C6.0637 16.4428 6.06754 16.4452 6.07178 16.4467C6.95916 17.2875 8.13989 17.7483 9.36222 17.731C10.5845 17.7137 11.7518 17.2196 12.615 16.354C13.4782 15.4884 13.9691 14.3198 13.983 13.0975C13.997 11.8751 13.5328 10.6956 12.6896 9.81057C12.6017 9.7227 12.4825 9.67333 12.3582 9.67333C12.2339 9.67333 12.1147 9.7227 12.0268 9.81057L10.3477 11.4896C9.29397 10.6412 8.05318 10.4687 7.38615 11.1362C6.71912 11.8037 6.89162 13.044 7.73959 14.0978L6.41631 15.422C5.98453 14.8686 5.71703 14.2049 5.64434 13.5067C5.57164 12.8086 5.69669 12.104 6.00519 11.4735C6.3137 10.843 6.79325 10.3119 7.3891 9.9409C7.98496 9.56986 8.67312 9.3738 9.37506 9.3751ZM9.37506 16.8751C8.54256 16.8752 7.73399 16.5967 7.07818 16.0839L8.39959 14.7624C8.92608 15.2198 9.59033 15.4881 10.2868 15.5246C10.4848 15.5317 10.6822 15.499 10.8674 15.4285C11.0526 15.358 11.2218 15.251 11.3649 15.114C12.0324 14.446 11.8594 13.2062 11.0115 12.1524L12.3352 10.8282C12.7661 11.382 13.0329 12.0457 13.105 12.7436C13.1772 13.4416 13.0518 14.1458 12.7433 14.776C12.4348 15.4062 11.9555 15.9371 11.36 16.3082C10.7645 16.6794 10.0767 16.8758 9.37506 16.8751ZM10.344 12.819C10.8465 13.4879 10.966 14.1859 10.7012 14.4512C10.4363 14.7165 9.7374 14.596 9.06897 14.094L10.344 12.819ZM8.04709 11.799C8.16153 11.7004 8.31026 11.6508 8.461 11.6612C8.90852 11.6979 9.33396 11.8712 9.67975 12.1576L8.40615 13.4312C7.90365 12.7623 7.78412 12.0643 8.04897 11.799H8.04709Z" fill="white"/>
</g>
<defs>
<clipPath id="clip0_58_537">
<rect width="30" height="30" fill="white"/>
</clipPath>
</defs>
</svg>
